<?xml version="1.0" encoding="UTF-8"?>
<svg id="Camada_1" data-name="Camada 1" xmlns="http://www.w3.org/2000/svg" xmlns:xlink="http://www.w3.org/1999/xlink" viewBox="0 0 130 189.62">
  <defs>
    <style>
      .cls-1 {
        stroke: url(#Gradiente_sem_nome_7-2);
      }

      .cls-1, .cls-2, .cls-3, .cls-4, .cls-5, .cls-6, .cls-7, .cls-8, .cls-9, .cls-10, .cls-11, .cls-12 {
        fill: none;
      }

      .cls-1, .cls-2, .cls-3, .cls-4, .cls-6, .cls-7, .cls-8, .cls-9, .cls-10, .cls-11, .cls-12 {
        stroke-miterlimit: 10;
        stroke-width: 9px;
      }

      .cls-2 {
        stroke: url(#Gradiente_sem_nome_7-3);
      }

      .cls-3 {
        stroke: url(#Gradiente_sem_nome_7-10);
      }

      .cls-4 {
        stroke: url(#Gradiente_sem_nome_7-7);
      }

      .cls-13 {
        opacity: .3;
      }

      .cls-14 {
        fill: #c27460;
      }

      .cls-15 {
        fill: #375a64;
      }

      .cls-6 {
        stroke: url(#Gradiente_sem_nome_7-8);
      }

      .cls-16 {
        fill: #1a2e35;
      }

      .cls-17 {
        clip-path: url(#clippath-1);
      }

      .cls-18 {
        fill: #7c4235;
      }

      .cls-19 {
        fill: #004788;
      }

      .cls-7 {
        stroke: url(#Gradiente_sem_nome_7-9);
      }

      .cls-8 {
        stroke: url(#Gradiente_sem_nome_7-6);
      }

      .cls-9 {
        stroke: url(#Gradiente_sem_nome_7-4);
      }

      .cls-10 {
        stroke: url(#Gradiente_sem_nome_7);
      }

      .cls-11 {
        stroke: url(#Gradiente_sem_nome_7-11);
      }

      .cls-12 {
        stroke: url(#Gradiente_sem_nome_7-5);
      }

      .cls-20 {
        clip-path: url(#clippath);
      }

      .cls-21 {
        fill: #e1e1e1;
      }
    </style>
    <clipPath id="clippath">
      <circle class="cls-5" cx="251.07" cy="-168.07" r="99.04"/>
    </clipPath>
    <linearGradient id="Gradiente_sem_nome_7" data-name="Gradiente sem nome 7" x1="124.11" y1="-26.57" x2="352.16" y2="-26.57" gradientUnits="userSpaceOnUse">
      <stop offset="0" stop-color="#92acce"/>
      <stop offset="1" stop-color="#fc9e49"/>
    </linearGradient>
    <linearGradient id="Gradiente_sem_nome_7-2" data-name="Gradiente sem nome 7" x1="113.89" y1="119.14" x2="341.94" y2="119.14" xlink:href="#Gradiente_sem_nome_7"/>
    <linearGradient id="Gradiente_sem_nome_7-3" data-name="Gradiente sem nome 7" x1="125.86" y1="-51.52" x2="353.91" y2="-51.52" xlink:href="#Gradiente_sem_nome_7"/>
    <linearGradient id="Gradiente_sem_nome_7-4" data-name="Gradiente sem nome 7" x1="115.57" y1="95.19" x2="343.62" y2="95.19" xlink:href="#Gradiente_sem_nome_7"/>
    <linearGradient id="Gradiente_sem_nome_7-5" data-name="Gradiente sem nome 7" x1="127.54" y1="-75.47" x2="355.59" y2="-75.47" xlink:href="#Gradiente_sem_nome_7"/>
    <linearGradient id="Gradiente_sem_nome_7-6" data-name="Gradiente sem nome 7" x1="117.32" y1="70.24" x2="345.37" y2="70.24" xlink:href="#Gradiente_sem_nome_7"/>
    <linearGradient id="Gradiente_sem_nome_7-7" data-name="Gradiente sem nome 7" x1="129.22" y1="-99.42" x2="357.27" y2="-99.42" xlink:href="#Gradiente_sem_nome_7"/>
    <linearGradient id="Gradiente_sem_nome_7-8" data-name="Gradiente sem nome 7" x1="119" y1="46.29" x2="347.05" y2="46.29" xlink:href="#Gradiente_sem_nome_7"/>
    <linearGradient id="Gradiente_sem_nome_7-9" data-name="Gradiente sem nome 7" x1="120.68" y1="22.33" x2="348.73" y2="22.33" xlink:href="#Gradiente_sem_nome_7"/>
    <linearGradient id="Gradiente_sem_nome_7-10" data-name="Gradiente sem nome 7" x1="112.13" y1="143.59" x2="340.27" y2="143.59" xlink:href="#Gradiente_sem_nome_7"/>
    <linearGradient id="Gradiente_sem_nome_7-11" data-name="Gradiente sem nome 7" x1="122.43" y1="-2.62" x2="350.48" y2="-2.62" xlink:href="#Gradiente_sem_nome_7"/>
    <clipPath id="clippath-1">
      <path class="cls-5" d="M27.09,189.62h180.27V0H-4.77v157.77c0,17.59,14.26,31.85,31.85,31.85Z"/>
    </clipPath>
  </defs>
  <g class="cls-20">
    <g id="Grupo_de_máscara_8" data-name="Grupo de máscara 8">
      <g id="Grupo_260" data-name="Grupo 260">
        <line id="Linha_157" data-name="Linha 157" class="cls-10" x1="127.06" y1="69.94" x2="349.21" y2="-123.08"/>
        <line id="Linha_158" data-name="Linha 158" class="cls-1" x1="116.84" y1="215.65" x2="338.99" y2="22.63"/>
        <line id="Linha_162" data-name="Linha 162" class="cls-2" x1="128.81" y1="44.99" x2="350.96" y2="-148.03"/>
        <line id="Linha_163" data-name="Linha 163" class="cls-9" x1="118.52" y1="191.7" x2="340.67" y2="-1.32"/>
        <line id="Linha_167" data-name="Linha 167" class="cls-12" x1="130.49" y1="21.04" x2="352.64" y2="-171.98"/>
        <line id="Linha_168" data-name="Linha 168" class="cls-8" x1="120.27" y1="166.75" x2="342.42" y2="-26.27"/>
        <line id="Linha_172" data-name="Linha 172" class="cls-4" x1="132.17" y1="-2.91" x2="354.32" y2="-195.93"/>
        <line id="Linha_173" data-name="Linha 173" class="cls-6" x1="121.95" y1="142.8" x2="344.1" y2="-50.23"/>
        <line id="Linha_178" data-name="Linha 178" class="cls-7" x1="123.63" y1="118.85" x2="345.78" y2="-74.18"/>
        <line id="Linha_179" data-name="Linha 179" class="cls-3" x1="115.09" y1="240.6" x2="337.31" y2="46.58"/>
        <line id="Linha_183" data-name="Linha 183" class="cls-11" x1="125.38" y1="93.9" x2="347.53" y2="-99.13"/>
      </g>
    </g>
  </g>
  <g class="cls-17">
    <g>
      <g>
        <path class="cls-16" d="M78.64,32.7c2.27.12,4.48-1.68,4.83-3.93.35-2.25-1.22-4.63-3.42-5.2,1.31-1.52,1.52-3.9.49-5.63-1.03-1.73-3.23-2.67-5.19-2.24-.2-1.98-1.5-3.8-3.31-4.64-1.8-.84-4.04-.66-5.68.45-2.31-1.74-5.84-1.6-8,.33-1.95-.24-3.99.92-4.78,2.71-.8,1.79-.29,4.08,1.19,5.37"/>
        <g>
          <g>
            <path class="cls-14" d="M79.36,33.31c-1.44-10.16-10.44-17.52-20.69-16.9l-1.02.06c-10.94,1.3-15.94,11.32-14.34,22.22l3.79,36.46.29,10.86,25.81,5.97-.85-20.83s10.45-2.28,9.95-12.84c-.24-5.1-1.6-15.56-2.94-25.01Z"/>
            <path class="cls-18" d="M72.44,71.14s-6.71.81-14.07-3.21c0,0,3.71,7.4,14.18,5.81l-.11-2.6Z"/>
            <path class="cls-16" d="M77.69,41.62c.08.79-.53,1.51-1.36,1.61-.83.09-1.56-.47-1.64-1.26s.53-1.51,1.36-1.61c.83-.09,1.56.47,1.64,1.27Z"/>
            <path class="cls-16" d="M77.4,38.61c-.17.21-1.37-.57-2.99-.47-1.62.08-2.76.98-2.95.8-.09-.08.08-.45.57-.86.49-.41,1.34-.82,2.35-.88,1.01-.06,1.88.27,2.39.62.52.35.71.7.62.79Z"/>
            <path class="cls-16" d="M62.39,43.24c.08.79-.53,1.51-1.36,1.61-.83.09-1.56-.47-1.64-1.27-.08-.79.53-1.51,1.36-1.61.83-.1,1.56.47,1.64,1.27Z"/>
            <path class="cls-16" d="M61.48,39.87c-.18.21-1.37-.57-2.99-.47-1.62.08-2.76.98-2.95.8-.09-.08.08-.45.57-.86.49-.41,1.33-.82,2.35-.88,1.01-.06,1.88.27,2.39.62.52.35.71.7.63.79Z"/>
            <path class="cls-16" d="M68.09,51.54c-.01-.09.98-.33,2.6-.63.41-.07.8-.17.85-.46.08-.3-.12-.74-.35-1.21-.45-.98-.92-2-1.41-3.08-1.97-4.39-3.42-8-3.25-8.08.18-.08,1.92,3.41,3.89,7.8.48,1.08.93,2.11,1.36,3.1.18.46.49.98.31,1.61-.09.32-.38.56-.64.65-.26.1-.49.12-.7.14-1.64.19-2.66.26-2.67.16Z"/>
            <path class="cls-16" d="M63.39,52.95c.26-.03.37,1.73,1.95,2.89,1.58,1.16,3.44.85,3.47,1.1.03.11-.4.37-1.19.44-.78.07-1.92-.11-2.89-.82-.97-.71-1.42-1.71-1.53-2.43-.11-.73.06-1.18.18-1.18Z"/>
            <path class="cls-16" d="M61.52,33.49c-.13.45-1.76.34-3.65.68-1.9.31-3.4.96-3.67.58-.12-.18.12-.61.71-1.08.59-.46,1.55-.93,2.68-1.12,1.13-.19,2.19-.08,2.9.16.72.24,1.09.56,1.03.78Z"/>
            <path class="cls-16" d="M76.52,33.95c-.26.39-1.4.07-2.75.13-1.35.02-2.47.4-2.75.03-.13-.18.03-.56.51-.94.47-.38,1.27-.71,2.2-.74.92-.03,1.74.26,2.23.61.5.35.68.72.56.91Z"/>
            <path class="cls-16" d="M78.05,28.53s-3.18-6.44-6.46-7.79c-3.97-1.63-5.38,2.7-9.11,1.89-3.74-.81-7.53-2.38-11.11.69-3.92,3.36-1.87,5.42-1.84,10.12.11,19.04-3.03,24.62-4.55,15.74-.17-.97-2.93-1.59-3.58-5.7-.85-5.33-1.45-11.84-.48-15.72.82-3.27,2.51-5.6,5.65-8.24,4.95-4.17,12.06-4.68,16.92-4.49,4.86.19,14.51,5.19,14.57,13.49Z"/>
            <path class="cls-14" d="M45.63,48.86c-.16-1.62-1.65-2.83-3.26-2.57-1.96.31-4.08,1.56-3.7,5.61.67,7.2,7.76,5.05,7.75,4.84,0-.14-.48-4.87-.79-7.88Z"/>
            <path class="cls-18" d="M44.6,54.17s-.12.1-.32.22c-.2.11-.55.21-.94.11-.79-.21-1.54-1.36-1.69-2.65-.08-.65,0-1.29.19-1.83.17-.55.48-.95.85-1.05.37-.12.67.08.77.28.12.19.08.34.12.35.02.02.14-.14.06-.43-.04-.14-.14-.3-.33-.42-.19-.12-.45-.17-.71-.12-.55.09-1,.65-1.21,1.24-.23.6-.34,1.31-.25,2.05.18,1.45,1.05,2.74,2.12,2.94.52.09.93-.11,1.13-.3.21-.2.23-.36.2-.37Z"/>
          </g>
          <path class="cls-16" d="M44.93,34.87c.98.58,2,1.18,3.14,1.23,1.14.04,2.39-.68,2.51-1.81.06-.51-.1-1.08.2-1.49.37-.49,1.1-.39,1.71-.36,2.11.1,4.17-1.52,4.58-3.59.58.77,1.83.66,2.61.09s1.25-1.46,1.84-2.22c.59-.76,1.44-1.47,2.4-1.39.54.04,1.06.33,1.59.25.94-.14,1.34-1.28,1.42-2.23.09-.95.13-2.05.9-2.61.71-.52,1.7-.3,2.57-.23.88.08,1.99-.2,2.17-1.06.09-.45-.13-.91-.4-1.29-1.23-1.7-3.73-2.34-5.62-1.44-.85-2.34-3.19-4.06-5.68-4.17-2.49-.11-4.97,1.39-6.03,3.65-1.61-1.29-3.86-1.74-5.84-1.16-1.98.58-3.63,2.17-4.29,4.12-1.78-.36-3.74.44-4.77,1.94-1.03,1.5-1.06,3.62-.08,5.15-1.25.82-2.28,2.17-2.22,3.67.06,1.49,1.61,2.89,3.02,2.42-.51,1.2.06,2.75,1.22,3.33,1.17.58,2.75.1,3.39-1.02"/>
          <path class="cls-15" d="M67.22,18.82s0,.04,0,.13c0,.09,0,.22-.02.39-.05.34-.15.84-.44,1.42-.29.57-.76,1.25-1.5,1.8-.72.56-1.73,1.01-2.9,1.02l.11-.17c.26.6.24,1.35-.02,2-.25.66-.68,1.26-1.13,1.85-.23.28-.43.61-.76.88-.32.26-.71.42-1.12.49-.81.15-1.74-.04-2.37-.69l.27-.09c-.1,1.45-.83,2.93-2.07,3.88-.66.54-1.49.89-2.32.92-.84.04-1.63-.16-2.37-.37l.19-.1c-.33.92-.88,1.72-1.57,2.33-.68.61-1.6.99-2.47.84-1.72-.26-2.94-1.61-3.25-2.93l.17.07c-.82.51-1.72.61-2.46.51-.75-.09-1.34-.38-1.78-.67-.43-.3-.7-.61-.86-.83-.15-.23-.21-.36-.21-.36.03-.03.27.53,1.13,1.09.43.27,1.01.52,1.73.59.71.08,1.56-.04,2.32-.52l.13-.08.04.15c.3,1.23,1.47,2.49,3.07,2.71.79.14,1.6-.21,2.24-.78.64-.57,1.17-1.34,1.48-2.21l.05-.14.14.04c.73.21,1.49.39,2.26.35.77-.03,1.52-.35,2.14-.85,1.17-.9,1.86-2.29,1.96-3.66l.02-.34.24.25c.53.56,1.37.75,2.09.61.36-.07.71-.21.99-.43.27-.21.48-.54.71-.82.45-.58.86-1.15,1.1-1.77.26-.61.27-1.26.05-1.81l-.07-.17h.18c1.1,0,2.08-.41,2.79-.93.72-.52,1.19-1.16,1.49-1.71.59-1.13.52-1.89.58-1.88Z"/>
        </g>
      </g>
      <g>
        <g>
          <path class="cls-19" d="M74.89,88.52s5.42,2.78,6.82,3.78c1.4,1,13.04,35.14,13.04,35.14l-.08,44.32,15.17,51.5-9.18,4.93-6.76-28.42-19.76-105.39.75-5.87Z"/>
          <path class="cls-19" d="M44.92,69.71l-4.75,9.13-20.99,16.34,14.49,85.13-7.7,57.93,60.69-.64s10.04-24.33,8.03-42.78c-2.01-18.45-11.92-67.69-11.92-67.69-9.8-21.49-22.62-40.47-37.85-57.43Z"/>
          <path class="cls-21" d="M45.3,70.13l.57-4.08,24.27,19.92,3.38-5.79,1.37,8.34-.75,5.87s10.37,25.79,11.57,31.31c1.2,5.52,4.69,41.57,4.69,41.57l-20.64-57.05-24.44-40.09Z"/>
          <path class="cls-16" d="M69.28,86.52s-.4.73-.92,2.09c-.51,1.35-1.08,3.41-.98,5.92l.03.65-.39-.53c-1.88-2.54-4.25-5.58-6.96-8.74-3.51-4.11-6.94-7.61-9.47-10.09-1.23-1.18-2.26-2.16-3.03-2.9-.72-.68-1.11-1.07-1.09-1.09.02-.03.45.31,1.22.95.76.64,1.84,1.59,3.14,2.79,2.6,2.42,6.08,5.89,9.61,10.02,2.72,3.17,5.07,6.25,6.91,8.82l-.36.12c-.06-2.59.58-4.68,1.16-6.03.3-.68.58-1.18.78-1.52.21-.33.34-.5.35-.49Z"/>
          <path class="cls-16" d="M73.49,93.93c-.13.04-.73-1.39-1.36-3.2-.62-1.81-1.02-3.32-.89-3.36.13-.04.73,1.39,1.36,3.2.62,1.81,1.02,3.31.89,3.36Z"/>
          <path class="cls-16" d="M90.39,167.27s-.11-.27-.26-.8c-.16-.57-.38-1.35-.65-2.33-.56-2.07-1.34-4.99-2.3-8.58-1.91-7.29-4.53-17.29-7.42-28.34-2.84-11.06-5.41-21.08-7.28-28.38-.9-3.6-1.63-6.54-2.15-8.61-.24-.99-.42-1.77-.56-2.35-.12-.54-.18-.82-.16-.83.02,0,.1.27.26.8.16.57.38,1.35.65,2.32.56,2.07,1.34,4.99,2.3,8.57,1.91,7.29,4.53,17.29,7.42,28.34,2.84,11.06,5.41,21.08,7.28,28.38.9,3.6,1.63,6.54,2.15,8.61.24.99.42,1.77.56,2.35.12.54.18.82.16.83Z"/>
          <path class="cls-16" d="M88.6,162.35s-.06-.06-.16-.2c-.11-.16-.25-.36-.43-.62-.39-.58-.92-1.38-1.61-2.39-1.4-2.12-3.4-5.15-5.86-8.89-4.94-7.57-11.77-18.03-19.38-29.69l-.06-.1.04-.11c.3-.88.62-1.83.95-2.78.59-1.72,1.16-3.42,1.73-5.09l.37.28c-1.69,1.14-3.36,2.26-4.98,3.36l-.25.17-.11-.28c-4.37-11.05-8.79-20.46-12.11-27.09-1.66-3.32-3.03-5.94-3.98-7.75-.46-.88-.82-1.57-1.09-2.07-.11-.22-.2-.4-.27-.54-.06-.12-.09-.19-.08-.19,0,0,.05.05.12.17.08.14.18.31.31.52.28.49.67,1.17,1.16,2.03.99,1.78,2.41,4.39,4.11,7.69,3.4,6.59,7.88,15.99,12.28,27.05l-.36-.11c1.62-1.1,3.28-2.22,4.97-3.37l.6-.41-.23.69c-.57,1.67-1.15,3.37-1.73,5.09-.32.95-.65,1.9-.95,2.78l-.03-.21c7.57,11.7,14.34,22.18,19.25,29.78,2.41,3.77,4.37,6.83,5.74,8.97.65,1.04,1.17,1.86,1.53,2.44.16.26.29.47.39.64.09.15.13.22.12.23Z"/>
          <path class="cls-16" d="M90.02,164.46s.17.54.4,1.55c.23,1,.53,2.46.88,4.27.7,3.61,1.54,8.62,2.25,14.19.7,5.57,1.13,10.64,1.35,14.31.11,1.84.18,3.32.21,4.35.03,1.03.03,1.6,0,1.6-.03,0-.1-.56-.18-1.59-.09-1.11-.21-2.57-.36-4.34-.31-3.66-.79-8.71-1.49-14.27-.7-5.56-1.49-10.57-2.1-14.19-.3-1.75-.54-3.2-.73-4.29-.17-1.01-.25-1.58-.22-1.58Z"/>
        </g>
        <g class="cls-13">
          <path d="M33.69,181.51c4.75,3.34,10.64,2.86,16.16,1.07,9-2.92,17.92-6.08,26.75-9.48,2.88-1.11,6.14-2.67,6.81-5.68-16.95,5.26-32.77,8.83-49.72,14.09Z"/>
        </g>
        <g class="cls-13">
          <polygon points="48.64 91.99 57.57 120.36 61.16 116.66 59.73 123.18 77.17 145.37 61.57 120.29 63.81 112.48 59.29 115.83 48.64 91.99"/>
        </g>
        <g>
          <path class="cls-14" d="M91.28,130.23l-6.48,9.14-1.39,5.25-5.74,3.3,5.14,13.18,3.73-3.71,21.61-9.35,7.38-8.99s-.88-1.37-1.96-1.25c-1.08.12-6.03,4.07-6.03,4.07l-3.23,1.78,7.74-6.27s.1-.98-1.85-1.06c-1.95-.09-7.87,3.44-7.87,3.44,0,0-5.27,3.31-6.47,3.21-1.19-.1-5.54-1.13-5.45-2.65.09-1.52,2.35-2.95,2.66-4.8.31-1.85.82-4.13-1.79-5.29Z"/>
          <g>
            <path class="cls-19" d="M23.19,93.11c-3.35.6-5.98,3.21-6.83,6.5-.7,2.72-1.42,6.8-1.36,12.04.06,5.49,4.14,58.56,5.29,61.88,1.21,3.51,4.52,8.16,9.21,8.68,3.87.43,55.97-14.89,55.97-14.89l-8.46-21.7-29.91,2s-2.98-40.66-5.57-46.12c-2.05-4.32-10.81-9.75-18.34-8.4Z"/>
            <path class="cls-16" d="M41.6,103.03c-.08.05-.74-1.1-2.15-2.67-.7-.79-1.62-1.64-2.71-2.5-1.11-.83-2.41-1.65-3.86-2.34-1.46-.67-2.92-1.14-4.27-1.46-1.36-.29-2.61-.45-3.66-.48-2.11-.08-3.41.16-3.42.06,0-.03.32-.11.9-.21.29-.06.66-.11,1.08-.14.42-.03.91-.09,1.44-.06,1.07-.02,2.35.11,3.75.38,1.39.3,2.89.77,4.38,1.45,1.48.7,2.8,1.56,3.93,2.43,1.1.89,2.02,1.79,2.7,2.63.36.4.63.81.88,1.15.26.34.45.65.59.92.3.52.45.81.42.83Z"/>
            <path class="cls-16" d="M33.69,181.67s.08-.04.25-.09c.19-.06.43-.13.74-.23.68-.2,1.65-.48,2.89-.84,2.55-.72,6.21-1.76,10.8-3.06,9.24-2.58,22.16-6.19,37.04-10.35l-.16.31c-2.01-5.14-4.15-10.63-6.35-16.27-.71-1.83-1.42-3.64-2.11-5.43l.24.15c-10.99.6-21.24,1.17-30.12,1.65h-.2s-.02-.19-.02-.19c-1.08-10.5-1.98-19.25-2.61-25.4-.3-3.05-.53-5.45-.7-7.12-.07-.8-.13-1.43-.17-1.88-.01-.2-.03-.35-.03-.48,0-.11,0-.16,0-.16,0,0,.02.05.03.16.02.13.04.28.07.48.06.45.13,1.07.23,1.87.19,1.67.46,4.06.81,7.1.67,6.15,1.63,14.89,2.78,25.38l-.22-.19c8.88-.51,19.13-1.09,30.11-1.72h.18s.06.16.06.16c.7,1.78,1.4,3.6,2.12,5.42,2.2,5.65,4.33,11.13,6.34,16.28l.1.25-.25.07c-14.89,4.09-27.84,7.64-37.09,10.18-4.6,1.24-8.28,2.24-10.83,2.93-1.25.33-2.22.58-2.91.76-.31.08-.56.14-.75.19-.17.04-.26.06-.26.05Z"/>
            <path class="cls-16" d="M47.1,147.63c.12.09-1.39,2.22-3.11,4.92-1.75,2.69-2.76,5.08-2.88,5.04-.15-.04.69-2.58,2.46-5.3,1.74-2.73,3.43-4.73,3.53-4.66Z"/>
          </g>
        </g>
      </g>
    </g>
  </g>
</svg>