<?xml version="1.0" encoding="UTF-8"?>
<svg id="Camada_1" data-name="Camada 1" xmlns="http://www.w3.org/2000/svg" xmlns:xlink="http://www.w3.org/1999/xlink" viewBox="0 0 160 189.62">
  <defs>
    <style>
      .cls-1 {
        fill: #ff9c6a;
      }

      .cls-2 {
        stroke: url(#Gradiente_sem_nome_7-2);
      }

      .cls-2, .cls-3, .cls-4, .cls-5, .cls-6, .cls-7, .cls-8, .cls-9, .cls-10, .cls-11, .cls-12, .cls-13 {
        fill: none;
      }

      .cls-2, .cls-3, .cls-4, .cls-5, .cls-7, .cls-8, .cls-9, .cls-10, .cls-11, .cls-12, .cls-13 {
        stroke-miterlimit: 10;
        stroke-width: 9px;
      }

      .cls-3 {
        stroke: url(#Gradiente_sem_nome_7-3);
      }

      .cls-4 {
        stroke: url(#Gradiente_sem_nome_7-10);
      }

      .cls-5 {
        stroke: url(#Gradiente_sem_nome_7-7);
      }

      .cls-14 {
        opacity: .3;
      }

      .cls-15 {
        fill: #375a64;
      }

      .cls-7 {
        stroke: url(#Gradiente_sem_nome_7-8);
      }

      .cls-16 {
        fill: #1a2e35;
      }

      .cls-17 {
        fill: #ffc19d;
      }

      .cls-18 {
        fill: #004788;
      }

      .cls-8 {
        stroke: url(#Gradiente_sem_nome_7-9);
      }

      .cls-9 {
        stroke: url(#Gradiente_sem_nome_7-6);
      }

      .cls-10 {
        stroke: url(#Gradiente_sem_nome_7-4);
      }

      .cls-11 {
        stroke: url(#Gradiente_sem_nome_7);
      }

      .cls-19 {
        clip-path: url(#clippath-2);
      }

      .cls-12 {
        stroke: url(#Gradiente_sem_nome_7-11);
      }

      .cls-13 {
        stroke: url(#Gradiente_sem_nome_7-5);
      }

      .cls-20 {
        clip-path: url(#clippath);
      }

      .cls-21 {
        fill: #e1e1e1;
      }
    </style>
    <clipPath id="clippath">
      <circle class="cls-6" cx="63.71" cy="-168.07" r="99.04"/>
    </clipPath>
    <linearGradient id="Gradiente_sem_nome_7" data-name="Gradiente sem nome 7" x1="-63.25" y1="-26.57" x2="164.8" y2="-26.57" gradientUnits="userSpaceOnUse">
      <stop offset="0" stop-color="#92acce"/>
      <stop offset="1" stop-color="#fc9e49"/>
    </linearGradient>
    <linearGradient id="Gradiente_sem_nome_7-2" data-name="Gradiente sem nome 7" x1="-73.47" y1="119.14" x2="154.58" y2="119.14" xlink:href="#Gradiente_sem_nome_7"/>
    <linearGradient id="Gradiente_sem_nome_7-3" data-name="Gradiente sem nome 7" x1="-61.5" y1="-51.52" x2="166.55" y2="-51.52" xlink:href="#Gradiente_sem_nome_7"/>
    <linearGradient id="Gradiente_sem_nome_7-4" data-name="Gradiente sem nome 7" x1="-71.79" y1="95.19" x2="156.26" y2="95.19" xlink:href="#Gradiente_sem_nome_7"/>
    <linearGradient id="Gradiente_sem_nome_7-5" data-name="Gradiente sem nome 7" x1="-59.82" y1="-75.47" x2="168.23" y2="-75.47" xlink:href="#Gradiente_sem_nome_7"/>
    <linearGradient id="Gradiente_sem_nome_7-6" data-name="Gradiente sem nome 7" x1="-70.04" y1="70.24" x2="158.01" y2="70.24" xlink:href="#Gradiente_sem_nome_7"/>
    <linearGradient id="Gradiente_sem_nome_7-7" data-name="Gradiente sem nome 7" x1="-58.14" y1="-99.42" x2="169.91" y2="-99.42" xlink:href="#Gradiente_sem_nome_7"/>
    <linearGradient id="Gradiente_sem_nome_7-8" data-name="Gradiente sem nome 7" x1="-68.36" y1="46.29" x2="159.69" y2="46.29" xlink:href="#Gradiente_sem_nome_7"/>
    <linearGradient id="Gradiente_sem_nome_7-9" data-name="Gradiente sem nome 7" x1="-66.68" y1="22.33" x2="161.37" y2="22.33" xlink:href="#Gradiente_sem_nome_7"/>
    <linearGradient id="Gradiente_sem_nome_7-10" data-name="Gradiente sem nome 7" x1="-75.23" y1="143.59" x2="152.91" y2="143.59" xlink:href="#Gradiente_sem_nome_7"/>
    <linearGradient id="Gradiente_sem_nome_7-11" data-name="Gradiente sem nome 7" x1="-64.93" y1="-2.62" x2="163.12" y2="-2.62" xlink:href="#Gradiente_sem_nome_7"/>
    <clipPath id="clippath-2">
      <path class="cls-6" d="M116.52,189.62H-63.64V0h212v157.77c0,17.59-14.25,31.85-31.84,31.85Z"/>
    </clipPath>
  </defs>
  <g class="cls-20">
    <g id="Grupo_de_máscara_8" data-name="Grupo de máscara 8">
      <g id="Grupo_260" data-name="Grupo 260">
        <line id="Linha_157" data-name="Linha 157" class="cls-11" x1="-60.3" y1="69.94" x2="161.85" y2="-123.08"/>
        <line id="Linha_158" data-name="Linha 158" class="cls-2" x1="-70.52" y1="215.65" x2="151.63" y2="22.63"/>
        <line id="Linha_162" data-name="Linha 162" class="cls-3" x1="-58.55" y1="44.99" x2="163.6" y2="-148.03"/>
        <line id="Linha_163" data-name="Linha 163" class="cls-10" x1="-68.84" y1="191.7" x2="153.31" y2="-1.32"/>
        <line id="Linha_167" data-name="Linha 167" class="cls-13" x1="-56.87" y1="21.04" x2="165.28" y2="-171.98"/>
        <line id="Linha_168" data-name="Linha 168" class="cls-9" x1="-67.09" y1="166.75" x2="155.06" y2="-26.27"/>
        <line id="Linha_172" data-name="Linha 172" class="cls-5" x1="-55.19" y1="-2.91" x2="166.96" y2="-195.93"/>
        <line id="Linha_173" data-name="Linha 173" class="cls-7" x1="-65.41" y1="142.8" x2="156.74" y2="-50.23"/>
        <line id="Linha_178" data-name="Linha 178" class="cls-8" x1="-63.73" y1="118.85" x2="158.42" y2="-74.18"/>
        <line id="Linha_179" data-name="Linha 179" class="cls-4" x1="-72.27" y1="240.6" x2="149.95" y2="46.58"/>
        <line id="Linha_183" data-name="Linha 183" class="cls-12" x1="-61.98" y1="93.9" x2="160.17" y2="-99.13"/>
      </g>
    </g>
  </g>
  <g class="cls-19">
    <g>
      <polygon class="cls-16" points="65.74 214.31 64.53 185.19 134.36 185.47 142.66 214.31 65.74 214.31"/>
      <g>
        <g>
          <path class="cls-16" d="M110.74,52.57c1.7-4.21,3.38-8.44,4.33-12.88.95-4.43,1.14-9.11-.14-13.47-.19-.66-1.93-5.12-2.62-5.1-.49.01.48,4.13.21,4.53-2.64,3.88-3.62,8.7-3.57,13.39.05,4.69.73,8.95,1.78,13.52"/>
          <path class="cls-17" d="M83.61,75.88c.19-3.2.33-5.72.31-5.72,0,0-10.89-1.87-10.85-12.79.02-5.27.95-16.12,1.9-25.93,1.02-10.55,9.98-18.55,20.57-18.38l1.05.02c11.34.85,16.96,10.95,15.8,22.27l-2.8,39.71-8.34,8.64c-6.65,6.89-18.27,1.74-17.64-7.82h0Z"/>
          <path class="cls-1" d="M83.92,70.15s6.87.52,14.28-3.97c0,0-3.59,7.88-14.47,6.72l.19-2.75Z"/>
          <path class="cls-16" d="M77.55,41.05c-.04.82.62,1.54,1.48,1.6.86.06,1.59-.56,1.63-1.38.04-.82-.62-1.54-1.48-1.6-.86-.06-1.59.56-1.63,1.38Z"/>
          <path class="cls-16" d="M77.23,35.99c.19.21,1.38-.65,3.06-.62,1.68,0,2.89.89,3.08.69.09-.09-.1-.46-.63-.86-.52-.4-1.41-.79-2.46-.8-1.04-.01-1.93.36-2.44.74-.52.39-.7.75-.61.84Z"/>
          <path class="cls-16" d="M92.5,41.98c-.04.82.62,1.54,1.48,1.6.86.06,1.59-.56,1.63-1.38.04-.82-.62-1.54-1.48-1.6-.86-.06-1.59.56-1.63,1.38Z"/>
          <path class="cls-16" d="M92.83,36.83c.19.21,1.39-.65,3.06-.62,1.68,0,2.89.89,3.08.69.09-.09-.1-.46-.63-.86-.52-.4-1.41-.79-2.46-.8-1.04-.01-1.93.36-2.44.74-.52.39-.7.75-.61.84Z"/>
          <path class="cls-16" d="M87.42,49.72c0-.1-1.03-.29-2.72-.54-.43-.05-.83-.14-.9-.44-.1-.31.09-.77.31-1.26.42-1.03.86-2.11,1.32-3.24,1.83-4.61,3.17-8.41,2.98-8.48-.19-.07-1.82,3.61-3.66,8.22-.44,1.14-.86,2.22-1.27,3.26-.17.48-.46,1.03-.25,1.68.11.32.42.56.69.64.27.09.51.1.73.11,1.7.12,2.75.14,2.76.05Z"/>
          <path class="cls-16" d="M93.07,31.18c.23.43,1.86-.04,3.84-.11,1.98-.1,3.64.22,3.83-.22.09-.21-.25-.59-.95-.93-.7-.34-1.76-.6-2.95-.55-1.19.05-2.23.4-2.89.8-.67.4-.97.81-.87,1.01Z"/>
          <path class="cls-16" d="M77.82,30.13c.29.39,1.45,0,2.84.01,1.39-.04,2.56.3,2.84-.1.12-.19-.06-.58-.57-.94-.5-.37-1.34-.67-2.3-.66-.95.01-1.79.35-2.28.73-.5.38-.66.77-.54.96Z"/>
          <path class="cls-17" d="M111.37,43.41c.19-.08,7.53-2.1,7.18,5.36-.36,7.46-7.77,5.56-7.77,5.34,0-.21.6-10.7.6-10.7Z"/>
          <path class="cls-1" d="M113.19,51.4s.13.1.34.21c.21.11.57.19.97.07.8-.25,1.53-1.47,1.63-2.81.05-.68-.06-1.33-.27-1.88-.2-.56-.54-.95-.93-1.04-.39-.11-.68.11-.78.32-.11.2-.07.35-.11.37-.02.02-.15-.13-.08-.44.04-.15.13-.32.32-.45.19-.14.45-.2.73-.16.57.07,1.07.62,1.3,1.22.27.6.41,1.34.35,2.1-.12,1.5-.96,2.87-2.05,3.13-.53.11-.96-.07-1.18-.25-.22-.2-.25-.36-.23-.38Z"/>
          <path class="cls-16" d="M80.5,19.35c-1.17-.73,2.67-4.43,5.72-5.61,4.6-1.78,11.51-2.64,15.57-1.23,4.89,1.69,8.88,4.4,11.12,9.07,2.24,4.67,2.88,10,2.44,15.16-.13,1.57-.39,3.21-1.31,4.49-1.14,1.59-3.19,2.51-3.23,4.79-.02.83-.3,1.66-.9,2.23-1.45,1.37-3.04-.08-3.73-1.5-1.47-3.01-1.46-6.51-1.41-9.86.03-2.38.08-4.82.88-7.06.44-1.22,1.09-2.36,1.46-3.61.37-1.24.41-2.68-.32-3.75-.12-.17-.32-.4-.57-.65-2.01-1.97-4.93-2.69-7.63-1.91-4.28,1.25-11.58,3.05-13.37,1.52-2.58-2.2-3.14-3.58-3.14-3.58l-1.57,1.48Z"/>
        </g>
        <path class="cls-16" d="M87.72,55.52c0,.13.37.3,1.02.28.64-.02,1.54-.27,2.34-.86.8-.59,1.3-1.37,1.51-1.98.21-.61.16-1.02.03-1.05-.28-.07-.81,1.25-2.15,2.21-1.31,1-2.73,1.11-2.74,1.41Z"/>
      </g>
      <g>
        <g>
          <path class="cls-17" d="M19.05,110.76c-1.53-2.51-3.34-5.25-3.34-5.25l-1.48-2.52c-.13.15-.24.31-.34.48-.19.32-.39.65-.71.84-.61.35-1.4,0-1.92-.47-1.1-.99-1.61-2.58-1.29-4.02.31-1.38,1.38-2.54,2.71-3,.18-.33.42-.64.77-.92,2.13-1.73,5.94-.55,5.94-.55l-.4-.95s-2.27-2.25-7.29-.49c-.75.26-1.58.27-2.32-.03-.45-.19-.86-.49-1.02-.98-.4-1.23.37-1.82,3.49-2.97,3.12-1.14,6.5-1.21,8.37.01,1.87,1.22,2.52,1.82,2.52,1.82,0,0-3.06-8.81-3.24-9.37-.5-1.63-.18-3.22.88-3.65.68-.28,1.74-.12,2.38,1.76.55,1.63,8.32,17.65,8.32,17.65l3.02,7.28,1.52,6.41-10.91,3.08-.79-.27c-2.04-.69-3.77-2.07-4.88-3.9Z"/>
          <g>
            <path class="cls-17" d="M32.46,105.31c-.84.56-2.02.19-2.8-.46-.78-.65-1.31-1.55-2.04-2.26-2.18-2.12-5.77-2.29-7.85-4.5-.29-.31-.55-.78-.31-1.13.22-.32.7-.28,1.09-.21,3.29.62,6.59,1.24,9.88,1.86"/>
            <path class="cls-1" d="M30.44,98.61s-.37-.15-1.05-.31c-.68-.16-1.67-.38-2.9-.64-1.28-.26-2.73-.55-4.31-.87-.41-.08-.82-.16-1.25-.24-.4-.05-.91-.29-1.5.06-.29.19-.39.61-.31.89.07.29.23.52.4.72.35.36.71.69,1.13.97,1.66,1.12,3.46,1.56,4.91,2.3.73.36,1.38.77,1.89,1.25.52.48.92,1.04,1.35,1.51.82.99,1.9,1.48,2.63,1.44.76-.02,1.06-.38,1.03-.38-.02-.05-.36.21-1.03.16-.67-.04-1.58-.5-2.33-1.48-.4-.47-.78-1.04-1.33-1.59-.54-.54-1.23-1-1.98-1.38-1.49-.79-3.29-1.26-4.82-2.3-.38-.25-.72-.56-1.02-.87-.28-.31-.38-.68-.19-.79.2-.15.65-.06,1.07.02.43.08.84.15,1.25.23,1.59.28,3.05.53,4.33.75,1.23.21,2.24.36,2.93.46.69.1,1.08.13,1.09.09Z"/>
          </g>
          <path class="cls-1" d="M19.53,95.36c-.06.04-.21-.78-1.16-1.51-.46-.35-1.14-.6-1.91-.61-.78-.02-1.63.18-2.5.44-.88.27-1.74.54-2.57.61-.82.07-1.59-.03-2.17-.31-.6-.28-.88-.8-.94-1.14-.06-.35-.01-.54,0-.54.04,0,.04.19.14.5.1.31.37.72.91.94.53.23,1.25.29,2.02.21.78-.08,1.61-.35,2.5-.62.89-.27,1.78-.47,2.62-.43.84.02,1.58.33,2.07.74.49.41.75.87.88,1.19.13.33.14.52.12.52Z"/>
          <path class="cls-1" d="M19.34,81.76c.05-.01.27.66.62,1.75.4,1.21.87,2.65,1.39,4.24.54,1.58,1.04,3.02,1.45,4.22.38,1.08.61,1.75.56,1.77-.05.02-.36-.62-.8-1.68-.44-1.06-1-2.54-1.56-4.2-.55-1.66-1-3.18-1.29-4.28-.29-1.11-.42-1.81-.37-1.82Z"/>
          <path class="cls-1" d="M18.21,98.01s-.21,0-.58-.03c-.35-.02-.94-.05-1.38.38-.21.21-.29.53-.21.88.07.35.27.71.47,1.11.19.39.4.9.26,1.45-.15.53-.58.95-1.11,1.14-.54.19-1.13.09-1.59-.14-.46-.24-.83-.58-1.07-1.01-.42-.82-.61-1.6-.73-2.27-.11-.67-.12-1.23-.04-1.6.07-.38.2-.56.21-.55.03.01-.04.21-.07.57-.03.36.02.89.16,1.53.15.63.37,1.41.77,2.16.39.68,1.36,1.27,2.23.97.43-.15.77-.5.89-.89.11-.4-.03-.82-.22-1.21-.18-.39-.39-.78-.46-1.2-.09-.41.04-.88.33-1.12.58-.5,1.23-.4,1.58-.34.37.08.57.15.56.17Z"/>
          <path class="cls-1" d="M14.13,102.5s.13.16.12.51c0,.34-.18.88-.72,1.24-.53.36-1.38.43-2.14.04-.75-.38-1.35-1.15-1.65-2.04-.3-.9-.29-1.83-.04-2.61.24-.78.7-1.38,1.15-1.78.45-.41.9-.63,1.21-.75.32-.12.5-.13.51-.11.03.07-.72.24-1.54,1.05-.4.4-.8.97-1,1.69-.21.71-.21,1.57.07,2.39.28.81.81,1.51,1.46,1.85.64.35,1.38.31,1.84.04.47-.28.67-.74.71-1.04.05-.31,0-.49.02-.5Z"/>
          <path class="cls-1" d="M22.22,106.39s.28-.2.85-.27c.55-.07,1.4,0,2.22.51l-.27.18c-.09-.38-.16-.8-.2-1.24-.26-2.44.49-4.33.57-4.29.11.02-.46,1.9-.2,4.25.04.42.11.83.18,1.2l.08.41-.35-.23c-.72-.47-1.49-.58-2.01-.58-.53,0-.85.09-.86.05Z"/>
          <path class="cls-1" d="M16.96,91.42c.1.01-.03.76-.69,1.35-.66.59-1.42.64-1.42.54-.02-.1.6-.3,1.17-.82.58-.51.84-1.11.94-1.07Z"/>
        </g>
        <path class="cls-21" d="M80.83,78.15s-5.55.67-6.16.71c-4.69.29-12.33,3.05-15.92,9.76-2.62,4.89-7.61,24.8-8.94,30.18l-1.93,6.34-11.7-18.57-16.64,9.49s17.28,41.82,28.47,41.81c11.2,0,16.37-11.17,16.37-11.17l-.17-25.15,16.62-43.4Z"/>
        <path class="cls-16" d="M59.85,95.63s-.03.19-.05.56c0,.43-.02.96-.03,1.62-.02,1.4,0,3.43.04,5.94.09,5.02.4,11.94.82,19.58.43,7.64.79,14.55.98,19.56.09,2.45.16,4.45.21,5.93.03.65.05,1.18.07,1.61.02.37.04.56.06.56.02,0,.03-.19.05-.56,0-.43.02-.96.03-1.61.02-1.4,0-3.43-.04-5.94-.09-5.02-.4-11.94-.82-19.58-.43-7.64-.79-14.55-.98-19.56-.09-2.45-.16-4.45-.21-5.93-.03-.65-.05-1.18-.07-1.61-.02-.37-.04-.56-.06-.56Z"/>
      </g>
      <g>
        <path class="cls-21" d="M146.5,98.8c-2.84-12.71-16.89-16.24-16.89-16.24l-4.77,45.87,2.96,7.44,25.13-5.43s-2.87-15.71-6.43-31.65Z"/>
        <path class="cls-21" d="M123.41,124.7l9.39,9.05-3.03-17.31,19.06-6.03s5.06,23.76,5.94,29.38c1.58,10.08-.36,24.41-9.75,25.42-10.16,1.09-17.84-8.93-22.72-15.51-3.75-5.06-9.81-13.9-9.81-13.9l10.93-11.1"/>
        <path class="cls-21" d="M132.8,155.36l-.74-21.55,1.12-49.93-20.02-9.1-2.65-7.83-22.39,9.97-4.49-4.71-2.59,5.03-7.97,1.8-6.51,18.42-5.52,14.5s1.59,50.3,2.97,68.75c.18,2.42-2.97,3.47.52,6.17,0,0,5.24,3.08,16.6,3.37,32.32.84,52.18-4.32,53.23-4.79h0c1.48-1.45,2.22-3.51,1.97-5.57-.1-.76-.26-1.59-.4-2.63l-3.12-21.92"/>
        <path class="cls-16" d="M80.05,191.77s-.02-.09-.04-.28c-.02-.22-.04-.49-.06-.81-.04-.77-.1-1.81-.18-3.13-.12-2.78-.3-6.7-.51-11.52-.36-9.73-.82-23.19-.67-38.07.09-7.44.34-14.54,1.05-20.96.74-6.42,1.85-12.13,2.84-16.9,1.01-4.77,1.93-8.6,2.58-11.24.32-1.28.58-2.29.76-3.04.09-.31.16-.57.21-.79.05-.18.08-.27.09-.26.01,0,0,.1-.03.28-.04.22-.09.48-.16.8-.16.75-.38,1.78-.65,3.07-.57,2.66-1.43,6.51-2.39,11.28-.94,4.77-2,10.48-2.7,16.87-.68,6.39-.91,13.47-1,20.9-.15,14.86.24,28.31.49,38.05.13,4.83.24,8.75.32,11.53.03,1.32.05,2.37.06,3.14,0,.33,0,.59,0,.82,0,.18,0,.28-.02.28Z"/>
        <path class="cls-16" d="M94.78,108.06s.44,0,1.33.04c.96.06,2.25.13,3.87.23,3.45.24,8.28.57,14.1.96l.27.02-.02.27c-.49,6.46-1.07,14.19-1.7,22.54v.15s-.13.09-.13.09c-.66.48-1.37.96-2.11,1.44-1.3.84-2.61,1.62-3.96,2.3-1.36.65-2.75,1.29-4.3,1.38-1.53.09-2.99-.36-4.26-.99-1.27-.65-2.41-1.45-3.45-2.3-.52-.43-1.02-.86-1.49-1.31-.22-.2-.52-.5-.67-.81-.18-.31-.28-.63-.38-.95-.32-1.28-.35-2.53-.35-3.72.05-2.39.31-4.59.59-6.58.58-3.99,1.27-7.18,1.77-9.38.25-1.1.46-1.95.62-2.52.15-.57.25-.87.27-.86.02,0-.03.31-.14.89-.13.64-.29,1.49-.5,2.54-.42,2.21-1.04,5.41-1.56,9.39-.25,1.99-.49,4.18-.51,6.52,0,1.17.05,2.39.36,3.56.18.6.4,1.07.89,1.48.47.44.97.86,1.48,1.28,1.02.83,2.13,1.6,3.34,2.21,1.22.59,2.57,1,3.95.91,1.37-.08,2.72-.69,4.05-1.33,1.32-.66,2.62-1.43,3.9-2.26.72-.47,1.43-.95,2.08-1.42l-.13.24c.67-8.35,1.29-16.07,1.81-22.53l.25.29c-5.74-.5-10.51-.92-13.92-1.22-1.63-.16-2.94-.28-3.91-.38-.41-.05-.76-.08-1.04-.11-.24-.03-.37-.05-.37-.06Z"/>
        <path class="cls-16" d="M113.9,115.41c-.01.18-4.59-.03-10.22-.47-5.63-.44-10.18-.94-10.17-1.12.01-.18,4.59.03,10.22.47,5.63.44,10.18.94,10.17,1.12Z"/>
        <g class="cls-14">
          <path d="M92.54,132.01c1.1,1.81,2.13,4.3,3.63,5.8,1.5,1.5,3.46,2.65,5.57,2.77,1.86.11,3.7-.58,5.28-1.57,2.56-1.6,4.13-4.12,5.27-6.91.16-.2-3.66,2.34-5.73,3.45-2.07,1.1-3.53,1.45-5.87,1.26-3.07-.25-5.82-2.78-8.15-4.8"/>
        </g>
        <g class="cls-14">
          <polygon points="88.51 78.36 89.32 88.86 111.6 75.52 90.11 86.86 88.51 78.36"/>
        </g>
        <path class="cls-18" d="M83.82,91s-5.94,23.92-8.16,53.24c-.94,12.44-1.64,28.92-1.64,28.92l7.22,8.94,8.63-8.56s-1.76-35.78-1.72-47.77c.03-9.65-.36-34.57-.36-34.57l-3.97-.2Z"/>
        <path class="cls-16" d="M126.93,106.57s.1.35.23,1c.13.71.29,1.63.5,2.74.41,2.37.95,5.54,1.55,9.04.62,3.53,1.14,6.74,1.48,9.06.17,1.16.31,2.1.39,2.75.08.65.12,1.01.1,1.02-.02,0-.1-.35-.23-1-.13-.71-.3-1.63-.5-2.74-.41-2.37-.97-5.54-1.58-9.04-.61-3.53-1.11-6.74-1.46-9.06-.16-1.12-.29-2.04-.39-2.76-.08-.65-.12-1.01-.1-1.02Z"/>
        <path class="cls-16" d="M134.18,85.32s-.66.59-1.65,1.61c-.99,1.01-2.23,2.55-3.25,4.45-1.02,1.91-1.61,3.78-1.91,5.17-.3,1.38-.37,2.27-.43,2.26-.02,0-.02-.22,0-.62.01-.4.08-.98.2-1.69.24-1.41.81-3.34,1.85-5.28,1.04-1.94,2.34-3.47,3.38-4.46.52-.49.97-.87,1.29-1.1.32-.24.51-.36.52-.34Z"/>
        <polygon class="cls-18" points="88.32 81.76 86.09 81.27 83.91 85.18 83.82 91 87.79 91.2 90.25 86.59 88.32 81.76"/>
        <path class="cls-16" d="M86.44,92.19c-.05.08-.6-.18-1.24-.58-.63-.4-1.1-.79-1.05-.87.05-.08.6.18,1.24.58.63.4,1.1.79,1.05.87Z"/>
        <path class="cls-16" d="M86.96,90.42c-.09.04-.75-1.28-1.48-2.94-.73-1.66-1.25-3.04-1.17-3.08s.75,1.28,1.48,2.94c.73,1.66,1.25,3.04,1.17,3.08Z"/>
        <g class="cls-14">
          <path d="M114.56,142.82s5.48,5.19,7.78,9.2c1.62,2.84,6.22,6.62,11.41,9.94l.81,5.68c-2.87-.57-7.92-4.31-9.87-6.5-1.95-2.19-4-4.48-5.43-7.04-2.62-4.68-6.22-9.19-7.14-14.47l2.44,3.2Z"/>
        </g>
        <path class="cls-16" d="M133.02,161.39s-.16-.14-.48-.37c-.32-.24-.82-.54-1.43-1-1.21-.93-2.92-2.33-4.89-4.26-3.95-3.87-9.06-9.73-14.31-16.87l.03.26c1.02-2.47,2.09-5.05,3.18-7.7,1.32-3.22,2.61-6.35,3.81-9.27l-.41.1c12.49,10.57,20.56,17.39,22.41,18.96.01,0-.1-.17-.37-.43-.27-.26-.66-.65-1.19-1.13-1.05-.97-2.61-2.35-4.58-4.07-3.93-3.44-9.49-8.23-15.93-13.73l-.27-.23-.14.33c-1.21,2.92-2.5,6.04-3.83,9.27-1.09,2.65-2.15,5.23-3.17,7.7l-.06.14.09.12c5.3,7.15,10.47,12.98,14.51,16.8,2.02,1.91,3.78,3.28,5.02,4.17.62.44,1.15.72,1.48.93.34.2.53.3.53.29Z"/>
        <g>
          <path class="cls-16" d="M57.1,105.79l7.84,29.61c.43,1.64,1.93,2.77,3.63,2.74l40.59-.8c2.31-.05,4.01-2.18,3.53-4.44l-5.98-28.36c-.36-1.7-1.86-2.92-3.6-2.92h-42.8c-2.18,0-3.77,2.06-3.21,4.17Z"/>
          <path class="cls-15" d="M110.53,135.51s-.03-.06-.06-.19c-.04-.15-.08-.34-.14-.57-.12-.53-.29-1.27-.51-2.21-.43-1.95-1.04-4.72-1.8-8.14-.75-3.45-1.64-7.54-2.62-12.08-.49-2.27-1-4.66-1.54-7.13-.1-.58-.5-1.08-1.05-1.28-.28-.11-.56-.11-.89-.1-.32,0-.65,0-.98,0-1.31,0-2.63,0-3.98,0-10.73-.02-20.44-.04-27.5-.05-3.5-.02-6.34-.04-8.33-.06-.96-.01-1.72-.03-2.27-.03-.24,0-.44-.01-.59-.02-.13,0-.2-.01-.2-.02s.07-.01.2-.02c.15,0,.35-.01.59-.02.54,0,1.3-.02,2.27-.03,2-.01,4.83-.03,8.33-.06,7.06-.01,16.77-.03,27.5-.05,1.34,0,2.67,0,3.98,0,.33,0,.65,0,.98,0,.31,0,.69,0,1.02.13.67.24,1.17.88,1.27,1.55.53,2.48,1.03,4.86,1.52,7.14.96,4.55,1.82,8.64,2.55,12.09.71,3.43,1.28,6.21,1.69,8.16.19.94.33,1.69.44,2.22.04.24.08.43.11.58.02.13.03.2.02.2Z"/>
        </g>
        <path class="cls-21" d="M84.83,111.67c.43,1.18-.1,2.46-1.19,2.86-1.09.4-2.33-.23-2.76-1.41-.43-1.18.1-2.46,1.19-2.86,1.09-.4,2.33.23,2.76,1.41Z"/>
        <g>
          <g>
            <path class="cls-17" d="M120.05,124.28l-1.93-1.8s-1.28-4.25-2.08-5.06c-.81-.8-2.97-1.41-2.97-1.41l-4.85-4.45.88,3.97-7.03-.05c-.83,0-1.63.46-1.91,1.23-.05.14-.08.27-.06.38.2,1.31,1.41,1.84,1.41,1.84l1.01.48s-1.47.43-1.66,1.73c-.25,1.79,1.46,2.37,1.46,2.37,0,0-1.73.77-.74,2.85,0,0-1.61,1.91-.68,3.2.93,1.29,6.26,3.45,6.26,3.45l2.96,1.34c.72.21,1.48.25,2.22.12l1.15.16,1.23,1.02s7.06-3.85,5.31-11.38Z"/>
            <path class="cls-1" d="M112.47,121.23c0,.06-.61.08-1.6.01-.98-.06-2.34-.22-3.81-.52-1.48-.3-2.79-.68-3.72-1-.93-.32-1.49-.58-1.47-.63.04-.12,2.35.64,5.27,1.22,2.92.6,5.34.79,5.33.92Z"/>
            <path class="cls-1" d="M114.4,126.77c-.03.11-2.76-.53-6.09-1.43-3.34-.9-6.02-1.72-5.98-1.83.03-.11,2.76.53,6.09,1.43,3.33.9,6.01,1.72,5.98,1.83Z"/>
            <path class="cls-1" d="M113.83,130.91c0,.05-.76-.02-1.95-.25-1.19-.24-2.82-.66-4.56-1.31-1.74-.65-3.25-1.38-4.31-1.98-1.06-.6-1.67-1.03-1.64-1.08.03-.05.7.29,1.78.81,1.08.52,2.6,1.21,4.32,1.85,1.72.64,3.32,1.1,4.48,1.41,1.16.31,1.89.48,1.88.54Z"/>
            <path class="cls-1" d="M115.15,125.55c-.12-.04.11-.83-.06-1.78-.15-.95-.62-1.62-.52-1.7.07-.09.76.54.94,1.63.19,1.08-.26,1.91-.36,1.85Z"/>
            <path class="cls-1" d="M115.22,120.45c-.08-.09.29-.52.34-1.18.08-.65-.19-1.15-.09-1.22.04-.03.18.06.32.28.13.22.24.58.2.98-.04.4-.22.73-.39.92-.18.19-.33.25-.37.21Z"/>
            <path class="cls-1" d="M114.75,130.67c-.09-.08.19-.52.35-1.1.18-.58.18-1.1.3-1.12.11-.03.31.55.1,1.24-.2.69-.68,1.07-.76.99Z"/>
          </g>
          <path class="cls-1" d="M103.88,115.52c0,.16,1.85.17,4.11.34,2.26.16,4.09.39,4.12.24.03-.14-1.78-.62-4.08-.78-2.3-.17-4.16.06-4.15.2Z"/>
        </g>
        <path class="cls-16" d="M81.45,78.21s.08.16.2.49c.13.36.29.83.5,1.43.44,1.28,1.04,3.07,1.79,5.28l-.24-.02c1.17-2.21,2.6-4.9,4.18-7.88l.22-.41.1.45c.61,2.69,1.28,5.64,1.98,8.72.04.16.07.32.11.47l-.26-.12c6.12-3.2,11.64-6.09,15.67-8.21,1.98-1.02,3.59-1.85,4.75-2.44.54-.27.97-.48,1.3-.65.3-.14.46-.21.46-.2,0,.01-.14.1-.43.27-.32.18-.74.41-1.27.71-1.14.62-2.74,1.48-4.7,2.54-4.02,2.14-9.52,5.06-15.62,8.3l-.21.11-.05-.23c-.03-.15-.07-.31-.11-.47-.69-3.08-1.35-6.03-1.95-8.72l.32.04c-1.61,2.97-3.06,5.64-4.25,7.84l-.15.27-.09-.29c-.7-2.22-1.27-4.02-1.68-5.32-.18-.6-.33-1.08-.44-1.45-.1-.33-.14-.51-.13-.51Z"/>
      </g>
    </g>
  </g>
</svg>