<?xml version="1.0" encoding="UTF-8"?>
<svg id="Camada_1" data-name="Camada 1" xmlns="http://www.w3.org/2000/svg" xmlns:xlink="http://www.w3.org/1999/xlink" viewBox="0 0 167.39 189.62">
  <defs>
    <style>
      .cls-1 {
        fill: #bf654e;
      }

      .cls-2 {
        opacity: .3;
      }

      .cls-3 {
        fill: #ff4f5b;
      }

      .cls-4 {
        fill: #375a64;
      }

      .cls-5 {
        fill: none;
      }

      .cls-6 {
        fill: #1a2e35;
      }

      .cls-7 {
        clip-path: url(#clippath-1);
      }

      .cls-8 {
        fill: #c78976;
      }

      .cls-9 {
        fill: #004788;
      }

      .cls-10 {
        clip-path: url(#clippath);
      }

      .cls-11 {
        fill: #e1e1e1;
      }
    </style>
    <clipPath id="clippath">
      <path class="cls-5" d="M31.85-39.82h180.27v-189.62H0V-71.67c0,17.59,14.26,31.85,31.85,31.85Z"/>
    </clipPath>
    <clipPath id="clippath-1">
      <path class="cls-5" d="M31.85,189.62h180.27V0H0v157.77c0,17.59,14.26,31.85,31.85,31.85Z"/>
    </clipPath>
  </defs>
  <g class="cls-10">
    <g>
      <path class="cls-8" d="M36.86,56.78c.65,8.42,13.66,94.37,13.66,94.37l-4.34,33.13,5.09,75.98,25.57-2.61,9.54-106.13,8.86-101.95-58.4,7.2Z"/>
      <path class="cls-8" d="M20.27,55.06c.65,8.42,9.77,33.19,9.77,33.19l4,106.4.65,63.9,25.57-2.61,5.79-86.88,3.75-119.47-49.54,5.49Z"/>
      <path class="cls-1" d="M70.04,95.14s.01.14,0,.41c-.01.3-.03.7-.05,1.21-.06,1.1-.15,2.65-.26,4.63-.26,4.06-.62,9.86-1.07,17.02-.89,14.37-2.42,34.21-3.47,56.15-1.21,21.93-2.31,41.77-3.11,56.18-.43,7.16-.77,12.96-1.01,17.02-.13,1.98-.23,3.53-.31,4.63-.04.5-.07.9-.1,1.2-.02.27-.04.41-.05.41-.01,0-.01-.14,0-.41,0-.3.02-.7.03-1.21.05-1.1.11-2.65.19-4.63.19-4.06.47-9.87.82-17.03.75-14.41,1.79-34.26,2.93-56.2,1.04-21.95,2.65-41.78,3.65-56.14.53-7.15.97-12.95,1.27-17.01.16-1.98.29-3.53.38-4.62.05-.5.08-.9.11-1.2.03-.27.05-.41.06-.41Z"/>
      <path class="cls-3" d="M11.49,26.54l15.83,113.9s32.52,9.15,62.46-4.07l12.33-110.12L69.36,3.61,11.49,26.54Z"/>
      <path class="cls-9" d="M32.52-140.49l-5.56,9.19s-15.47,6.53-18.85,14.5c-3.38,7.98,24.41,86.05,24.41,86.05,0,0-21.27,25.62-21.03,57.29,0,0,42.3,13.54,82.19,4.59l-6.53-89.92s-.97-20.79-7.25-28.76c-6.28-7.98-47.38-52.94-47.38-52.94Z"/>
      <path class="cls-9" d="M67.57-137.19l-.17,6.25s22.51,36.26,23.98,43.69c3.6,18.21-2.63,48.31-2.63,48.31l2.63,70.22,12.88-4.46-7.88-69.99,2.92-15.97s5.95-26.21,2.91-32.3c-2.26-4.52-8.57-22.58-13.99-32.14-1.95-3.45-5.48-5.7-9.43-6.03l-5-.42-6.22-7.16Z"/>
      <path class="cls-6" d="M91.38,31.28c-.17,0-1.11-19.08-2.11-42.63-1-23.56-1.66-42.65-1.5-42.66.17,0,1.11,19.08,2.11,42.63,1,23.55,1.66,42.65,1.49,42.66Z"/>
      <path class="cls-6" d="M104.26,26.82s-.3.15-.89.39c-.64.25-1.51.58-2.59.99-1.12.43-2.51.95-4.15,1.43-1.64.49-3.48,1.15-5.58,1.63-1.05.26-2.14.54-3.28.83-1.14.3-2.35.49-3.59.75-2.48.55-5.17.91-7.99,1.31-5.66.68-11.93,1.08-18.51.95-6.58-.16-12.83-.83-18.47-1.68-2.81-.47-5.48-.91-7.96-1.47-2.49-.49-4.77-1.08-6.86-1.6-2.1-.49-3.96-1.09-5.6-1.55-1.65-.46-3.05-.92-4.19-1.31-1.1-.37-1.97-.67-2.63-.89-.6-.21-.91-.33-.9-.35,0-.02.33.06.94.23.66.19,1.55.46,2.66.78,1.15.35,2.56.78,4.21,1.21,1.65.43,3.51,1,5.61,1.46,2.09.5,4.38,1.06,6.86,1.53,2.47.54,5.14.96,7.94,1.41,5.62.81,11.84,1.46,18.39,1.62,6.55.12,12.79-.25,18.43-.9,2.81-.39,5.49-.73,7.96-1.25,1.24-.25,2.45-.43,3.58-.71,1.14-.27,2.23-.54,3.28-.79,2.1-.45,3.94-1.08,5.59-1.54,1.65-.45,3.04-.93,4.17-1.33,1.1-.37,1.97-.66,2.63-.88.6-.2.92-.29.93-.27Z"/>
      <g class="cls-2">
        <path d="M11.71,26.45c12.89,9.11,27.37,14.84,43.1,16.1,15.73,1.25,29.86-4.31,44.02-11.26v-2.67s-21.64,7.45-46.18,5.57c-24.82-1.9-40.94-7.74-40.94-7.74Z"/>
      </g>
    </g>
  </g>
  <g class="cls-7">
    <g>
      <path class="cls-9" d="M88.21,105.86l10.91,21.13,15.87,30.74,14.95-6.89,1.77-4.2c6.11,13.97,23.97,22.32,10.63,29.7l-45.97,21.51-18.19-32.54,10.02-59.45Z"/>
      <path class="cls-6" d="M23.73,31.62c-1.74,2.6-2.13,6.06-1.01,8.98.63,1.64,1.7,3.46.85,5-.86,1.56-3.02,1.61-4.71,2.2-2.94,1.01-4.84,4.38-4.18,7.42.23,1.09.76,2.18.53,3.27-.24,1.14-1.21,1.94-1.95,2.82-1.85,2.2-2.43,5.41-1.45,8.12.98,2.71,3.47,4.82,6.3,5.33,1.29.23,2.69.18,3.8.87,1.28.79,1.84,2.33,2.74,3.53,1.73,2.3,4.99,3.32,7.73,2.42,2.74-.9,4.74-3.67,4.76-6.55"/>
      <g>
        <path class="cls-6" d="M45.36,22.18c-3.05-1.94-3.79-6.43-2.13-9.64,1.65-3.21,5.16-5.16,8.73-5.74,5.16-.83,10.68,1,14.32,4.75,1.97,2.03,3.56,4.67,6.23,5.6,2.35.82,4.94.08,7.4.4,3.3.43,6.13,2.78,7.83,5.64,1.69,2.87,2.39,6.21,2.78,9.52.36,3.03.6,6.37,2.7,8.58,2.05,2.16,5.3,2.62,7.85,4.15,4.8,2.89,6.36,10.05,3.19,14.68-1.01,1.47-2.46,2.83-2.58,4.61-.11,1.63.95,3.08,1.44,4.63,1.27,4.01-2.01,8.76-6.2,9.01-2.12.12-4.39-.7-6.29.24-1.89.94-2.59,3.21-3.79,4.94-2.37,3.4-7.34,4.68-11.06,2.86-1.56-.76-3.03-2.02-4.76-1.91-1.73.12-3.09,1.59-4.79,1.92-2.23.43-4.34-1.21-5.66-3.05-1.32-1.84-2.25-4.01-3.94-5.51-2.22-1.97-5.33-2.46-8.14-3.43-6.19-2.13-11.37-7.05-13.82-13.12-2.45-6.08-2.13-13.21.85-19.04"/>
        <g>
          <g>
            <path class="cls-8" d="M38.9,27.03c-2.62.28-4.6,2.53-4.54,5.17h0l3.03,68.67c.13,8.11,11.98,12.67,20.67,12.47h0c8.77-.2,9.05-4.5,9.16-12.22.18-12.89.17-17.73.17-17.66,0,0,11.08-1.86,13.34-16.33,1.13-7.19.74-18.98.11-28.62-.57-8.67-6.34-19.3-14.98-18.37l-26.97,6.88Z"/>
            <g>
              <path class="cls-6" d="M76.52,46.78c.04.98-.76,1.82-1.78,1.87-1.02.06-1.88-.69-1.91-1.67-.04-.98.76-1.82,1.78-1.88,1.02-.06,1.88.69,1.92,1.67Z"/>
              <path class="cls-6" d="M78.3,44.65c-.23.24-1.64-.79-3.63-.78-1.99-.02-3.46,1.01-3.67.77-.11-.11.13-.54.76-1.01.63-.46,1.7-.92,2.94-.91,1.24,0,2.29.46,2.89.93.61.47.82.91.71,1.01Z"/>
            </g>
            <g>
              <path class="cls-6" d="M56.88,46.78c.04.98-.76,1.82-1.78,1.87-1.02.06-1.88-.69-1.91-1.67-.04-.98.76-1.82,1.78-1.88,1.02-.06,1.88.69,1.92,1.67Z"/>
              <path class="cls-6" d="M58.69,45.07c-.23.24-1.64-.79-3.63-.78-1.99-.02-3.46,1.01-3.67.77-.11-.11.12-.54.76-1.01.63-.46,1.7-.92,2.94-.91,1.24,0,2.29.46,2.89.93.61.47.82.91.71,1.01Z"/>
            </g>
            <path class="cls-6" d="M65.96,59.85c0-.11,1.23-.33,3.24-.59.51-.05.99-.16,1.08-.5.12-.37-.1-.92-.34-1.51-.48-1.23-.99-2.52-1.52-3.88-2.1-5.52-3.63-10.06-3.41-10.14.22-.08,2.11,4.32,4.21,9.84.51,1.36.99,2.66,1.45,3.9.19.58.53,1.23.27,2-.14.38-.51.66-.84.75-.33.1-.61.11-.87.12-2.02.11-3.28.13-3.28.01Z"/>
            <path class="cls-1" d="M67.4,83.46s-9.72.65-19.37-5.12c0,0,4.91,10.19,19.37,8.81v-3.69Z"/>
            <path class="cls-1" d="M65.13,64.66c-.72-.95-1.98-1.47-3.23-1.33-.87.1-1.74.51-2.26,1.22-.52.71-.63,1.71-.15,2.38.54.76,1.67.93,2.62.66.95-.27,1.77-.9,2.55-1.53.21-.17.43-.35.57-.59.13-.24.16-.55,0-.74"/>
            <path class="cls-6" d="M60.1,61.24c.32-.02.33,2.15,2.19,3.68,1.85,1.54,4.16,1.29,4.18,1.59.03.14-.51.42-1.49.45-.96.03-2.35-.27-3.49-1.21-1.13-.94-1.62-2.2-1.7-3.09-.08-.91.16-1.44.3-1.43Z"/>
          </g>
          <path class="cls-6" d="M59.58,41.57c-.2.54-2.19.29-4.53.58-2.35.24-4.23.93-4.54.44-.14-.23.19-.74.95-1.27.76-.53,1.96-1.03,3.37-1.19,1.4-.16,2.69.06,3.55.41.86.34,1.29.77,1.21,1.03Z"/>
          <path class="cls-6" d="M77.56,41.01c-.35.45-1.73-.01-3.38-.03-1.65-.08-3.05.31-3.38-.16-.14-.23.08-.68.69-1.11.6-.43,1.61-.78,2.74-.75,1.14.03,2.12.44,2.7.9.59.46.78.93.62,1.15Z"/>
        </g>
        <path class="cls-6" d="M46.83,19.06c-.01,2.89,1.32,5.77,3.54,7.62s5.28,2.67,8.13,2.14c2.21-.4,4.63-1.52,6.54-.34,2.01,1.24,2.09,4.27,3.88,5.82,2.55,2.21,6.6.14,9.84,1.1,2.5.74,4.06,3.13,5.72,5.14s4.15,3.92,6.65,3.18c-.16-2.25-.32-4.52-.99-6.67-.67-2.15-1.9-4.2-3.79-5.43-1.03-.67-2.24-1.08-3.2-1.86-2.07-1.67-2.55-4.59-3.84-6.93-1.65-3.01-4.84-5.13-8.26-5.48-2.84-.29-5.77.56-8.55-.14-2.05-.52-3.84-1.85-5.92-2.24-4.04-.77-7.8,2.13-10.73,5.02"/>
      </g>
      <polygon class="cls-6" points="35.21 83.1 67.71 87.27 67.4 98.5 100.95 140.52 91.38 197.85 64.45 187.99 32.22 132.92 33.04 90.43 35.21 83.1"/>
      <path class="cls-9" d="M32.52,88.95l-5.56,9.19s-15.47,6.53-18.85,14.5c-3.38,7.98,24.41,86.05,24.41,86.05,0,0-21.27,25.62-21.03,57.29,0,0,42.3,13.54,82.19,4.59l-6.53-89.92s-.97-20.79-7.25-28.76c-6.28-7.98-47.38-52.94-47.38-52.94Z"/>
      <path class="cls-9" d="M67.57,92.25l-.17,6.25s22.51,36.26,23.98,43.69c3.6,18.21-2.63,48.31-2.63,48.31l2.63,70.22,12.88-4.46-7.88-69.99,2.92-15.97s5.95-26.21,2.91-32.3c-2.26-4.52-8.57-22.58-13.99-32.14-1.95-3.45-5.48-5.7-9.43-6.03l-5-.42-6.22-7.16Z"/>
      <path class="cls-6" d="M86.9,165.31s-.12-.32-.29-.93c-.16-.62-.41-1.52-.78-2.68-.74-2.3-1.91-5.62-4-9.41-2.04-3.8-5.02-8.06-9.08-12.08-4.02-4.07-9.41-7.42-14.58-11.57l-.08-.06-.03-.09v-.04c-.88-2.98-1.72-5.89-2.54-8.7l.34.21c-2.21.39-4.34.77-6.4,1.14l-.15.03-.11-.11c-3.26-3.42-6.3-6.6-8.92-9.53-2.6-2.93-4.89-5.52-6.81-7.68-1.88-2.11-3.39-3.8-4.47-5.01-.49-.55-.89-.99-1.19-1.33-.27-.31-.4-.47-.39-.48.01-.01.17.13.46.41.32.32.74.75,1.26,1.27,1.09,1.12,2.66,2.78,4.6,4.9,1.95,2.14,4.27,4.7,6.91,7.59,2.64,2.9,5.7,6.05,8.98,9.46l-.26-.09c2.06-.37,4.19-.76,6.4-1.16l.27-.05.08.26c.82,2.8,1.67,5.72,2.53,8.7v.04s-.09-.15-.09-.15c5.14,4.13,10.54,7.5,14.6,11.65,4.08,4.09,7.05,8.42,9.06,12.28,2.06,3.85,3.17,7.21,3.85,9.54.33,1.17.55,2.09.67,2.72.13.63.19.96.17.96Z"/>
      <path class="cls-6" d="M92.14,165.31s.01-.27.09-.79c.1-.57.22-1.31.38-2.23.35-2.01.83-4.79,1.42-8.19.57-3.46,1.24-7.59,1.72-12.2.12-1.15.22-2.33.28-3.54.06-1.22.1-2.42-.08-3.66-.31-2.49-.82-5.05-1.36-7.67-.66-3.14-1.36-6.19-2.05-9.08l.21.22c-2.39-.7-4.69-1.37-6.86-2.01l-.26-.08.07-.26c.38-1.39.74-2.72,1.08-4l.08.26c-4.19-3.54-7.31-6.87-9.58-9.11-1.08-1.1-1.94-1.98-2.59-2.63-.59-.61-.9-.95-.88-.97.02-.02.36.28.99.85.67.63,1.57,1.47,2.68,2.53,2.32,2.17,5.49,5.44,9.71,8.93l.12.1-.04.16c-.34,1.28-.69,2.62-1.05,4.01l-.19-.34c2.18.62,4.48,1.28,6.87,1.97l.17.05.04.17c.71,2.9,1.41,5.94,2.08,9.1.54,2.63,1.05,5.2,1.36,7.73.19,1.27.14,2.55.07,3.76-.07,1.22-.17,2.41-.3,3.57-.51,4.63-1.23,8.76-1.85,12.21-.63,3.46-1.21,6.24-1.62,8.16-.2.91-.37,1.64-.5,2.21-.12.5-.19.77-.22.76Z"/>
      <path class="cls-6" d="M91.38,260.72c-.17,0-1.11-19.08-2.11-42.63-1-23.56-1.66-42.65-1.5-42.66.17,0,1.11,19.08,2.11,42.63,1,23.55,1.66,42.65,1.49,42.66Z"/>
      <g>
        <path class="cls-9" d="M8.1,112.63s-8.5,14.56,2.42,34.02c10.92,19.46,42.54,63.62,42.54,63.62,0,0,6.32,2.68,12.65,3.07,5.32.32,31.03-13.87,39.31-18.5l1.66-5.24-5.01-9.13-5.3-9.66-29.48,8.59-31.47-62.45s-9.44-13.43-27.33-4.32Z"/>
        <path class="cls-6" d="M20.27,162.49s.13.15.36.47c.24.34.57.81,1,1.41.89,1.27,2.17,3.11,3.81,5.47,3.3,4.79,8.06,11.69,13.94,20.21,2.94,4.27,6.15,8.95,9.6,13.98.43.63.87,1.26,1.31,1.9.48.6.93,1.23,1.44,1.81,1.05,1.14,2.19,2.25,3.54,3.11,2.66,1.77,5.98,2.66,9.36,2.43.83-.06,1.71-.13,2.54-.3.32-.09.75-.3,1.14-.46.4-.17.8-.35,1.19-.53,1.59-.73,3.2-1.5,4.81-2.27,3.23-1.58,6.52-3.19,9.87-4.83,6.68-3.33,13.6-6.78,20.7-10.32l-.15.18c.08-.26.17-.54.26-.82.47-1.48.94-2.96,1.4-4.42l.02.24c-3.54-6.45-6.99-12.74-10.3-18.79l.35.14c-10.55,3.06-20.47,5.94-29.48,8.55l-.21.06-.1-.2c-7.89-15.71-14.48-28.82-19.11-38.03-2.28-4.58-4.08-8.2-5.32-10.69-.6-1.22-1.06-2.16-1.38-2.83-.15-.31-.26-.55-.35-.73-.08-.16-.11-.25-.1-.25,0,0,.05.08.14.23.1.18.22.41.38.71.34.66.83,1.59,1.46,2.79,1.27,2.48,3.12,6.07,5.45,10.62,4.68,9.19,11.33,22.27,19.31,37.93l-.31-.14c9.01-2.64,18.92-5.53,29.47-8.62l.23-.07.12.21c3.32,6.05,6.78,12.34,10.32,18.79l.06.12-.04.13c-.46,1.47-.93,2.94-1.4,4.42-.09.28-.18.56-.26.82l-.04.12-.12.06c-7.09,3.53-14.02,6.98-20.71,10.31-3.36,1.64-6.66,3.24-9.89,4.82-1.62.78-3.22,1.54-4.83,2.27-.4.19-.8.37-1.21.54-.42.17-.77.36-1.29.5-.86.17-1.72.23-2.59.3-3.48.23-6.94-.7-9.69-2.54-1.39-.89-2.57-2.04-3.64-3.22-.52-.6-.98-1.25-1.47-1.86-.44-.64-.87-1.28-1.3-1.91-3.43-5.04-6.63-9.73-9.54-14.02-5.81-8.56-10.51-15.5-13.78-20.32-1.6-2.39-2.85-4.25-3.72-5.54-.41-.62-.73-1.1-.95-1.45-.21-.33-.31-.51-.31-.51Z"/>
        <path class="cls-6" d="M62.26,193.13c-.16-.08,1.19-3.03,2.46-6.82,1.29-3.78,2.01-6.95,2.19-6.91.16.02-.3,3.28-1.6,7.11-1.29,3.83-2.9,6.7-3.04,6.62Z"/>
      </g>
      <path class="cls-6" d="M39.23,50.39c-.43-.12-2.16,2.43.61,3.06,4.86,1.1,5.5-8.39,4.41-11.1,1.76-1.56,3.53-3.14,4.87-5.12,1.34-1.98,2.52-7.39,2.24-9.82,1.75.1,9.21-2.36,8.41-2.59-1.81-.52-5.52-1.69-6.49-3.26-2.11-3.41-5.83-5.75-9.64-5.54-3.8.21-7.45,3.21-8.23,7.23-4.6.03-9.09,2.93-11.3,7.27-2.21,4.35-2.05,9.98.41,14.18.64,1.1,1.46,2.2,1.48,3.49.02,1.61-1.17,2.88-2.01,4.21-2.29,3.63-2.12,8.61-.35,12.56s3.02,5.34,5.54,6.13c4.93,1.55-.79,11.71,7.42,11.71"/>
      <g>
        <path class="cls-8" d="M39.42,54.36c-.15-3.08-3.5-5.13-6.17-3.59-1.46.85-2.58,2.55-2.45,5.81.36,8.71,9.03,6.55,9.03,6.3,0-.16-.23-4.93-.41-8.53Z"/>
        <path class="cls-1" d="M37.04,59.7s-.15.11-.4.24c-.25.12-.67.22-1.13.07-.93-.3-1.77-1.73-1.88-3.3-.05-.79.08-1.55.34-2.19.24-.65.63-1.11,1.09-1.21.46-.13.8.14.91.38.13.24.08.41.13.43.03.02.18-.15.1-.51-.04-.17-.15-.37-.37-.53-.22-.16-.53-.24-.85-.19-.67.07-1.25.72-1.53,1.42-.32.7-.49,1.56-.43,2.45.13,1.75,1.09,3.36,2.37,3.67.62.13,1.12-.07,1.38-.29.26-.23.3-.42.27-.44Z"/>
      </g>
      <path class="cls-4" d="M103.72,59.97s.2-.27.49-.82c.29-.55.68-1.41.78-2.59.11-1.16-.06-2.67-.92-4.1-.87-1.43-2.54-2.51-4.52-3.23-1.96-.79-4.35-1.28-6.45-2.85-2.13-1.58-3.31-4.31-3.76-7.12-.47-2.85-.23-5.86-.46-8.9-.11-1.52-.37-3.05-.92-4.51-.54-1.45-1.38-2.84-2.59-3.84-1.21-1.01-2.74-1.55-4.27-1.74-1.54-.2-3.1-.09-4.6.14-1.5.24-3,.6-4.54.63-1.51.06-3.13-.41-4.2-1.49-1.07-1.05-1.67-2.35-2.37-3.47-.67-1.15-1.51-2.1-2.54-2.77-2.04-1.38-4.48-1.7-6.54-1.41-2.08.31-3.8,1.31-5.05,2.42-1.26,1.12-2.09,2.34-2.66,3.37-1.12,2.11-1.26,3.47-1.34,3.44-.01,0,0-.08.02-.25.03-.16.06-.4.14-.71.14-.62.42-1.52.96-2.6.55-1.07,1.37-2.34,2.64-3.52,1.27-1.16,3.03-2.24,5.21-2.59,2.15-.33,4.7-.03,6.89,1.42,1.1.7,2.03,1.75,2.72,2.92.72,1.15,1.32,2.41,2.3,3.35.96.96,2.36,1.36,3.8,1.31,1.45-.03,2.91-.38,4.45-.63,1.54-.25,3.15-.36,4.78-.15,1.62.2,3.26.78,4.58,1.88,1.32,1.09,2.2,2.58,2.77,4.1.57,1.53.84,3.13.95,4.68.22,3.11-.03,6.09.42,8.86.42,2.74,1.54,5.32,3.51,6.81,1.96,1.5,4.32,2.03,6.3,2.85,2.01.76,3.76,1.92,4.66,3.46.89,1.52,1.02,3.1.87,4.3-.14,1.22-.58,2.09-.91,2.63-.34.54-.6.76-.6.76Z"/>
      <path class="cls-4" d="M81.04,37.79c.06,0,0,.71.12,1.96.13,1.24.48,3.07,1.54,5.05.52.99,1.21,2.01,2.12,2.96.89.97,2.03,1.76,3.3,2.59.62.43,1.27.89,1.83,1.5.57.6,1.01,1.37,1.22,2.21.43,1.69.11,3.43.01,5.13-.13,1.69.05,3.4,1.09,4.57,1.01,1.19,2.46,1.86,3.79,2.52,1.35.65,2.67,1.32,3.68,2.28.49.49.91,1.04,1.18,1.63.25.6.43,1.2.46,1.79.2,2.39-.92,4.16-1.83,5.03-.49.43-.92.7-1.23.83-.31.13-.48.19-.49.17-.04-.07.67-.28,1.55-1.17.83-.88,1.81-2.6,1.57-4.82-.11-1.09-.61-2.23-1.55-3.1-.95-.87-2.22-1.51-3.57-2.14-1.34-.65-2.86-1.32-4.01-2.64-.56-.66-.96-1.49-1.13-2.36-.18-.87-.17-1.76-.11-2.64.11-1.74.4-3.43.02-4.94-.35-1.54-1.57-2.57-2.78-3.4-1.23-.82-2.45-1.69-3.35-2.71-.93-1-1.62-2.07-2.14-3.11-1.04-2.07-1.33-3.96-1.39-5.23-.03-.64-.01-1.14.03-1.47.04-.34.06-.51.09-.51Z"/>
      <path class="cls-4" d="M19.17,74.26s-.11-.02-.32-.1c-.21-.07-.5-.22-.87-.44-.72-.44-1.74-1.25-2.54-2.65-.79-1.36-1.37-3.44-.7-5.64.63-2.15,2.45-4.38,5.21-5.17l-.14.41c-.97-1.23-1.87-2.66-2.31-4.36-.46-1.68-.27-3.7.86-5.26.54-.78,1.34-1.44,2.3-1.77.97-.32,1.98-.25,2.94-.15.95.1,1.91.26,2.81.12.9-.13,1.69-.67,2.11-1.49.64-1.2.63-2.66.27-3.98-.34-1.34-.92-2.63-1.23-4-.63-2.75-.16-5.57.99-7.83,1.14-2.29,3.04-3.97,5.02-4.95,1.99-.99,4.07-1.33,5.88-1.2l-.22.18c.21-1.68,1.13-2.99,2.11-3.84.98-.86,2.04-1.3,2.92-1.5.88-.2,1.59-.15,2.05-.09.46.09.69.17.69.18,0,.09-.98-.3-2.69.13-.83.23-1.84.68-2.76,1.52-.91.83-1.74,2.08-1.91,3.64l-.02.19h-.2c-1.75-.1-3.74.25-5.63,1.22-1.88.97-3.67,2.57-4.74,4.76-1.08,2.16-1.51,4.85-.91,7.44.3,1.3.87,2.58,1.24,3.99.37,1.39.43,3.03-.33,4.43-.49.97-1.51,1.66-2.55,1.8-1.05.16-2.03-.02-2.97-.12-.94-.11-1.86-.16-2.68.11-.81.28-1.52.84-2.01,1.54-1.03,1.41-1.22,3.21-.8,4.78.4,1.59,1.25,2.98,2.17,4.18l.24.31-.37.1c-2.55.7-4.32,2.77-4.94,4.79-.67,2.06-.17,4.03.56,5.37.73,1.37,1.69,2.19,2.37,2.67.69.47,1.11.63,1.1.67Z"/>
      <path class="cls-4" d="M47.78,22.47c.06.09-.88.25-1.74,1.45-.86,1.19-1.19,3.46-.64,6.02l.05.22-.21.05c-2.15.54-4.53,2.25-5.61,4.94-.26.66-.43,1.4-.45,2.12,0,.74.13,1.51.27,2.3.14.79.3,1.61.33,2.48.06.85-.17,1.84-.69,2.57-1.08,1.65-2.82,2.46-4.32,3.25-1.54.76-2.96,1.54-4.04,2.65-2.21,2.17-3.19,4.98-3.25,7.3-.08,2.35.58,4.21,1.15,5.38.58,1.19,1.06,1.76,1.01,1.79-.02.01-.14-.12-.37-.39-.22-.28-.53-.7-.85-1.29-.65-1.17-1.4-3.06-1.37-5.5,0-2.42.99-5.38,3.29-7.69,1.13-1.18,2.65-2.02,4.17-2.78,1.5-.79,3.14-1.59,4.08-3.04.96-1.32.53-3.05.28-4.61-.14-.79-.28-1.6-.27-2.42.03-.83.23-1.6.51-2.32,1.2-2.89,3.74-4.65,6.03-5.17l-.17.27c-.52-2.69-.11-5.04.88-6.28.48-.61,1-.95,1.36-1.11.38-.15.57-.22.58-.2Z"/>
      <path class="cls-6" d="M101.26,131.14s.28.51.67,1.49c.19.49.45,1.08.68,1.79.23.73.47,1.54.74,2.42.23.91.44,1.92.67,3,.12,1.1.38,2.27.4,3.52.19,2.49.02,5.25-.53,8.08-1.11,5.66-3.18,10.45-4.47,13.95-.63,1.66-1.16,3.05-1.57,4.14-.37.98-.59,1.51-.63,1.5-.04-.01.11-.57.41-1.58.29-1.01.78-2.44,1.39-4.21,1.19-3.54,3.18-8.35,4.27-13.91.54-2.78.73-5.49.57-7.93,0-1.23-.24-2.38-.34-3.46-.21-1.07-.39-2.07-.59-2.98-.24-.88-.45-1.69-.65-2.43-.2-.71-.43-1.31-.58-1.81-.32-.99-.48-1.55-.44-1.57Z"/>
      <g class="cls-2">
        <path d="M30.74,177.86c1.48,5.62,5.35,12.78,8.07,19.09,2.72,6.31,6.3,12.19,11.04,17.16,4.75,4.97,11.61,8.38,18.41,7.37,4.85-.72,9.09-3.54,13.14-6.29,3.97-2.69,7.94-5.38,11.92-8.07,1.42-.96,2.87-1.95,3.85-3.36s1.41-3.33.62-4.85c-5.88,2.86-11.76,5.72-17.63,8.58-4.14,2.02-8.35,4.05-12.88,4.89-4.53.84-9.51.33-13.23-2.38-2.33-1.7-4.01-4.12-5.65-6.5-5.88-8.55-11.77-17.1-17.65-25.65"/>
      </g>
      <path class="cls-6" d="M36.44,121.41c-.09.06-.8-1.14-2.22-2.86-1.41-1.72-3.61-3.9-6.45-5.75-2.85-1.84-5.73-2.96-7.87-3.55-2.14-.6-3.52-.76-3.51-.87,0-.04.35-.03.98.02.63.04,1.54.18,2.64.43,2.2.49,5.19,1.57,8.1,3.46,2.91,1.89,5.11,4.18,6.45,6,.68.91,1.17,1.68,1.47,2.24.3.55.45.87.41.89Z"/>
      <g>
        <path class="cls-8" d="M137.28,172.46s11.06-3.33,18.23-27.48l-13.99,16.61-4.25,10.86Z"/>
        <path class="cls-11" d="M106.31,189.94s23.58-62,24.18-62.1c.6-.1,29.01-18.99,29.01-18.99l3.37.77-28.4,20.76-25.14,61.1-3.03-1.53Z"/>
        <path class="cls-6" d="M108.52,193.31l25.96-62.93,28.4-20.76c.42,0-25.95,63.71-25.95,63.71l-28.4,19.98Z"/>
        <g>
          <path class="cls-8" d="M106.01,166.17s3.78-8.61,5.77-9.84c2.22-1.37,6.93-4.98,8.45-8.27,1.02-2.2,2.71-1.47,2.71-1.47l-3.1,8.66,17.19-10.26s.96,2.53-.94,5.14c-1.91,2.61-1.27,2.37-1.27,2.37,0,0,2.07,1.24,1.03,3.09-1.04,1.84-2.79,4.1-2.79,4.1,0,0,1.9,2.32,1.13,4.5,0,0,.72,1.9.27,4.53-.45,2.63-5.21,7.64-5.21,7.64l-23.75,11.31-8.93-16.6,9.43-4.9Z"/>
          <path class="cls-1" d="M125.62,151.8c.09.14-2.13,1.67-4.96,3.42-2.83,1.75-5.19,3.05-5.28,2.9-.09-.14,2.13-1.67,4.96-3.42,2.83-1.75,5.19-3.05,5.28-2.9Z"/>
          <path class="cls-1" d="M135.13,151.51c.11.12-1.87,2.26-4.43,4.79-2.56,2.52-4.74,4.47-4.86,4.36-.12-.12,1.87-2.26,4.44-4.79,2.57-2.53,4.74-4.48,4.86-4.36Z"/>
          <path class="cls-1" d="M133.86,158.83c.13.11-.8,1.41-2.08,2.91-1.28,1.5-2.41,2.62-2.54,2.52-.13-.11.8-1.41,2.08-2.91,1.28-1.5,2.41-2.62,2.54-2.52Z"/>
          <path class="cls-1" d="M134.3,163.77c.13.11-.4.91-1.07,1.87-.67.96-1.24,1.72-1.39,1.64-.14-.08.21-1,.9-1.99.69-.99,1.44-1.64,1.56-1.53Z"/>
        </g>
        <g>
          <path class="cls-8" d="M141.17,163.11s8.83-6.9,10.04-10c.24-.61,5.65-9.25,5.67-12.64v-6.26l-2.19-9.26c-3.02.36-3.56,2.48-3.37,5.17.08,1.17.99,5.41.99,5.41l-.94,4.94s-.3-4.55-1.82-7.14c-.68-1.16-2.24-.44-2.87.16-1.22,1.17-.55,2.6-.14,6.21.8,6.98.49,8.1.49,8.1,0,0-.08-4.36-1.92-7.54-.72-1.25-1.53-1.95-2.39-1.5-.92.48-1.85,2.13-1.06,4.73,1.49,4.92,1.84,8.02,1.71,9.43,0,0-1.02-1.19-2.46-4.15-.57-1.17-2.03-1.11-2.47,0-.65,1.68-.36,2.27.95,7.06.69,2.52,1.77,7.29,1.77,7.29Z"/>
          <path class="cls-1" d="M150.66,154.1c-.07-.05.37-.73.98-1.86.3-.57.64-1.25.89-2.04.11-.4.19-.79.14-1.22-.04-.45-.12-.93-.2-1.41-.68-3.9-1.28-7.07-1.1-7.1.15-.03,1.03,3.07,1.71,7,.08.5.15.97.19,1.46.04.51-.07,1.02-.2,1.44-.3.85-.69,1.54-1.05,2.09-.72,1.1-1.29,1.69-1.36,1.64Z"/>
          <path class="cls-1" d="M144.84,139.81c.16-.07,1.68,3.31,2.99,7.68.66,2.18,1.17,4.18,1.45,5.65.29,1.47.3,2.41.22,2.42-.08,0-.24-.89-.64-2.32-.38-1.43-.95-3.4-1.61-5.57-1.31-4.34-2.56-7.79-2.41-7.86Z"/>
          <path class="cls-1" d="M145.28,160.17c-.1-.01-.03-.7-.22-1.77-.18-1.07-.69-2.49-1.48-3.96-.79-1.47-1.61-2.79-2.08-3.81-.48-1.02-.66-1.7-.58-1.73.08-.03.39.58.96,1.52.56.95,1.42,2.21,2.24,3.73.82,1.51,1.29,3.05,1.37,4.19.09,1.15-.14,1.84-.21,1.82Z"/>
        </g>
      </g>
    </g>
  </g>
</svg>