<?xml version="1.0" encoding="UTF-8"?><svg id="Camada_2" xmlns="http://www.w3.org/2000/svg" viewBox="0 0 46.11 40.47"><defs><style>.cls-1{fill:#fff;stroke-width:0px;}</style></defs><g id="Camada_1-2"><path id="Subtração_59" class="cls-1" d="M11.33,32.25H3.39c-1.87,0-3.39-1.38-3.39-3.08v-13.54c0-1.7,1.52-3.08,3.39-3.08h39.33c1.87,0,3.39,1.38,3.39,3.08v13.54c0,1.7-1.52,3.08-3.39,3.08h-7.94v-8.9c0-1.7-1.52-3.08-3.39-3.08H14.72c-1.87,0-3.39,1.38-3.39,3.08v8.9Z"/><path id="Subtração_60" class="cls-1" d="M30.15,40.47h-14.2c-1.7,0-3.08-1.43-3.08-3.19v-12.28c0-1.76,1.38-3.19,3.08-3.19h14.2c1.7,0,3.08,1.43,3.08,3.19v12.28c0,1.76-1.38,3.19-3.08,3.19ZM15.55,35.25v1.28h10.71v-1.28h-10.71ZM15.55,31.91v1.28h15v-1.28h-15ZM15.55,28.58v1.28h15v-1.28h-15ZM15.55,25.24v1.28h15v-1.28h-15Z"/><path id="Retângulo_258" class="cls-1" d="M33.23,3.38v7.92H12.87V3.38c0-1.87,1.38-3.38,3.08-3.38h14.2c1.7,0,3.08,1.52,3.08,3.38Z"/></g></svg>