<?xml version="1.0" encoding="UTF-8"?><svg id="Camada_2" xmlns="http://www.w3.org/2000/svg" viewBox="0 0 60 54.73"><defs><style>.cls-1{fill:#fff;stroke-width:0px;}</style></defs><g id="Camada_1-2"><path id="União_7" class="cls-1" d="M19.82,54.73c-2.44,0-4.41-1.98-4.41-4.41v-16.97c0-2.44,1.98-4.41,4.41-4.41h20.36c2.44,0,4.41,1.98,4.41,4.41v16.97c0,2.44-1.98,4.41-4.41,4.41h-20.36ZM19.25,49.29h15.36v-1.76h-15.36v1.76ZM19.25,44.68h21.5v-1.76h-21.5v1.76ZM19.25,40.07h21.5v-1.76h-21.5v1.76ZM19.25,35.47h21.5v-1.76h-21.5v1.76ZM13.84,44.48H4.41c-2.44,0-4.41-1.98-4.41-4.41v-19.41c0-2.44,1.98-4.41,4.41-4.41h51.18c2.44,0,4.41,1.98,4.41,4.41v19.41c0,2.44-1.98,4.41-4.41,4.41h-9.44v-12.76c0-2.44-1.98-4.41-4.41-4.41h-23.48c-2.44,0-4.41,1.98-4.41,4.41v12.76h0ZM15.41,14.73V4.41c0-2.44,1.98-4.41,4.41-4.41h20.36c2.44,0,4.41,1.98,4.41,4.41v10.32H15.41Z"/></g></svg>