<?xml version="1.0" encoding="UTF-8"?><svg id="Camada_2" xmlns="http://www.w3.org/2000/svg" xmlns:xlink="http://www.w3.org/1999/xlink" viewBox="0 0 60 54.73"><defs><style>.cls-1{fill:url(#Gradiente_sem_nome_62);stroke-width:0px;}</style><linearGradient id="Gradiente_sem_nome_62" x1="0" y1="27.37" x2="60" y2="27.37" gradientUnits="userSpaceOnUse"><stop offset="0" stop-color="#1a4480"/><stop offset=".36" stop-color="#1c4581"/><stop offset=".52" stop-color="#234c86"/><stop offset=".65" stop-color="#30578e"/><stop offset=".76" stop-color="#42679a"/><stop offset=".85" stop-color="#5a7caa"/><stop offset=".94" stop-color="#7795bc"/><stop offset="1" stop-color="#92acce"/></linearGradient></defs><g id="Camada_1-2"><path id="União_7" class="cls-1" d="M19.82,54.73c-2.44,0-4.41-1.98-4.41-4.41v-16.97c0-2.44,1.98-4.41,4.41-4.41h20.36c2.44,0,4.41,1.98,4.41,4.41v16.97c0,2.44-1.98,4.41-4.41,4.41h-20.36ZM19.25,49.29h15.36v-1.76h-15.36v1.76ZM19.25,44.68h21.5v-1.76h-21.5v1.76ZM19.25,40.07h21.5v-1.76h-21.5v1.76ZM19.25,35.47h21.5v-1.76h-21.5v1.76ZM13.84,44.48H4.41c-2.44,0-4.41-1.98-4.41-4.41v-19.41c0-2.44,1.98-4.41,4.41-4.41h51.18c2.44,0,4.41,1.98,4.41,4.41v19.41c0,2.44-1.98,4.41-4.41,4.41h-9.44v-12.76c0-2.44-1.98-4.41-4.41-4.41h-23.48c-2.44,0-4.41,1.98-4.41,4.41v12.76h0ZM15.41,14.73V4.41c0-2.44,1.98-4.41,4.41-4.41h20.36c2.44,0,4.41,1.98,4.41,4.41v10.32H15.41Z"/></g></svg>