<?xml version="1.0" encoding="UTF-8"?><svg id="Camada_2" xmlns="http://www.w3.org/2000/svg" xmlns:xlink="http://www.w3.org/1999/xlink" viewBox="0 0 87.4 87.44"><defs><style>.cls-1{fill:#fff;}.cls-2{fill:url(#Gradiente_sem_nome_42);}.cls-3{fill:none;stroke:#1e8bb0;}</style><linearGradient id="Gradiente_sem_nome_42" x1="-616.12" y1="483.47" x2="-616.94" y2="483.44" gradientTransform="translate(77128.05 60476.32) scale(125 -125)" gradientUnits="userSpaceOnUse"><stop offset="0" stop-color="#0b3b4b"/><stop offset="1" stop-color="#50d7e2"/></linearGradient></defs><g id="Camada_1-2"><circle id="Elipse_21" class="cls-2" cx="44.9" cy="44.94" r="42.5"/><path id="Subtração_59" class="cls-1" d="m33.36,56.72h-7.94c-1.87,0-3.39-1.38-3.39-3.08v-13.54c0-1.7,1.52-3.08,3.39-3.08h39.33c1.87,0,3.39,1.38,3.39,3.08v13.54c0,1.7-1.52,3.08-3.39,3.08h-7.94v-8.9c0-1.7-1.52-3.08-3.39-3.08h-16.66c-1.87,0-3.39,1.38-3.39,3.08v8.9Z"/><path id="Subtração_60" class="cls-1" d="m52.19,64.93h-14.2c-1.7,0-3.08-1.43-3.08-3.19v-12.28c0-1.76,1.38-3.19,3.08-3.19h14.2c1.7,0,3.08,1.43,3.08,3.19v12.28c0,1.76-1.38,3.19-3.08,3.19Zm-14.6-5.22v1.28h10.71v-1.28h-10.71Zm0-3.34v1.28h15v-1.28h-15Zm0-3.34v1.28h15v-1.28h-15Zm0-3.34v1.28h15v-1.28h-15Z"/><path id="Retângulo_258" class="cls-1" d="m55.27,27.85v7.92h-20.36v-7.92c0-1.87,1.38-3.38,3.08-3.38h14.2c1.7,0,3.08,1.52,3.08,3.38Z"/><circle class="cls-3" cx="42.81" cy="42.81" r="42.31"/></g></svg>