<?xml version="1.0" encoding="UTF-8"?><svg id="Camada_2" xmlns="http://www.w3.org/2000/svg" xmlns:xlink="http://www.w3.org/1999/xlink" viewBox="0 0 87 87"><defs><style>.cls-1{fill:url(#Gradiente_sem_nome_6-2);stroke-width:0px;}.cls-2{fill:#fff;stroke:url(#Gradiente_sem_nome_6);stroke-miterlimit:10;stroke-width:2px;}</style><linearGradient id="Gradiente_sem_nome_6" x1="0" y1="43.5" x2="87" y2="43.5" gradientUnits="userSpaceOnUse"><stop offset="0" stop-color="#004788"/><stop offset=".16" stop-color="#044989"/><stop offset=".33" stop-color="#10528f"/><stop offset=".5" stop-color="#246099"/><stop offset=".66" stop-color="#4073a7"/><stop offset=".83" stop-color="#658db8"/><stop offset="1" stop-color="#91abcd"/><stop offset="1" stop-color="#92acce"/></linearGradient><linearGradient id="Gradiente_sem_nome_6-2" x1="16.44" y1="43.39" x2="70.75" y2="43.39" xlink:href="#Gradiente_sem_nome_6"/></defs><g id="Camada_1-2"><circle id="Elipse_21" class="cls-2" cx="43.5" cy="43.5" r="42.5"/><g id="Grupo_438"><path id="Grupo_437" class="cls-1" d="M57.36,23.19c-11.1,0-13.76,3.97-13.76,3.97v36.43s2.62-2.59,12.06-2.59,12.38,2.59,12.38,2.59v-3.22c1.95.95,2.71,1.87,2.71,1.87V27.17s-2.31-3.97-13.4-3.97ZM47.34,32l.49-.13c6.12-1.67,12.56-1.67,18.68,0l.49.13c.4.12.63.54.52.95h0c-.09.39-.48.63-.87.55,0,0-.02,0-.02,0l-.49-.13c-5.88-1.6-12.07-1.6-17.94,0l-.49.13c-.06.02-.12.02-.19.02-.34,0-.63-.24-.71-.58-.11-.4.12-.82.53-.94ZM47.34,37.54l.49-.14c6.12-1.66,12.56-1.66,18.68,0l.49.14c.4.12.63.54.53.94-.09.4-.48.64-.87.56,0,0-.02,0-.02,0l-.49-.14c-5.88-1.59-12.07-1.59-17.94,0l-.49.14c-.06.02-.12.02-.19.02-.34,0-.63-.24-.71-.58-.11-.4.12-.82.53-.94ZM47.34,43.08l.49-.14c6.12-1.66,12.56-1.66,18.68,0l.49.14c.4.12.63.54.53.94h0c-.08.4-.48.64-.87.55h-.02l-.5-.14c-5.87-1.59-12.06-1.59-17.93,0l-.49.14c-.06.02-.12.02-.19.02-.34,0-.63-.25-.71-.58-.11-.4.12-.82.53-.94ZM47.34,48.62l.49-.14c6.12-1.66,12.56-1.66,18.68,0l.49.14c.4.12.63.54.52.94-.08.4-.48.64-.87.55h-.02l-.5-.14c-5.87-1.59-12.06-1.59-17.93,0l-.49.14c-.06.02-.12.02-.19.02-.34,0-.63-.25-.71-.58-.11-.4.12-.82.53-.94ZM67.31,62.37c-1.68-.82-5.22-2.02-11.65-2.02-3.33-.1-6.66.36-9.84,1.34-.51.18-1.01.39-1.48.63v-.79c1.4-1.15,5.02-3.26,12.66-3.26,4.86,0,8.16.86,10.31,1.77v2.33ZM30.2,23.19c-11.09,0-13.76,3.97-13.76,3.97v35.08s.72-.98,2.71-1.95v3.31s2.63-2.59,12.06-2.59,12.39,2.59,12.39,2.59V27.17s-2.31-3.97-13.4-3.97ZM20.18,32l.5-.13c6.11-1.67,12.56-1.67,18.67,0l.5.13c.4.12.63.54.52.95-.08.39-.48.63-.87.55,0,0-.02,0-.03,0l-.49-.13c-5.87-1.6-12.06-1.6-17.93,0l-.49.13c-.07.02-.12.02-.19.02-.34,0-.63-.24-.71-.58-.11-.4.12-.82.52-.94ZM20.18,37.54l.5-.14c6.11-1.66,12.56-1.66,18.67,0l.5.14c.4.12.63.54.52.94-.08.4-.48.64-.87.56,0,0-.02,0-.03,0l-.49-.14c-5.87-1.59-12.06-1.59-17.93,0l-.49.14c-.07.02-.12.02-.19.02-.34,0-.63-.24-.71-.58-.11-.4.12-.82.52-.94ZM20.18,43.08l.5-.14c6.11-1.66,12.56-1.66,18.67,0l.5.14c.4.12.63.54.52.94-.09.4-.48.64-.87.55h-.02l-.49-.14c-5.87-1.59-12.06-1.59-17.93,0l-.49.14c-.07.02-.12.02-.19.02-.34,0-.63-.25-.71-.58-.11-.4.12-.82.52-.94ZM20.18,48.62l.5-.14c6.11-1.66,12.56-1.66,18.67,0l.5.14c.4.12.63.54.52.94-.09.4-.48.64-.87.55h-.02l-.49-.14c-5.87-1.59-12.06-1.59-17.93,0l-.49.14c-.07.02-.12.02-.19.02-.34,0-.63-.25-.71-.58-.11-.4.12-.82.52-.94ZM42.87,62.37c-1.68-.82-5.22-2.02-11.66-2.02-3.33-.1-6.65.35-9.83,1.34-.51.18-1.01.39-1.49.63v-2.37c2.08-.89,5.26-1.69,9.96-1.69,7.76,0,11.57,2.18,13.02,3.32v.78Z"/></g></g></svg>