<?xml version="1.0" encoding="UTF-8"?><svg id="Camada_2" xmlns="http://www.w3.org/2000/svg" xmlns:xlink="http://www.w3.org/1999/xlink" viewBox="0 0 87 87"><defs><style>.cls-1{fill:url(#Gradiente_sem_nome_6-3);}.cls-1,.cls-2{stroke-width:0px;}.cls-2{fill:url(#Gradiente_sem_nome_6-2);}.cls-3{fill:#fff;stroke:url(#Gradiente_sem_nome_6);stroke-miterlimit:10;stroke-width:2px;}</style><linearGradient id="Gradiente_sem_nome_6" x1="0" y1="43.5" x2="87" y2="43.5" gradientUnits="userSpaceOnUse"><stop offset="0" stop-color="#004788"/><stop offset=".16" stop-color="#044989"/><stop offset=".33" stop-color="#10528f"/><stop offset=".5" stop-color="#246099"/><stop offset=".66" stop-color="#4073a7"/><stop offset=".83" stop-color="#658db8"/><stop offset="1" stop-color="#91abcd"/><stop offset="1" stop-color="#92acce"/></linearGradient><linearGradient id="Gradiente_sem_nome_6-2" x1="30.43" y1="53.81" x2="56.57" y2="53.81" xlink:href="#Gradiente_sem_nome_6"/><linearGradient id="Gradiente_sem_nome_6-3" x1="33.91" y1="38.56" x2="53.08" y2="38.56" xlink:href="#Gradiente_sem_nome_6"/></defs><g id="Camada_1-2"><circle id="Elipse_21" class="cls-3" cx="43.5" cy="43.5" r="42.5"/><g id="Grupo_245"><path id="Caminho_316" class="cls-2" d="M55.7,39.87c-.48,0-.87.39-.87.87v5.23c0,6.25-5.07,11.33-11.33,11.33s-11.33-5.07-11.33-11.33v-5.23c0-.48-.4-.87-.87-.87s-.87.39-.87.87v5.23c0,6.88,5.34,12.58,12.2,13.03v7.01h-6.1c-.48,0-.87.39-.87.87s.39.86.87.86h13.94c.48,0,.87-.39.87-.86s-.4-.87-.87-.87h-6.1v-7.01c6.86-.45,12.2-6.16,12.2-13.03v-5.23c0-.48-.39-.87-.87-.87Z"/><path class="cls-1" d="M43.5,21.57c-5.29,0-9.59,4.3-9.59,9.59v14.81c0,5.29,4.3,9.58,9.59,9.58s9.58-4.29,9.58-9.58v-14.81c0-5.29-4.29-9.59-9.58-9.59ZM43.63,26.92c.08-.08.2-.12.31-.12.23,0,.43.18.44.41v.05c0,.1-.05.21-.13.28l-4.35,4.35c-.07.08-.18.12-.29.13h-.05c-.23-.01-.4-.21-.4-.44,0-.11.04-.22.12-.31l4.35-4.35ZM38.84,28.23l1.74-1.74c.08-.09.2-.13.31-.13.12,0,.23.05.31.13.17.17.17.44,0,.62l-1.74,1.74c-.17.16-.43.16-.59,0-.18-.16-.19-.44-.02-.62ZM51.34,45.97c0,4.33-3.51,7.84-7.84,7.84s-7.84-3.51-7.84-7.84v-1.74c0,4.33,3.51,7.84,7.84,7.84s7.84-3.51,7.84-7.84v1.74ZM51.34,41.61h-15.69v-1.74h15.69v1.74Z"/></g></g></svg>