<?xml version="1.0" encoding="UTF-8"?><svg id="Camada_2" xmlns="http://www.w3.org/2000/svg" xmlns:xlink="http://www.w3.org/1999/xlink" viewBox="0 0 87 87"><defs><style>.cls-1{fill:url(#Gradiente_sem_nome_6-3);}.cls-1,.cls-2{stroke-width:0px;}.cls-2{fill:url(#Gradiente_sem_nome_6-2);}.cls-3{fill:#fff;stroke:url(#Gradiente_sem_nome_6);stroke-miterlimit:10;stroke-width:2px;}</style><linearGradient id="Gradiente_sem_nome_6" x1="0" y1="43.5" x2="87" y2="43.5" gradientUnits="userSpaceOnUse"><stop offset="0" stop-color="#004788"/><stop offset=".16" stop-color="#044989"/><stop offset=".33" stop-color="#10528f"/><stop offset=".5" stop-color="#246099"/><stop offset=".66" stop-color="#4073a7"/><stop offset=".83" stop-color="#658db8"/><stop offset="1" stop-color="#91abcd"/><stop offset="1" stop-color="#92acce"/></linearGradient><linearGradient id="Gradiente_sem_nome_6-2" x1="27.38" y1="35.36" x2="61.62" y2="35.64" xlink:href="#Gradiente_sem_nome_6"/><linearGradient id="Gradiente_sem_nome_6-3" x1="38.35" y1="63.27" x2="48.35" y2="63.35" xlink:href="#Gradiente_sem_nome_6"/></defs><g id="Camada_1-2"><circle id="Elipse_21" class="cls-3" cx="43.5" cy="43.5" r="42.5"/><path class="cls-2" d="M40.1,53.71c-1.08,0-1.95-.89-1.92-1.96.21-7.06,1.82-9.74,8.78-13.78,3.3-1.89,4.17-3.7,4.17-6.38,0-2.97-2.5-5.4-6.35-5.4-4.1,0-6.81,2.29-7.39,6.05-.14.91-.96,1.57-1.88,1.57h-6.26c-1.12,0-2.03-.96-1.91-2.07.94-9.2,8.21-14.46,17.77-14.46s16.46,6.6,16.46,14.4c0,5.98-2.25,9.54-9.07,13.31-3.13,1.74-3.9,3.58-4.06,6.92-.05,1.02-.89,1.82-1.91,1.82h-6.44Z"/><path class="cls-1" d="M43.33,58.31c2.83,0,5,2.17,5,5s-2.17,5-5,5-5-2.17-5-5,2.17-5,5-5Z"/></g></svg>