<?xml version="1.0" encoding="UTF-8"?><svg id="Camada_2" xmlns="http://www.w3.org/2000/svg" xmlns:xlink="http://www.w3.org/1999/xlink" viewBox="0 0 87 87"><defs><style>.cls-1{fill:url(#Gradiente_sem_nome_6-2);stroke-width:0px;}.cls-2{fill:#fff;stroke:url(#Gradiente_sem_nome_6);stroke-miterlimit:10;stroke-width:2px;}</style><linearGradient id="Gradiente_sem_nome_6" x1="0" y1="43.5" x2="87" y2="43.5" gradientUnits="userSpaceOnUse"><stop offset="0" stop-color="#004788"/><stop offset=".16" stop-color="#044989"/><stop offset=".33" stop-color="#10528f"/><stop offset=".5" stop-color="#246099"/><stop offset=".66" stop-color="#4073a7"/><stop offset=".83" stop-color="#658db8"/><stop offset="1" stop-color="#91abcd"/><stop offset="1" stop-color="#92acce"/></linearGradient><linearGradient id="Gradiente_sem_nome_6-2" x1="20.44" y1="42.83" x2="66.48" y2="42.83" xlink:href="#Gradiente_sem_nome_6"/></defs><g id="Camada_1-2"><circle id="Elipse_21" class="cls-2" cx="43.5" cy="43.5" r="42.5"/><path class="cls-1" d="M37.11,58.46h-10.42V21.64h27.68v4.93h-17.26v31.89ZM66.48,64.02v-30.27l-6.02-6.05h-.9l6.92,6.92h-6.92v-6.92h-20.76v36.32h27.68ZM62.19,42.52v1.32h-3.52v2.05h3.13v1.32h-3.13v3.23h-1.63v-7.92h5.15ZM52.24,42.52c.65-.01,1.3.15,1.87.47.55.31,1,.78,1.29,1.34.31.61.47,1.29.46,1.97v.36c.01.68-.14,1.36-.45,1.96-.29.56-.73,1.02-1.28,1.33-.57.32-1.21.48-1.86.48h-2.45v-7.92h2.43ZM45.71,42.52c.54-.01,1.08.1,1.57.33.43.2.79.52,1.04.93.25.41.37.89.36,1.37.03.7-.26,1.38-.8,1.83-.63.48-1.41.72-2.2.67h-1.43v2.79h-1.63v-7.92h3.08ZM52.22,49.13c.56.04,1.11-.2,1.47-.63.37-.52.55-1.15.52-1.79v-.42c.04-.65-.13-1.29-.5-1.83-.36-.43-.91-.66-1.47-.62h-.8v5.28h.79,0ZM46.7,46.03c.24-.23.36-.54.34-.87.01-.35-.11-.69-.34-.94-.25-.25-.59-.38-.94-.37h-1.5v2.48h1.45c.35.03.71-.08.99-.3ZM26.84,59.52c-.15-.15-.36-.24-.58-.24s-.42.09-.59.24l-1.1,1.11v-6.36c0-.45-.37-.82-.83-.82s-.82.37-.82.82v6.36l-1.1-1.11c-.32-.32-.84-.32-1.15,0-.33.32-.33.84,0,1.16l2.5,2.5c.16.16.37.24.58.24s.42-.08.59-.24l2.5-2.5c.15-.15.24-.35.24-.58s-.09-.42-.24-.58Z"/></g></svg>