<?xml version="1.0" encoding="UTF-8"?><svg id="Camada_2" xmlns="http://www.w3.org/2000/svg" xmlns:xlink="http://www.w3.org/1999/xlink" viewBox="0 0 87 87"><defs><style>.cls-1{fill:url(#Gradiente_sem_nome_6-2);stroke-width:0px;}.cls-2{fill:#fff;stroke:url(#Gradiente_sem_nome_6);stroke-miterlimit:10;stroke-width:2px;}</style><linearGradient id="Gradiente_sem_nome_6" x1="0" y1="43.5" x2="87" y2="43.5" gradientUnits="userSpaceOnUse"><stop offset="0" stop-color="#004788"/><stop offset=".16" stop-color="#044989"/><stop offset=".33" stop-color="#10528f"/><stop offset=".5" stop-color="#246099"/><stop offset=".66" stop-color="#4073a7"/><stop offset=".83" stop-color="#658db8"/><stop offset="1" stop-color="#91abcd"/><stop offset="1" stop-color="#92acce"/></linearGradient><linearGradient id="Gradiente_sem_nome_6-2" x1="24.73" y1="42.39" x2="67.43" y2="42.39" xlink:href="#Gradiente_sem_nome_6"/></defs><g id="Camada_1-2"><circle id="Elipse_21" class="cls-2" cx="43.5" cy="43.5" r="42.5"/><path id="Subtração_61" class="cls-1" d="M49,66.39h-20.58l2.12-17.3c-1.09-.97-2.06-2.07-2.9-3.26-.81-1.12-1.48-2.33-2-3.61-.59-1.44-.89-2.97-.91-4.52-.05-3.01.55-5.99,1.74-8.75,1.04-2.32,2.6-4.37,4.55-6.01,1.87-1.55,4.02-2.72,6.33-3.46,2.29-.74,4.68-1.12,7.08-1.11,2.35,0,4.68.36,6.92,1.07,1.04.34,2.05.78,3.02,1.31.91.5,1.77,1.1,2.55,1.78.86.76,1.6,1.63,2.21,2.6.58.93,1.04,1.92,1.4,2.95.68,2.19,1.17,4.44,1.46,6.71.09.59.19,1.19.29,1.8.71.97,1.48,1.9,2.28,2.79,1.52,1.74,3.09,3.55,2.83,4.15-.24.56-2.47,1.38-4.09,1.97-.52.19-.97.36-1.25.47h0c.09,2.23.07,4.45-.08,6.67-.09,1.72-.34,3.42-.74,5.1-.44,1.7-1.03,2.84-1.77,3.4-.65.41-1.42.61-2.2.56-1.03,0-2.9-.23-5.97-1.3-1.84-.64-3.25-1.29-3.26-1.3l.96,7.28h0ZM34.39,40.95h0c.1.01.19.02.28.02l.53,1.18c.38-.03.75-.1,1.11-.21l.08-1.29s.06-.03.1-.04c.05-.02.1-.05.16-.08l1.04.75c.31-.21.6-.46.86-.74l-.57-1.16c.05-.07.11-.15.16-.24l1.27.12c.16-.34.29-.71.38-1.08l-1.07-.71c.01-.1.02-.19.02-.29l1.17-.54c-.03-.38-.1-.76-.21-1.12l-1.28-.08s-.03-.06-.04-.1c-.02-.05-.05-.1-.08-.16l.74-1.06c-.21-.32-.46-.61-.73-.87l-1.15.58c-.08-.06-.15-.11-.23-.16l.12-1.29c-.34-.17-.7-.29-1.07-.38l-.71,1.08c-.09-.01-.19-.02-.28-.02l-.53-1.18c-.38.03-.75.1-1.11.21l-.08,1.3s-.07.03-.1.04c-.05.02-.1.05-.16.08l-1.04-.75c-.31.21-.6.46-.86.74l.57,1.16c-.05.07-.1.15-.16.24l-1.27-.12c-.16.34-.29.71-.38,1.08l1.07.71c-.01.09-.02.19-.02.29l-1.17.54c.03.38.1.76.21,1.12l1.28.08v.02s.03.05.04.08c.02.05.05.1.08.16l-.75,1.06c.21.32.46.61.73.87l1.15-.58c.08.06.16.11.24.16l-.12,1.29c.34.17.7.29,1.07.38l.71-1.08h0ZM46.13,35.7h0l.62,1.31c.64-.05,1.26-.18,1.87-.39l.06-1.45c.26-.11.51-.24.76-.39l1.18.81c.52-.37,1-.8,1.42-1.28l-.67-1.29c.17-.23.33-.47.47-.72l1.43.11c.27-.58.47-1.2.6-1.83l-1.21-.77c.03-.22.04-.43.05-.64v-.22l1.29-.63c-.05-.64-.18-1.28-.38-1.89l-1.43-.06c-.11-.26-.24-.52-.38-.77l.81-1.2c-.36-.53-.79-1.01-1.27-1.44l-1.27.67c-.23-.17-.46-.33-.71-.47l.11-1.44c-.58-.27-1.18-.48-1.81-.6l-.76,1.23c-.21-.03-.42-.04-.63-.05h-.22l-.62-1.31c-.64.05-1.26.18-1.87.39l-.06,1.45c-.26.11-.51.24-.76.39l-1.18-.81c-.52.37-1,.8-1.42,1.28l.67,1.28c-.17.23-.33.47-.47.72l-1.43-.1c-.27.58-.47,1.2-.6,1.83l1.21.77c-.03.22-.04.43-.05.64v.22l-1.29.63c.05.64.18,1.28.38,1.89l1.43.06c.11.26.24.52.38.77l-.81,1.2c.36.53.79,1.01,1.27,1.44l1.27-.67c.23.17.46.33.71.47l-.11,1.44c.58.27,1.18.48,1.81.6l.77-1.23c.21.03.43.04.63.05h.22ZM34.84,38.42c-.55,0-1.04-.32-1.27-.82-.33-.71-.03-1.54.68-1.88.18-.09.39-.13.59-.13.54,0,1.04.32,1.27.82.33.71.03,1.54-.68,1.88-.18.09-.39.13-.59.13ZM46.08,32.31h-.09c-.87-.02-1.7-.39-2.29-1.03-1.23-1.32-1.19-3.39.09-4.66.61-.6,1.43-.94,2.28-.94h.09c1.83.07,3.26,1.62,3.19,3.46-.03.84-.39,1.64-.99,2.23-.61.6-1.43.94-2.28.94Z"/></g></svg>