<?xml version="1.0" encoding="UTF-8"?><svg id="Camada_2" xmlns="http://www.w3.org/2000/svg" xmlns:xlink="http://www.w3.org/1999/xlink" viewBox="0 0 87 87"><defs><style>.cls-1{fill:url(#Gradiente_sem_nome_6-3);}.cls-1,.cls-2{stroke-width:0px;}.cls-2{fill:url(#Gradiente_sem_nome_6-2);}.cls-3{fill:#fff;stroke:url(#Gradiente_sem_nome_6);stroke-miterlimit:10;stroke-width:2px;}</style><linearGradient id="Gradiente_sem_nome_6" x1="0" y1="43.5" x2="87" y2="43.5" gradientUnits="userSpaceOnUse"><stop offset="0" stop-color="#004788"/><stop offset=".16" stop-color="#044989"/><stop offset=".33" stop-color="#10528f"/><stop offset=".5" stop-color="#246099"/><stop offset=".66" stop-color="#4073a7"/><stop offset=".83" stop-color="#658db8"/><stop offset="1" stop-color="#91abcd"/><stop offset="1" stop-color="#92acce"/></linearGradient><linearGradient id="Gradiente_sem_nome_6-2" x1="20.09" y1="55.69" x2="66.48" y2="55.69" xlink:href="#Gradiente_sem_nome_6"/><linearGradient id="Gradiente_sem_nome_6-3" x1="32.56" y1="39.33" x2="54.01" y2="39.33" xlink:href="#Gradiente_sem_nome_6"/></defs><g id="Camada_1-2"><circle id="Elipse_21" class="cls-3" cx="43.5" cy="43.5" r="42.5"/><g id="download-2"><g id="Caminho_404"><path class="cls-2" d="M66.48,50.14v6.93c0,3.62-2.94,6.56-6.56,6.56H26.65c-3.62,0-6.56-2.95-6.56-6.56v-6.93c0-1.33,1.08-2.4,2.4-2.4s2.4,1.08,2.4,2.4v6.93c0,.97.79,1.75,1.75,1.75h33.27c.97,0,1.75-.79,1.75-1.75v-6.93c0-1.33,1.08-2.4,2.4-2.4s2.4,1.08,2.4,2.4Z"/></g><g id="Caminho_405"><path class="cls-1" d="M53.3,46.57l-8.43,8.42c-.47.4-1.04.6-1.6.6-.62,0-1.22-.24-1.69-.7l-8.31-8.32c-.95-.96-.94-2.49,0-3.41.95-.93,2.47-.93,3.4.02l4.21,4.21v-21.92c0-1.33,1.08-2.4,2.4-2.4s2.4,1.08,2.4,2.4v21.92l4.21-4.22c.94-.93,2.47-.93,3.4,0,.94.94.93,2.47,0,3.4Z"/></g></g></g></svg>