<?xml version="1.0" encoding="UTF-8"?><svg id="Camada_2" xmlns="http://www.w3.org/2000/svg" xmlns:xlink="http://www.w3.org/1999/xlink" viewBox="0 0 87 87"><defs><style>.cls-1{fill:url(#Gradiente_sem_nome_6-2);stroke-width:0px;}.cls-2{fill:#fff;stroke:url(#Gradiente_sem_nome_6);stroke-miterlimit:10;stroke-width:2px;}</style><linearGradient id="Gradiente_sem_nome_6" x1="0" y1="43.5" x2="87" y2="43.5" gradientUnits="userSpaceOnUse"><stop offset="0" stop-color="#004788"/><stop offset=".16" stop-color="#044989"/><stop offset=".33" stop-color="#10528f"/><stop offset=".5" stop-color="#246099"/><stop offset=".66" stop-color="#4073a7"/><stop offset=".83" stop-color="#658db8"/><stop offset="1" stop-color="#91abcd"/><stop offset="1" stop-color="#92acce"/></linearGradient><linearGradient id="Gradiente_sem_nome_6-2" x1="16.44" y1="43.52" x2="70.75" y2="43.52" xlink:href="#Gradiente_sem_nome_6"/></defs><g id="Camada_1-2"><circle id="Elipse_21" class="cls-2" cx="43.5" cy="43.5" r="42.5"/><path id="Subtração_61" class="cls-1" d="M36.47,40.37c1.29-5.45-2.08-10.92-7.54-12.22-5.45-1.29-10.92,2.08-12.22,7.54-1.29,5.45,2.08,10.92,7.54,12.22s10.92-2.08,12.22-7.54ZM47.32,34.31c1.29-5.45-2.08-10.92-7.54-12.22-5.45-1.29-10.92,2.08-12.22,7.54-1.29,5.45,2.08,10.92,7.54,12.22,5.45,1.29,10.92-2.08,12.22-7.54ZM61.97,35.98c1.29-5.45-2.08-10.92-7.54-12.22-5.45-1.29-10.92,2.08-12.22,7.54-1.29,5.45,2.08,10.92,7.54,12.22,5.45,1.29,10.92-2.08,12.22-7.54ZM59.63,45.85c1.29-5.45-2.08-10.92-7.54-12.22-5.45-1.29-10.92,2.08-12.22,7.54-1.29,5.45,2.08,10.92,7.54,12.22s10.92-2.08,12.22-7.54ZM46.23,48.8c1.29-5.45-2.08-10.92-7.54-12.22-5.45-1.29-10.92,2.08-12.22,7.54-1.29,5.45,2.08,10.92,7.54,12.22,5.45,1.29,10.92-2.08,12.22-7.54ZM70.48,44.11c1.29-5.45-2.08-10.92-7.54-12.22-5.45-1.29-10.92,2.08-12.22,7.54s2.08,10.92,7.54,12.22c5.45,1.29,10.92-2.08,12.22-7.54ZM47.96,61.29c0-1.62-1.53-2.94-3.42-2.94s-3.42,1.31-3.42,2.94,1.53,2.94,3.42,2.94,3.42-1.31,3.42-2.94ZM55.3,63.26c0-1.09-1-1.97-2.24-1.97s-2.24.88-2.24,1.97,1,1.97,2.24,1.97,2.24-.88,2.24-1.97Z"/></g></svg>