<?xml version="1.0" encoding="UTF-8"?><svg id="Camada_2" xmlns="http://www.w3.org/2000/svg" xmlns:xlink="http://www.w3.org/1999/xlink" viewBox="0 0 87 87"><defs><style>.cls-1{fill:url(#Gradiente_sem_nome_6-2);stroke-width:0px;}.cls-2{fill:#fff;stroke:url(#Gradiente_sem_nome_6);stroke-miterlimit:10;stroke-width:2px;}</style><linearGradient id="Gradiente_sem_nome_6" x1="0" y1="43.5" x2="87" y2="43.5" gradientUnits="userSpaceOnUse"><stop offset="0" stop-color="#004788"/><stop offset=".16" stop-color="#044989"/><stop offset=".33" stop-color="#10528f"/><stop offset=".5" stop-color="#246099"/><stop offset=".66" stop-color="#4073a7"/><stop offset=".83" stop-color="#658db8"/><stop offset="1" stop-color="#91abcd"/><stop offset="1" stop-color="#92acce"/></linearGradient><linearGradient id="Gradiente_sem_nome_6-2" x1="16.39" y1="42.3" x2="71.14" y2="42.3" xlink:href="#Gradiente_sem_nome_6"/></defs><g id="Camada_1-2"><circle id="Elipse_21" class="cls-2" cx="43.5" cy="43.5" r="42.5"/><path class="cls-1" d="M60.33,40.41c-1.28-.67-2.62-1.21-4.01-1.63l-2.79,5.26c1.38.42,2.73.96,4.01,1.63.47.25.93.52,1.35.8l2.8-5.26c-.43-.28-.89-.55-1.36-.8ZM60.33,40.41c-1.28-.67-2.62-1.21-4.01-1.63l-2.79,5.26c1.38.42,2.73.96,4.01,1.63.47.25.93.52,1.35.8l2.8-5.26c-.43-.28-.89-.55-1.36-.8ZM71.07,40.89c-1.02-3.58-3.52-6.57-6.86-8.2-2.44-1.22-5.05-2.08-7.68-2.55-.88-.22-1.8-.41-2.7-.61l-.21-.04c-3-.65-6.1-1.32-8.8-2.75-2.05-1.06-3.78-2.64-5.04-4.58l.15-.28c.23-.43.28-.93.14-1.4-.15-.47-.46-.86-.9-1.09-.43-.23-.93-.28-1.4-.13-.47.14-.86.46-1.08.89l-20.08,37.81c-.48.89-.14,2.01.76,2.48.43.23.93.28,1.4.14.47-.15.86-.47,1.09-.9l6.23-11.74c1.44,1.75,3.23,3.19,5.23,4.23,3.14,1.67,6.5,2.4,9.75,3.09l.2.05c.9.19,1.76.38,2.7.6,2.36.42,4.64,1.18,6.79,2.24,2.43,1.18,4.25,3.34,4.99,5.94.13.47.45.86.88,1.1.27.15.58.23.88.23.17,0,.35-.02.51-.07.48-.14.89-.47,1.12-.9l11.78-22.19c.23-.42.28-.91.15-1.37ZM60.39,56.08l-2.74,5.14c-.91-1.93-2.31-3.58-4.04-4.79l2.49-4.7c-.43-.28-.89-.55-1.36-.8-1.28-.67-2.62-1.21-4.01-1.63l2.8-5.25c-1.9-.6-3.93-1.03-5.88-1.45l2.79-5.26c-1.96-.42-3.98-.86-5.88-1.45l-2.79,5.26c1.89.59,3.9,1.02,5.85,1.44h.02s-2.79,5.27-2.79,5.27h.01c1.95.42,3.97.85,5.87,1.45l-2.45,4.62c-1.23-.4-2.49-.72-3.77-.95-.7-.17-1.4-.33-2.12-.48l2.46-4.64h-.02c-1.95-.42-3.97-.86-5.86-1.45l-2.48,4.66c-1.35-.41-2.67-.91-3.91-1.57-.5-.26-.98-.55-1.44-.86l2.47-4.66c.42.28.88.55,1.35.8,1.28.67,2.62,1.22,4.01,1.63l2.79-5.26c-1.38-.41-2.72-.96-4-1.62-.48-.26-.93-.53-1.36-.81l-2.8,5.26c-1.73-1.14-3.21-2.63-4.31-4.39l2.79-5.26c1.11,1.76,2.58,3.26,4.32,4.39l2.79-5.26c-1.74-1.13-3.21-2.63-4.32-4.39l2.89-5.43c1.17,1.71,2.66,3.15,4.37,4.29l-2.93,5.53c.42.29.88.55,1.35.81,1.28.66,2.63,1.21,4.01,1.62l2.92-5.5c1.85.59,3.73,1,5.58,1.4.1.02.2.04.3.06l-2.92,5.49h.02c1.95.42,3.97.86,5.86,1.44l2.94-5.52c1.27.41,2.52.9,3.72,1.49.57.28,1.11.61,1.61.99l-2.9,5.47c1.72,1.13,3.18,2.61,4.28,4.35l-2.79,5.26c-1.11-1.74-2.57-3.22-4.29-4.35l-2.79,5.26c1.72,1.13,3.18,2.61,4.29,4.35Z"/></g></svg>