<?xml version="1.0" encoding="UTF-8"?><svg id="Camada_2" xmlns="http://www.w3.org/2000/svg" xmlns:xlink="http://www.w3.org/1999/xlink" viewBox="0 0 87 87"><defs><style>.cls-1{fill:url(#Gradiente_sem_nome_6-2);stroke-width:0px;}.cls-2{fill:#fff;stroke:url(#Gradiente_sem_nome_6);stroke-miterlimit:10;stroke-width:2px;}</style><linearGradient id="Gradiente_sem_nome_6" x1="0" y1="43.5" x2="87" y2="43.5" gradientUnits="userSpaceOnUse"><stop offset="0" stop-color="#004788"/><stop offset=".16" stop-color="#044989"/><stop offset=".33" stop-color="#10528f"/><stop offset=".5" stop-color="#246099"/><stop offset=".66" stop-color="#4073a7"/><stop offset=".83" stop-color="#658db8"/><stop offset="1" stop-color="#91abcd"/><stop offset="1" stop-color="#92acce"/></linearGradient><linearGradient id="Gradiente_sem_nome_6-2" x1="23.22" y1="43.5" x2="64.5" y2="43.5" xlink:href="#Gradiente_sem_nome_6"/></defs><g id="Camada_1-2"><circle id="Elipse_21" class="cls-2" cx="43.5" cy="43.5" r="42.5"/><path id="Caminho_43" class="cls-1" d="M35.88,56.32s-.09,0-.13,0c-.14,0-.23.01-.32.24-.18.52-.28,1.07-.3,1.63-.03.46-.09.91-.18,1.36-.55,2.34-2.58,4.02-4.98,4.13h-.08c-1.63-.1-3.17-.81-4.29-2.01-.3-.28-2.05-2.02-2-4.36.11-2.4,1.8-4.43,4.13-4.98.45-.09.91-.15,1.37-.18.56-.02,1.11-.12,1.63-.3.14-.07.27-.12.23-.45l-7.74-7.74,7.95-7.95c.03-.15-.06-.29-.21-.32-.5-.18-1.03-.28-1.57-.29-.45-.03-.89-.09-1.33-.17-2.28-.53-3.92-2.51-4.03-4.85.26-3.29,2.84-5.91,6.13-6.2h.07c2.34.11,4.32,1.75,4.85,4.03.08.44.14.88.17,1.32.02.54.12,1.07.29,1.58.09.2.15.21.28.21h.04l8.14-8.14,8.21,8.21.06.29c.3,1.08-.25,2.21-1.29,2.63-.67.26-1.37.4-2.09.43-.35.02-.69.07-1.03.13-1.28.32-2.21,1.44-2.29,2.75.08.99.53,1.92,1.25,2.6l.07.07c.68.71,1.59,1.16,2.57,1.25,1.33-.08,2.46-1,2.79-2.29.06-.34.11-.69.13-1.04.03-.71.17-1.41.43-2.08.33-.83,1.14-1.37,2.03-1.35.2,0,.41.02.61.07l.29.06,8.75,8.76-9.06,9.06-.32.05c-.15.02-.29.04-.44.04-.88.02-1.68-.52-2-1.34-.25-.65-.39-1.34-.42-2.04-.02-.34-.07-.67-.13-1-.31-1.24-1.39-2.13-2.66-2.22h0c-.96.08-1.85.51-2.52,1.21l-.04.04-.04.04c-.7.66-1.13,1.56-1.21,2.51.09,1.27.98,2.35,2.21,2.66.33.06.67.11,1.01.13.7.03,1.39.17,2.04.42.97.39,1.52,1.42,1.3,2.44l-.05.32-8.48,8.48-7.82-7.82Z"/></g></svg>