<?xml version="1.0" encoding="UTF-8"?><svg id="Camada_2" xmlns="http://www.w3.org/2000/svg" xmlns:xlink="http://www.w3.org/1999/xlink" viewBox="0 0 87 87"><defs><style>.cls-1{fill:url(#Gradiente_sem_nome_6-2);stroke-width:0px;}.cls-2{fill:#fff;stroke:url(#Gradiente_sem_nome_6);stroke-miterlimit:10;stroke-width:2px;}</style><linearGradient id="Gradiente_sem_nome_6" x1="0" y1="43.5" x2="87" y2="43.5" gradientUnits="userSpaceOnUse"><stop offset="0" stop-color="#004788"/><stop offset=".16" stop-color="#044989"/><stop offset=".33" stop-color="#10528f"/><stop offset=".5" stop-color="#246099"/><stop offset=".66" stop-color="#4073a7"/><stop offset=".83" stop-color="#658db8"/><stop offset="1" stop-color="#91abcd"/><stop offset="1" stop-color="#92acce"/></linearGradient><linearGradient id="Gradiente_sem_nome_6-2" x1="9.92" y1="44.26" x2="76.65" y2="44.26" xlink:href="#Gradiente_sem_nome_6"/></defs><g id="Camada_1-2"><circle id="Elipse_21" class="cls-2" cx="43.5" cy="43.5" r="42.5"/><path class="cls-1" d="M43.28,28.83c-18.43,0-33.36,15.28-33.36,15.28,0,0,14.93,15.59,33.36,15.59s33.36-15.59,33.36-15.59c0,0-14.94-15.28-33.36-15.28ZM48.89,43.57c0,3-2.43,5.42-5.41,5.42s-5.42-2.43-5.42-5.42,2.43-5.41,5.42-5.41c.04,0,.06,0,.1,0,.24,2.82,2.49,5.07,5.31,5.31,0,.04,0,.06,0,.1ZM43.28,55.26c-11.41,0-21.6-6.94-26.71-11.12,4.22-3.39,11.87-8.58,20.82-10.3-3.24,2.02-5.4,5.63-5.4,9.73,0,6.34,5.13,11.48,11.47,11.48s11.48-5.14,11.48-11.48c0-1.09-.15-2.14-.44-3.14.44-.82.7-1.76.7-2.76,0-.82-.17-1.59-.47-2.3,6.51,2.33,11.95,6.11,15.25,8.76-5.1,4.18-15.3,11.12-26.7,11.12Z"/></g></svg>