<?xml version="1.0" encoding="UTF-8"?><svg id="Camada_2" xmlns="http://www.w3.org/2000/svg" xmlns:xlink="http://www.w3.org/1999/xlink" viewBox="0 0 87 87"><defs><style>.cls-1{fill:url(#Gradiente_sem_nome_6-2);stroke-width:0px;}.cls-2{fill:#fff;stroke:url(#Gradiente_sem_nome_6);stroke-miterlimit:10;stroke-width:2px;}</style><linearGradient id="Gradiente_sem_nome_6" x1="0" y1="43.5" x2="87" y2="43.5" gradientUnits="userSpaceOnUse"><stop offset="0" stop-color="#004788"/><stop offset=".16" stop-color="#044989"/><stop offset=".33" stop-color="#10528f"/><stop offset=".5" stop-color="#246099"/><stop offset=".66" stop-color="#4073a7"/><stop offset=".83" stop-color="#658db8"/><stop offset="1" stop-color="#91abcd"/><stop offset="1" stop-color="#92acce"/></linearGradient><linearGradient id="Gradiente_sem_nome_6-2" x1="26.41" y1="40.66" x2="59.93" y2="40.66" xlink:href="#Gradiente_sem_nome_6"/></defs><g id="Camada_1-2"><circle id="Elipse_21" class="cls-2" cx="43.5" cy="43.5" r="42.5"/><path id="Grupo_110" class="cls-1" d="M43.76,70.67c-1.41-.17-2.76-.67-3.94-1.46-.51-.31-.98-.67-1.42-1.08h10.71c-.43.41-.91.77-1.42,1.08-1.18.79-2.53,1.29-3.94,1.46ZM49.82,67.29h-12.11c-.17-.25-.27-.54-.28-.85v-.84h12.68v.84c-.02.3-.11.59-.28.85h0ZM50.1,64.75h-12.68v-1.69h12.68v1.69h0ZM50.1,62.21h-12.68v-1.69h12.68v1.69ZM50.1,60.46h0v-.78h-5.07v-5.39l3.34-6.67h0c.03-.06.05-.12.05-.19,0-.23-.19-.42-.42-.42-.16,0-.3.09-.37.24h0l-3.85,6-3.85-6.01h0c-.07-.14-.21-.23-.37-.24-.23,0-.42.19-.42.42,0,.07.02.13.05.19h0l3.34,6.67v5.39h-5.07v.78c0-.11-.01-.22-.02-.36-.18-1.89-1.51-4.08-3.06-6.63-2.21-3.63-4.95-8.16-4.95-13.02,0-7.11,6.45-12.89,14.37-12.89s14.37,5.78,14.37,12.89c0,4.87-2.74,9.39-4.95,13.03-1.54,2.54-2.88,4.74-3.06,6.63-.01.12-.02.24-.02.36h0ZM45.33,22.07v-9.92c0-.83-.67-1.5-1.5-1.5s-1.5.67-1.5,1.5v9.92c0,.83.67,1.5,1.5,1.5s1.5-.67,1.5-1.5ZM37.04,25.12c.56-.61.52-1.56-.09-2.12l-8.03-7.37c-.61-.56-1.56-.52-2.12.09-.56.61-.52,1.56.09,2.12l8.03,7.37c.29.26.65.4,1.01.4.41,0,.81-.16,1.11-.49ZM51.41,25.21l8.03-7.37c.61-.56.65-1.51.09-2.12-.56-.61-1.51-.65-2.12-.09l-8.03,7.37c-.61.56-.65,1.51-.09,2.12.3.32.7.49,1.11.49.36,0,.73-.13,1.01-.4Z"/></g></svg>