<?xml version="1.0" encoding="UTF-8"?><svg id="Camada_2" xmlns="http://www.w3.org/2000/svg" xmlns:xlink="http://www.w3.org/1999/xlink" viewBox="0 0 87 87"><defs><style>.cls-1{fill:url(#Gradiente_sem_nome_6-2);stroke-width:0px;}.cls-2{fill:#fff;stroke:url(#Gradiente_sem_nome_6);stroke-miterlimit:10;stroke-width:2px;}</style><linearGradient id="Gradiente_sem_nome_6" x1="0" y1="43.5" x2="87" y2="43.5" gradientUnits="userSpaceOnUse"><stop offset="0" stop-color="#004788"/><stop offset=".16" stop-color="#044989"/><stop offset=".33" stop-color="#10528f"/><stop offset=".5" stop-color="#246099"/><stop offset=".66" stop-color="#4073a7"/><stop offset=".83" stop-color="#658db8"/><stop offset="1" stop-color="#91abcd"/><stop offset="1" stop-color="#92acce"/></linearGradient><linearGradient id="Gradiente_sem_nome_6-2" x1="24.16" y1="43.5" x2="62.84" y2="43.5" xlink:href="#Gradiente_sem_nome_6"/></defs><g id="Camada_1-2"><circle id="Elipse_21" class="cls-2" cx="43.5" cy="43.5" r="42.5"/><path class="cls-1" d="M60.94,29.55l-12.63-8.03c-1.3-.83-2.95-.85-4.27-.07h0c-1.87,1.11-2.43,3.34-1.67,5.12-.38.21-.74.47-1.06.81l-7.14,7.61-1.07-.68c-1.2-.76-2.71-.85-3.99-.22l-2.67,1.31c-2.86,1.4-3.08,5.4-.39,7.11l10.4,6.62-5.7,9.12s-.01.03-.02.04l-1.97,7.67c-.03.13.12.22.22.14l6.24-4.96s.02-.02.03-.04l5.7-9.11,10.42,6.62c2.69,1.71,6.22-.18,6.27-3.37l.05-2.97c.03-1.42-.69-2.76-1.89-3.52l-1.07-.68,3.87-9.7c.17-.42.26-.86.28-1.3,1.94-.07,3.72-1.52,3.93-3.68h0c.15-1.53-.58-3.01-1.87-3.84ZM46.02,30.34l-6.15,7.39c-.54.65-1.5.73-2.14.2-.65-.54-.73-1.5-.2-2.14l6.15-7.39c.54-.65,1.5-.73,2.14-.2.65.54.73,1.5.2,2.14Z"/></g></svg>