<svg xmlns="http://www.w3.org/2000/svg" xmlns:xlink="http://www.w3.org/1999/xlink" width="68" height="62.03" viewBox="0 0 68 62.03">
  <defs>
    <linearGradient id="linear-gradient" y1="1.209" x2="0.924" y2="0.251" gradientUnits="objectBoundingBox">
      <stop offset="0" stop-color="#0b3b4b"/>
      <stop offset="1" stop-color="#50d7e2"/>
    </linearGradient>
  </defs>
  <path id="União_7" data-name="União 7" d="M22.462,801.03a5.006,5.006,0,0,1-5-5V776.8a5.006,5.006,0,0,1,5-5H45.538a5.005,5.005,0,0,1,5,5v19.232a5.005,5.005,0,0,1-5,5Zm-.648-6.167H39.223v-2H21.814Zm0-5.223H46.186v-2H21.814Zm0-5.223H46.186v-2H21.814Zm0-5.222H46.186v-2H21.814Zm-6.123,10.219H5a5.006,5.006,0,0,1-5-5v-22a5.006,5.006,0,0,1,5-5H63a5.006,5.006,0,0,1,5,5v22a5.005,5.005,0,0,1-5,5H52.307V774.954a5.005,5.005,0,0,0-5-5H20.692a5.005,5.005,0,0,0-5,5v14.459h0Zm1.77-33.72V744a5,5,0,0,1,5-5H45.538a5,5,0,0,1,5,5v11.694Z" transform="translate(0 -739)" fill="url(#linear-gradient)"/>
</svg>
