<?xml version="1.0" encoding="UTF-8"?>
<svg id="Camada_1" data-name="Camada 1" xmlns="http://www.w3.org/2000/svg" xmlns:xlink="http://www.w3.org/1999/xlink" viewBox="0 0 23.07 20.06">
  <defs>
    <style>
      .cls-1 {
        fill: #92acce;
        stroke-width: 0px;
      }

      .cls-2 {
        filter: url(#drop-shadow-37);
      }
    </style>
    <filter id="drop-shadow-37" filterUnits="userSpaceOnUse">
      <feOffset dx=".5" dy=".5"/>
      <feGaussianBlur result="blur" stdDeviation="0"/>
      <feFlood flood-color="#004788" flood-opacity="1"/>
      <feComposite in2="blur" operator="in"/>
      <feComposite in="SourceGraphic"/>
    </filter>
  </defs>
  <g class="cls-2">
    <path class="cls-1" d="M9.73,14.43c-.83,0-1.55-.18-2.15-.54-.61-.36-1.08-.86-1.41-1.51-.34-.65-.5-1.42-.5-2.3,0-.94.17-1.75.5-2.44s.81-1.22,1.41-1.6c.61-.38,1.32-.57,2.15-.57.72,0,1.34.19,1.87.57.53.38.94.92,1.22,1.61.29.7.43,1.52.43,2.48,0,.86-.14,1.62-.43,2.27s-.7,1.15-1.22,1.5c-.53.35-1.15.53-1.87.53ZM10.2,18.52c-.68,0-1.29-.05-1.82-.14s-.97-.22-1.33-.38c-.36-.16-.65-.31-.88-.47l.94-1.91c.17.1.39.21.67.33.28.13.61.23.99.32.38.09.83.14,1.33.14s.9-.09,1.27-.28c.37-.19.65-.47.86-.86.21-.39.32-.88.32-1.48V5.69h2.38v8.03c0,1.01-.19,1.88-.58,2.6s-.93,1.27-1.63,1.65-1.54.56-2.51.56ZM10.41,12.44c.41,0,.76-.1,1.07-.31.31-.21.54-.5.71-.86.17-.37.25-.78.25-1.25s-.09-.9-.26-1.26c-.17-.36-.41-.64-.72-.85-.31-.2-.66-.31-1.07-.31s-.79.1-1.12.31c-.32.2-.58.49-.76.85-.18.36-.28.78-.29,1.26.01.47.11.89.29,1.25.18.37.43.65.76.86s.71.31,1.12.31Z"/>
    <path class="cls-1" d="M18.97,16.49h-2.34c.56-.78,1.07-1.6,1.52-2.47.45-.87.81-1.78,1.07-2.73.26-.95.4-1.91.4-2.9s-.13-1.96-.4-2.91c-.26-.94-.62-1.85-1.07-2.73-.45-.88-.96-1.7-1.52-2.47h2.34c.56.73,1.07,1.53,1.52,2.38.45.86.81,1.76,1.07,2.72.26.95.4,1.95.4,3s-.13,2.03-.4,2.99c-.26.96-.62,1.87-1.07,2.73s-.96,1.65-1.52,2.38Z"/>
  </g>
</svg>