<?xml version="1.0" encoding="UTF-8"?>
<svg id="Camada_1" data-name="Camada 1" xmlns="http://www.w3.org/2000/svg" xmlns:xlink="http://www.w3.org/1999/xlink" viewBox="0 0 23.07 20.06">
  <defs>
    <style>
      .cls-1 {
        fill: #92acce;
        stroke-width: 0px;
      }

      .cls-2 {
        filter: url(#drop-shadow-45);
      }
    </style>
    <filter id="drop-shadow-45" filterUnits="userSpaceOnUse">
      <feOffset dx=".5" dy=".5"/>
      <feGaussianBlur result="blur" stdDeviation="0"/>
      <feFlood flood-color="#004788" flood-opacity="1"/>
      <feComposite in2="blur" operator="in"/>
      <feComposite in="SourceGraphic"/>
    </filter>
  </defs>
  <g class="cls-2">
    <path class="cls-1" d="M10.58,16.29c-.92,0-1.74-.2-2.45-.6-.71-.4-1.26-.96-1.67-1.67-.4-.71-.6-1.52-.6-2.45s.2-1.74.59-2.45c.4-.71.95-1.26,1.66-1.67.71-.4,1.52-.6,2.43-.6s1.74.2,2.45.6c.71.4,1.26.96,1.66,1.67.4.71.59,1.52.59,2.45s-.2,1.74-.59,2.45c-.4.71-.95,1.26-1.65,1.67-.7.4-1.51.6-2.42.6ZM10.58,14.09c.44,0,.83-.11,1.16-.32s.59-.51.78-.89c.19-.38.29-.81.29-1.3s-.1-.93-.29-1.3c-.19-.38-.46-.68-.8-.89-.34-.22-.73-.32-1.16-.32s-.84.11-1.18.32c-.34.22-.61.51-.8.89s-.29.81-.29,1.3.1.93.29,1.3.46.68.81.89c.35.22.74.32,1.19.32Z"/>
    <path class="cls-1" d="M18.59,17.87h-2.34c.56-.78,1.07-1.6,1.52-2.47s.81-1.78,1.07-2.73c.26-.95.4-1.91.4-2.9s-.13-1.96-.4-2.91c-.26-.94-.62-1.85-1.07-2.73s-.96-1.7-1.52-2.47h2.34c.56.73,1.07,1.53,1.52,2.39.45.86.81,1.76,1.07,2.72.26.95.4,1.95.4,3s-.13,2.03-.4,2.99c-.26.96-.62,1.87-1.07,2.73s-.96,1.65-1.52,2.38Z"/>
  </g>
</svg>