<?xml version="1.0" encoding="UTF-8"?>
<svg id="Camada_1" data-name="Camada 1" xmlns="http://www.w3.org/2000/svg" xmlns:xlink="http://www.w3.org/1999/xlink" viewBox="0 0 23.07 20.06">
  <defs>
    <style>
      .cls-1 {
        fill: #92acce;
        stroke-width: 0px;
      }

      .cls-2 {
        filter: url(#drop-shadow-44);
      }
    </style>
    <filter id="drop-shadow-44" filterUnits="userSpaceOnUse">
      <feOffset dx=".5" dy=".5"/>
      <feGaussianBlur result="blur" stdDeviation="0"/>
      <feFlood flood-color="#004788" flood-opacity="1"/>
      <feComposite in2="blur" operator="in"/>
      <feComposite in="SourceGraphic"/>
    </filter>
  </defs>
  <g class="cls-2">
    <path class="cls-1" d="M6.48,16.14V7.14h2.23l.14,1.66v7.34h-2.38ZM12.44,11.53c0-.61-.07-1.09-.21-1.42-.14-.34-.33-.58-.58-.73s-.55-.23-.88-.23c-.61-.01-1.08.17-1.41.56-.33.38-.5.95-.5,1.71h-.79c0-.96.14-1.77.42-2.44.28-.67.67-1.18,1.18-1.53.5-.35,1.1-.53,1.78-.53,1.09,0,1.93.33,2.51,1s.87,1.69.86,3.07l-2.38.54ZM12.44,16.14v-4.61l2.38-.54v5.15h-2.38Z"/>
    <path class="cls-1" d="M18.59,17.94h-2.34c.56-.78,1.07-1.6,1.52-2.47s.81-1.78,1.07-2.73c.26-.95.4-1.91.4-2.9s-.13-1.96-.4-2.91c-.26-.94-.62-1.85-1.07-2.73s-.96-1.7-1.52-2.47h2.34c.56.73,1.07,1.53,1.52,2.39.45.86.81,1.76,1.07,2.72.26.95.4,1.95.4,3s-.13,2.03-.4,2.99c-.26.96-.62,1.87-1.07,2.73s-.96,1.65-1.52,2.38Z"/>
  </g>
</svg>