<?xml version="1.0" encoding="UTF-8"?>
<svg id="Camada_1" data-name="Camada 1" xmlns="http://www.w3.org/2000/svg" xmlns:xlink="http://www.w3.org/1999/xlink" viewBox="0 0 23.07 20.06">
  <defs>
    <style>
      .cls-1 {
        fill: #92acce;
        stroke-width: 0px;
      }

      .cls-2 {
        filter: url(#drop-shadow-36);
      }
    </style>
    <filter id="drop-shadow-36" filterUnits="userSpaceOnUse">
      <feOffset dx=".5" dy=".5"/>
      <feGaussianBlur result="blur" stdDeviation="0"/>
      <feFlood flood-color="#004788" flood-opacity="1"/>
      <feComposite in2="blur" operator="in"/>
      <feComposite in="SourceGraphic"/>
    </filter>
  </defs>
  <g class="cls-2">
    <path class="cls-1" d="M9.3,8.69v-1.91h6.08v1.91h-6.08ZM10.79,15.78V5.88c0-.96.25-1.71.74-2.24.49-.53,1.24-.8,2.25-.8.35,0,.72.06,1.11.18.39.12.75.26,1.07.43l-.88,1.71c-.19-.1-.37-.17-.52-.22-.16-.05-.3-.07-.43-.07-.32,0-.56.11-.72.33-.16.22-.23.58-.23,1.07v9.5h-2.38Z"/>
    <path class="cls-1" d="M18.97,17.58h-2.34c.56-.78,1.07-1.6,1.52-2.47.45-.87.81-1.78,1.07-2.73.26-.95.4-1.91.4-2.9s-.13-1.96-.4-2.91c-.26-.94-.62-1.85-1.07-2.73-.45-.88-.96-1.7-1.52-2.47h2.34c.56.73,1.07,1.53,1.52,2.38.45.86.81,1.76,1.07,2.72.26.95.4,1.95.4,3s-.13,2.03-.4,2.99c-.26.96-.62,1.87-1.07,2.73s-.96,1.65-1.52,2.38Z"/>
  </g>
</svg>