<?xml version="1.0" encoding="UTF-8"?>
<svg id="Camada_1" data-name="Camada 1" xmlns="http://www.w3.org/2000/svg" xmlns:xlink="http://www.w3.org/1999/xlink" viewBox="0 0 23.07 20.06">
  <defs>
    <style>
      .cls-1 {
        fill: #92acce;
        stroke-width: 0px;
      }

      .cls-2 {
        filter: url(#drop-shadow-49);
      }
    </style>
    <filter id="drop-shadow-49" filterUnits="userSpaceOnUse">
      <feOffset dx=".5" dy=".5"/>
      <feGaussianBlur result="blur" stdDeviation="0"/>
      <feFlood flood-color="#004788" flood-opacity="1"/>
      <feComposite in2="blur" operator="in"/>
      <feComposite in="SourceGraphic"/>
    </filter>
  </defs>
  <g class="cls-2">
    <path class="cls-1" d="M11.57,16c-.58,0-1.12-.09-1.62-.26-.5-.17-.95-.43-1.33-.76-.38-.33-.68-.74-.9-1.21l2.03-.94c.18.29.43.54.74.75.31.21.67.32,1.08.32s.7-.06.92-.17c.22-.11.32-.28.32-.5s-.09-.38-.26-.48c-.17-.1-.41-.19-.71-.26l-.83-.22c-.86-.23-1.54-.59-2.04-1.09s-.75-1.07-.75-1.72c0-.92.3-1.64.89-2.14.59-.5,1.44-.76,2.53-.76.56,0,1.09.08,1.58.25s.9.4,1.25.7c.35.3.59.65.72,1.04l-1.96.9c-.08-.24-.29-.43-.61-.58-.32-.15-.65-.22-.97-.22s-.57.07-.75.21-.26.33-.26.57c0,.16.08.29.25.39s.41.19.72.26l1.17.29c.59.14,1.06.38,1.41.69.35.32.61.67.77,1.06.16.39.24.77.24,1.14,0,.54-.16,1.02-.48,1.43s-.75.74-1.3.96-1.17.34-1.86.34Z"/>
    <path class="cls-1" d="M18.59,17.58h-2.34c.56-.78,1.07-1.6,1.52-2.47s.81-1.78,1.07-2.73c.26-.95.4-1.91.4-2.9s-.13-1.96-.4-2.91c-.26-.94-.62-1.85-1.07-2.73s-.96-1.7-1.52-2.47h2.34c.56.73,1.07,1.53,1.52,2.39.45.86.81,1.76,1.07,2.72.26.95.4,1.95.4,3s-.13,2.03-.4,2.99c-.26.96-.62,1.87-1.07,2.73s-.96,1.65-1.52,2.38Z"/>
  </g>
</svg>