<?xml version="1.0" encoding="UTF-8"?>
<svg id="Camada_1" data-name="Camada 1" xmlns="http://www.w3.org/2000/svg" xmlns:xlink="http://www.w3.org/1999/xlink" viewBox="0 0 23.07 20.06">
  <defs>
    <style>
      .cls-1 {
        fill: #92acce;
        stroke-width: 0px;
      }

      .cls-2 {
        filter: url(#drop-shadow-34);
      }
    </style>
    <filter id="drop-shadow-34" filterUnits="userSpaceOnUse">
      <feOffset dx=".5" dy=".5"/>
      <feGaussianBlur result="blur" stdDeviation="0"/>
      <feFlood flood-color="#004788" flood-opacity="1"/>
      <feComposite in2="blur" operator="in"/>
      <feComposite in="SourceGraphic"/>
    </filter>
  </defs>
  <g class="cls-2">
    <path class="cls-1" d="M9.84,16.14c-.83,0-1.55-.19-2.15-.58-.61-.38-1.08-.93-1.41-1.64s-.5-1.54-.5-2.5.17-1.81.5-2.51c.34-.7.81-1.24,1.41-1.63.61-.38,1.32-.58,2.15-.58.76,0,1.39.19,1.92.58.52.38.92.93,1.2,1.63.28.7.41,1.54.41,2.51s-.14,1.79-.41,2.5c-.28.71-.67,1.25-1.2,1.64-.52.38-1.16.58-1.92.58ZM10.45,13.96c.41,0,.77-.11,1.09-.32.32-.22.57-.52.75-.9.18-.38.27-.82.27-1.31s-.09-.93-.27-1.31c-.18-.38-.43-.68-.75-.89-.32-.21-.69-.31-1.11-.31s-.81.1-1.13.31c-.32.21-.58.51-.77.89-.19.38-.29.82-.29,1.31s.1.93.29,1.31c.19.38.45.68.78.9.33.22.71.32,1.14.32ZM12.66,15.93l-.13-1.67V3.33h2.38v12.6h-2.25Z"/>
    <path class="cls-1" d="M18.97,17.73h-2.34c.56-.78,1.07-1.6,1.52-2.47.45-.87.81-1.78,1.07-2.73.26-.95.4-1.91.4-2.9s-.13-1.96-.4-2.91c-.26-.94-.62-1.85-1.07-2.73-.45-.88-.96-1.7-1.52-2.47h2.34c.56.73,1.07,1.53,1.52,2.38.45.86.81,1.76,1.07,2.72.26.95.4,1.95.4,3s-.13,2.03-.4,2.99c-.26.96-.62,1.87-1.07,2.73s-.96,1.65-1.52,2.38Z"/>
  </g>
</svg>