<?xml version="1.0" encoding="UTF-8"?>
<svg id="Camada_1" data-name="Camada 1" xmlns="http://www.w3.org/2000/svg" xmlns:xlink="http://www.w3.org/1999/xlink" viewBox="0 0 23 20">
  <defs>
    <style>
      .cls-1 {
        fill: #92acce;
        stroke-width: 0px;
      }

      .cls-2 {
        filter: url(#drop-shadow-40);
      }
    </style>
    <filter id="drop-shadow-40" filterUnits="userSpaceOnUse">
      <feOffset dx=".5" dy=".5"/>
      <feGaussianBlur result="blur" stdDeviation="0"/>
      <feFlood flood-color="#004788" flood-opacity="1"/>
      <feComposite in2="blur" operator="in"/>
      <feComposite in="SourceGraphic"/>
    </filter>
  </defs>
  <g class="cls-2">
    <path class="cls-1" d="M11.69,19.14c-.68,0-1.34-.19-1.96-.56l.95-1.96c.19.1.37.17.53.23.16.05.3.08.42.08.58,0,.86-.38.86-1.13V6.26h2.38v9.68c0,1.02-.28,1.81-.83,2.36-.55.55-1.34.83-2.36.83ZM13.69,4.86c-.38,0-.71-.14-.99-.41-.28-.28-.41-.61-.41-.99s.14-.71.41-.99c.28-.28.61-.41.99-.41s.71.14.99.41.41.61.41.99-.14.71-.41.99-.61.41-.99.41Z"/>
    <path class="cls-1" d="M19.11,17.06h-2.34c.56-.78,1.07-1.6,1.52-2.47.45-.87.81-1.78,1.07-2.73.26-.95.4-1.91.4-2.9s-.13-1.96-.4-2.91c-.26-.94-.62-1.85-1.07-2.73-.45-.88-.96-1.7-1.52-2.47h2.34c.56.73,1.07,1.53,1.52,2.38.45.86.81,1.76,1.07,2.72.26.95.4,1.95.4,3s-.13,2.03-.4,2.99c-.26.96-.62,1.87-1.07,2.73s-.96,1.65-1.52,2.38Z"/>
  </g>
</svg>