<?xml version="1.0" encoding="UTF-8"?>
<svg id="Camada_1" data-name="Camada 1" xmlns="http://www.w3.org/2000/svg" xmlns:xlink="http://www.w3.org/1999/xlink" viewBox="0 0 23.07 20.06">
  <defs>
    <style>
      .cls-1 {
        fill: #92acce;
        stroke-width: 0px;
      }

      .cls-2 {
        filter: url(#drop-shadow-46);
      }
    </style>
    <filter id="drop-shadow-46" filterUnits="userSpaceOnUse">
      <feOffset dx=".5" dy=".5"/>
      <feGaussianBlur result="blur" stdDeviation="0"/>
      <feFlood flood-color="#004788" flood-opacity="1"/>
      <feComposite in2="blur" operator="in"/>
      <feComposite in="SourceGraphic"/>
    </filter>
  </defs>
  <g class="cls-2">
    <path class="cls-1" d="M6.08,18.7V6.1h2.23l.14,1.66v10.94h-2.38ZM11.18,15.31c-.76,0-1.39-.19-1.92-.58-.52-.38-.92-.93-1.2-1.64s-.41-1.54-.41-2.5.14-1.81.41-2.51.68-1.25,1.2-1.63c.52-.38,1.16-.58,1.92-.58.83,0,1.54.19,2.15.58.61.38,1.08.93,1.41,1.63.33.7.5,1.54.5,2.51s-.17,1.79-.5,2.5c-.34.71-.81,1.25-1.41,1.64-.61.38-1.32.58-2.15.58ZM10.57,13.14c.43,0,.81-.11,1.14-.32s.59-.52.78-.9c.19-.38.29-.82.29-1.31s-.09-.93-.28-1.3c-.19-.38-.44-.68-.77-.89s-.71-.32-1.14-.32c-.41,0-.77.11-1.1.32-.32.22-.58.51-.76.89-.18.38-.27.81-.27,1.3s.09.93.27,1.31c.18.38.43.68.75.9s.68.32,1.09.32Z"/>
    <path class="cls-1" d="M18.59,16.9h-2.34c.56-.78,1.07-1.6,1.52-2.47s.81-1.78,1.07-2.73c.26-.95.4-1.91.4-2.9s-.13-1.96-.4-2.91c-.26-.94-.62-1.85-1.07-2.73s-.96-1.7-1.52-2.47h2.34c.56.73,1.07,1.53,1.52,2.39.45.86.81,1.76,1.07,2.72.26.95.4,1.95.4,3s-.13,2.03-.4,2.99c-.26.96-.62,1.87-1.07,2.73s-.96,1.65-1.52,2.38Z"/>
  </g>
</svg>