<?xml version="1.0" encoding="UTF-8"?>
<svg id="Camada_1" data-name="Camada 1" xmlns="http://www.w3.org/2000/svg" xmlns:xlink="http://www.w3.org/1999/xlink" viewBox="0 0 33.1 33.1">
  <defs>
    <style>
      .cls-1 {
        mask: url(#mask);
      }

      .cls-2 {
        fill: #fc9e49;
      }

      .cls-2, .cls-3, .cls-4, .cls-5 {
        stroke-width: 0px;
      }

      .cls-3 {
        fill: url(#Gradiente_sem_nome_3);
      }

      .cls-4 {
        fill: #d9d9d9;
      }

      .cls-5 {
        fill: #fff;
      }
    </style>
    <mask id="mask" x="-6.83" y="-1.61" width="40.2" height="39.74" maskUnits="userSpaceOnUse">
      <g id="mask0_88_68" data-name="mask0 88 68">
        <rect class="cls-4" x="-16.77" y="12.77" width="31.38" height="1.31" transform="translate(-13.42 8.01) rotate(-70.91)"/>
        <rect class="cls-4" x="-14.16" y="13.65" width="31.38" height="1.31" transform="translate(-12.49 11.07) rotate(-70.91)"/>
        <rect class="cls-4" x="-11.55" y="14.53" width="31.38" height="1.31" transform="translate(-11.57 14.13) rotate(-70.91)"/>
        <rect class="cls-4" x="-8.94" y="15.41" width="31.38" height="1.31" transform="translate(-10.64 17.18) rotate(-70.91)"/>
        <rect class="cls-4" x="-6.33" y="16.29" width="31.38" height="1.31" transform="translate(-9.71 20.24) rotate(-70.91)"/>
        <rect class="cls-4" x="-3.72" y="17.17" width="31.38" height="1.31" transform="translate(-8.79 23.3) rotate(-70.91)"/>
        <rect class="cls-4" x="-1.11" y="18.05" width="31.38" height="1.31" transform="translate(-7.86 26.36) rotate(-70.91)"/>
        <rect class="cls-4" x="1.5" y="18.92" width="31.38" height="1.31" transform="translate(-6.94 29.41) rotate(-70.91)"/>
        <rect class="cls-4" x="4.1" y="19.8" width="31.38" height="1.31" transform="translate(-6.01 32.47) rotate(-70.91)"/>
        <rect class="cls-4" x="6.71" y="20.68" width="31.38" height="1.31" transform="translate(-5.09 35.53) rotate(-70.91)"/>
        <rect class="cls-4" x="9.32" y="21.56" width="31.38" height="1.31" transform="translate(-4.16 38.58) rotate(-70.91)"/>
        <rect class="cls-4" x="11.93" y="22.44" width="31.38" height="1.31" transform="translate(-3.23 41.64) rotate(-70.91)"/>
      </g>
    </mask>
    <linearGradient id="Gradiente_sem_nome_3" data-name="Gradiente sem nome 3" x1=".05" y1="476.95" x2="28.36" y2="476.95" gradientTransform="translate(0 495.84) scale(1 -1)" gradientUnits="userSpaceOnUse">
      <stop offset=".33" stop-color="#92acce"/>
      <stop offset="1" stop-color="#fc9e49"/>
    </linearGradient>
  </defs>
  <g class="cls-1">
    <circle class="cls-3" cx="14.2" cy="18.89" r="14.15"/>
  </g>
  <g>
    <circle class="cls-2" cx="18.89" cy="14.2" r="14.15"/>
    <g>
      <path class="cls-5" d="M16.97,18.13l-2.01-1.08c0-.29.09-.61.27-.96.18-.35.43-.7.75-1.05.32-.35.69-.68,1.12-.98l1.59-1.14c.22-.15.43-.32.62-.51.2-.19.36-.4.48-.62s.19-.44.19-.65c0-.26-.06-.5-.19-.71s-.31-.38-.55-.5c-.24-.12-.54-.18-.88-.18-.3,0-.57.06-.8.18-.23.12-.43.28-.58.48-.15.2-.25.42-.32.65l-2.11-.36c.1-.5.31-.96.64-1.4s.76-.78,1.3-1.04c.53-.27,1.14-.4,1.82-.4.78,0,1.45.14,2.01.42.56.28.99.66,1.3,1.15.3.48.46,1.05.46,1.69s-.18,1.23-.53,1.73c-.36.5-.84.98-1.46,1.42l-1.42,1.04c-.29.19-.56.42-.83.68-.26.26-.47.57-.63.91-.16.35-.24.75-.24,1.22ZM14.96,18.56v-1.52l1.53-.28h5.73v1.8h-7.26Z"/>
      <path class="cls-5" d="M24.74,18.79c-.33,0-.61-.12-.85-.36-.24-.24-.35-.53-.35-.86s.12-.6.35-.84c.23-.24.52-.36.85-.36s.61.12.85.36c.24.24.35.52.35.84s-.12.62-.35.86c-.23.24-.52.36-.85.36Z"/>
    </g>
  </g>
</svg>