<?xml version="1.0" encoding="UTF-8"?>
<svg id="Camada_1" data-name="Camada 1" xmlns="http://www.w3.org/2000/svg" xmlns:xlink="http://www.w3.org/1999/xlink" viewBox="0 0 23 20">
  <defs>
    <style>
      .cls-1 {
        fill: #92acce;
        stroke-width: 0px;
      }

      .cls-2 {
        filter: url(#drop-shadow-55);
      }
    </style>
    <filter id="drop-shadow-55" filterUnits="userSpaceOnUse">
      <feOffset dx=".5" dy=".5"/>
      <feGaussianBlur result="blur" stdDeviation="0"/>
      <feFlood flood-color="#004788" flood-opacity="1"/>
      <feComposite in2="blur" operator="in"/>
      <feComposite in="SourceGraphic"/>
    </filter>
  </defs>
  <g class="cls-2">
    <path class="cls-1" d="M9.75,15.29L5.62,6.29h2.61l3.01,7.31.77,1.69h-2.27ZM8.38,19.11c-.32,0-.68-.06-1.07-.19s-.74-.27-1.04-.44l.88-1.93c.2.11.39.2.57.26.17.07.33.1.46.1.25,0,.47-.07.67-.21.19-.14.35-.34.47-.6l1.06-2.5,2.86-7.31h2.61l-4.09,9.77c-.25.6-.52,1.13-.79,1.59s-.62.82-1.02,1.07c-.4.25-.93.38-1.58.38Z"/>
    <path class="cls-1" d="M18.94,17.09h-2.34c.56-.78,1.07-1.6,1.52-2.47s.81-1.78,1.07-2.73c.26-.95.4-1.91.4-2.9s-.13-1.96-.4-2.91c-.26-.94-.62-1.85-1.07-2.73s-.96-1.7-1.52-2.47h2.34c.56.73,1.07,1.53,1.52,2.39.45.86.81,1.76,1.07,2.72.26.95.4,1.95.4,3s-.13,2.03-.4,2.99c-.26.96-.62,1.87-1.07,2.73s-.96,1.65-1.52,2.38Z"/>
  </g>
</svg>