<?xml version="1.0" encoding="UTF-8"?>
<svg id="Camada_1" data-name="Camada 1" xmlns="http://www.w3.org/2000/svg" xmlns:xlink="http://www.w3.org/1999/xlink" viewBox="0 0 33.1 33.1">
  <defs>
    <style>
      .cls-1 {
        mask: url(#mask);
      }

      .cls-2 {
        fill: #fc9e49;
      }

      .cls-2, .cls-3, .cls-4, .cls-5 {
        stroke-width: 0px;
      }

      .cls-3 {
        fill: url(#Gradiente_sem_nome_3);
      }

      .cls-4 {
        fill: #d9d9d9;
      }

      .cls-5 {
        fill: #fff;
      }
    </style>
    <mask id="mask" x="-6.83" y="-1.61" width="40.2" height="39.74" maskUnits="userSpaceOnUse">
      <g id="mask0_88_68" data-name="mask0 88 68">
        <rect class="cls-4" x="-16.77" y="12.77" width="31.38" height="1.31" transform="translate(-13.42 8.01) rotate(-70.91)"/>
        <rect class="cls-4" x="-14.16" y="13.65" width="31.38" height="1.31" transform="translate(-12.49 11.07) rotate(-70.91)"/>
        <rect class="cls-4" x="-11.55" y="14.53" width="31.38" height="1.31" transform="translate(-11.57 14.13) rotate(-70.91)"/>
        <rect class="cls-4" x="-8.94" y="15.41" width="31.38" height="1.31" transform="translate(-10.64 17.18) rotate(-70.91)"/>
        <rect class="cls-4" x="-6.33" y="16.29" width="31.38" height="1.31" transform="translate(-9.71 20.24) rotate(-70.91)"/>
        <rect class="cls-4" x="-3.72" y="17.17" width="31.38" height="1.31" transform="translate(-8.79 23.3) rotate(-70.91)"/>
        <rect class="cls-4" x="-1.11" y="18.05" width="31.38" height="1.31" transform="translate(-7.86 26.36) rotate(-70.91)"/>
        <rect class="cls-4" x="1.5" y="18.92" width="31.38" height="1.31" transform="translate(-6.94 29.41) rotate(-70.91)"/>
        <rect class="cls-4" x="4.1" y="19.8" width="31.38" height="1.31" transform="translate(-6.01 32.47) rotate(-70.91)"/>
        <rect class="cls-4" x="6.71" y="20.68" width="31.38" height="1.31" transform="translate(-5.09 35.53) rotate(-70.91)"/>
        <rect class="cls-4" x="9.32" y="21.56" width="31.38" height="1.31" transform="translate(-4.16 38.58) rotate(-70.91)"/>
        <rect class="cls-4" x="11.93" y="22.44" width="31.38" height="1.31" transform="translate(-3.23 41.64) rotate(-70.91)"/>
      </g>
    </mask>
    <linearGradient id="Gradiente_sem_nome_3" data-name="Gradiente sem nome 3" x1=".05" y1="250.69" x2="28.36" y2="250.69" gradientTransform="translate(0 269.58) scale(1 -1)" gradientUnits="userSpaceOnUse">
      <stop offset=".33" stop-color="#92acce"/>
      <stop offset="1" stop-color="#fc9e49"/>
    </linearGradient>
  </defs>
  <g class="cls-1">
    <circle class="cls-3" cx="14.2" cy="18.89" r="14.15"/>
  </g>
  <g>
    <circle class="cls-2" cx="18.89" cy="14.2" r="14.15"/>
    <g>
      <path class="cls-5" d="M18.57,18.74c-.48,0-.97-.08-1.48-.24-.51-.16-.96-.4-1.37-.72-.41-.32-.7-.71-.89-1.19l1.88-.56c.22.32.48.56.79.71s.62.23.95.23c.52,0,.94-.16,1.27-.47.32-.31.49-.74.49-1.27,0-.49-.16-.9-.47-1.23-.32-.33-.73-.5-1.25-.5-.31,0-.59.07-.85.21-.26.14-.46.31-.6.5l-1.84-.4.63-5.75h5.94v1.86h-5.64l-.3-1.8h2.04l-.83,5.88-1.09-.19c.09-.18.23-.38.42-.59.19-.21.43-.42.71-.62.29-.2.61-.36.97-.48.36-.12.76-.17,1.2-.17.57,0,1.09.14,1.56.41.47.28.84.65,1.12,1.12.28.48.41,1.03.41,1.66,0,.71-.16,1.33-.48,1.88s-.76.96-1.32,1.27c-.56.3-1.21.46-1.95.46Z"/>
      <path class="cls-5" d="M24.75,18.79c-.33,0-.61-.12-.85-.36-.24-.24-.35-.53-.35-.86s.12-.6.35-.84c.23-.24.52-.36.85-.36s.61.12.85.36c.24.24.35.52.35.84s-.12.62-.35.86c-.23.24-.52.36-.85.36Z"/>
    </g>
  </g>
</svg>