<?xml version="1.0" encoding="UTF-8"?>
<svg id="Camada_1" data-name="Camada 1" xmlns="http://www.w3.org/2000/svg" xmlns:xlink="http://www.w3.org/1999/xlink" viewBox="0 0 23.07 20.06">
  <defs>
    <style>
      .cls-1 {
        fill: #92acce;
        stroke-width: 0px;
      }

      .cls-2 {
        filter: url(#drop-shadow-31);
      }
    </style>
    <filter id="drop-shadow-31" filterUnits="userSpaceOnUse">
      <feOffset dx=".5" dy=".5"/>
      <feGaussianBlur result="blur" stdDeviation="0"/>
      <feFlood flood-color="#004788" flood-opacity="1"/>
      <feComposite in2="blur" operator="in"/>
      <feComposite in="SourceGraphic"/>
    </filter>
  </defs>
  <g class="cls-2">
    <path class="cls-1" d="M10.29,16.36c-1.08,0-1.92-.24-2.51-.72-.59-.48-.89-1.16-.89-2.03,0-.96.32-1.68.96-2.17s1.54-.73,2.71-.73h2.29v1.76h-1.46c-.78,0-1.32.09-1.62.28s-.45.45-.45.78c0,.26.12.47.36.62s.58.22,1.01.22c.38,0,.73-.09,1.03-.28.3-.19.54-.43.71-.72.17-.29.26-.6.26-.91h.63c0,1.22-.24,2.18-.71,2.86s-1.25,1.03-2.31,1.03ZM12.77,16.14l-.09-1.82v-2.74c0-.54-.06-1-.18-1.38-.12-.38-.3-.67-.55-.86-.25-.2-.57-.3-.98-.3-.36,0-.68.08-.97.23s-.53.41-.74.76l-2.16-.74c.17-.38.41-.76.74-1.12s.75-.67,1.27-.9c.52-.23,1.16-.35,1.92-.35.9,0,1.65.16,2.26.49.61.32,1.06.8,1.36,1.43.3.63.44,1.4.43,2.31l-.05,4.99h-2.25Z"/>
    <path class="cls-1" d="M18.97,17.94h-2.34c.56-.78,1.07-1.6,1.52-2.47.45-.87.81-1.78,1.07-2.73.26-.95.4-1.91.4-2.9s-.13-1.96-.4-2.91c-.26-.94-.62-1.85-1.07-2.73-.45-.88-.96-1.7-1.52-2.47h2.34c.56.73,1.07,1.53,1.52,2.38.45.86.81,1.76,1.07,2.72.26.95.4,1.95.4,3s-.13,2.03-.4,2.99c-.26.96-.62,1.87-1.07,2.73s-.96,1.65-1.52,2.38Z"/>
  </g>
</svg>