<?xml version="1.0" encoding="UTF-8"?>
<svg id="Camada_1" data-name="Camada 1" xmlns="http://www.w3.org/2000/svg" xmlns:xlink="http://www.w3.org/1999/xlink" viewBox="0 0 33.1 33.1">
  <defs>
    <style>
      .cls-1 {
        mask: url(#mask);
      }

      .cls-2 {
        fill: #fc9e49;
      }

      .cls-2, .cls-3, .cls-4, .cls-5 {
        stroke-width: 0px;
      }

      .cls-3 {
        fill: url(#Gradiente_sem_nome_3);
      }

      .cls-4 {
        fill: #d9d9d9;
      }

      .cls-5 {
        fill: #fff;
      }
    </style>
    <mask id="mask" x="-6.83" y="-1.61" width="40.2" height="39.74" maskUnits="userSpaceOnUse">
      <g id="mask0_88_68" data-name="mask0 88 68">
        <rect class="cls-4" x="-16.77" y="12.77" width="31.38" height="1.31" transform="translate(-13.42 8.01) rotate(-70.91)"/>
        <rect class="cls-4" x="-14.16" y="13.65" width="31.38" height="1.31" transform="translate(-12.49 11.07) rotate(-70.91)"/>
        <rect class="cls-4" x="-11.55" y="14.53" width="31.38" height="1.31" transform="translate(-11.57 14.13) rotate(-70.91)"/>
        <rect class="cls-4" x="-8.94" y="15.41" width="31.38" height="1.31" transform="translate(-10.64 17.18) rotate(-70.91)"/>
        <rect class="cls-4" x="-6.33" y="16.29" width="31.38" height="1.31" transform="translate(-9.71 20.24) rotate(-70.91)"/>
        <rect class="cls-4" x="-3.72" y="17.17" width="31.38" height="1.31" transform="translate(-8.79 23.3) rotate(-70.91)"/>
        <rect class="cls-4" x="-1.11" y="18.05" width="31.38" height="1.31" transform="translate(-7.86 26.36) rotate(-70.91)"/>
        <rect class="cls-4" x="1.5" y="18.92" width="31.38" height="1.31" transform="translate(-6.94 29.41) rotate(-70.91)"/>
        <rect class="cls-4" x="4.1" y="19.8" width="31.38" height="1.31" transform="translate(-6.01 32.47) rotate(-70.91)"/>
        <rect class="cls-4" x="6.71" y="20.68" width="31.38" height="1.31" transform="translate(-5.09 35.53) rotate(-70.91)"/>
        <rect class="cls-4" x="9.32" y="21.56" width="31.38" height="1.31" transform="translate(-4.16 38.58) rotate(-70.91)"/>
        <rect class="cls-4" x="11.93" y="22.44" width="31.38" height="1.31" transform="translate(-3.23 41.64) rotate(-70.91)"/>
      </g>
    </mask>
    <linearGradient id="Gradiente_sem_nome_3" data-name="Gradiente sem nome 3" x1=".05" y1="331.48" x2="28.36" y2="331.48" gradientTransform="translate(0 350.37) scale(1 -1)" gradientUnits="userSpaceOnUse">
      <stop offset=".33" stop-color="#92acce"/>
      <stop offset="1" stop-color="#fc9e49"/>
    </linearGradient>
  </defs>
  <g class="cls-1">
    <circle class="cls-3" cx="14.2" cy="18.89" r="14.15"/>
  </g>
  <g>
    <circle class="cls-2" cx="18.89" cy="14.2" r="14.15"/>
    <g>
      <path class="cls-5" d="M15.66,15.67l-1.49-.81,4.65-6.79,1.23,1.15-4.39,6.45ZM14.18,16.49v-1.64l1.16-.12h7.5v1.76h-8.66ZM19.07,18.56v-9.38l-.23-1.12h2.16v10.5h-1.93Z"/>
      <path class="cls-5" d="M25.14,18.79c-.33,0-.61-.12-.85-.36-.24-.24-.35-.53-.35-.86s.12-.6.35-.84c.23-.24.52-.36.85-.36s.61.12.85.36c.24.24.35.52.35.84s-.12.62-.35.86c-.23.24-.52.36-.85.36Z"/>
    </g>
  </g>
</svg>