<?xml version="1.0" encoding="UTF-8"?>
<svg id="Camada_1" data-name="Camada 1" xmlns="http://www.w3.org/2000/svg" xmlns:xlink="http://www.w3.org/1999/xlink" viewBox="0 0 23.07 20.06">
  <defs>
    <style>
      .cls-1 {
        fill: #92acce;
        stroke-width: 0px;
      }

      .cls-2 {
        filter: url(#drop-shadow-35);
      }
    </style>
    <filter id="drop-shadow-35" filterUnits="userSpaceOnUse">
      <feOffset dx=".5" dy=".5"/>
      <feGaussianBlur result="blur" stdDeviation="0"/>
      <feFlood flood-color="#004788" flood-opacity="1"/>
      <feComposite in2="blur" operator="in"/>
      <feComposite in="SourceGraphic"/>
    </filter>
  </defs>
  <g class="cls-2">
    <path class="cls-1" d="M11.28,16.07c-.89,0-1.67-.2-2.36-.6-.68-.4-1.22-.96-1.61-1.66s-.58-1.52-.58-2.45.2-1.74.6-2.45c.4-.71.95-1.26,1.66-1.66.7-.4,1.51-.6,2.42-.6.78,0,1.5.21,2.17.62.67.41,1.2,1.02,1.61,1.82s.61,1.77.61,2.91h-2.41c.01-.79-.07-1.42-.24-1.9-.17-.47-.42-.82-.73-1.03-.31-.21-.68-.31-1.1-.31-.47,0-.86.1-1.19.29-.32.19-.57.48-.73.87-.16.39-.24.9-.24,1.52,0,.54.11.99.32,1.35.22.36.5.63.86.82.36.19.76.28,1.19.28.47,0,.85-.1,1.14-.31.29-.2.52-.47.67-.79l2.23.86c-.25.5-.58.94-.98,1.3-.4.37-.88.65-1.43.84-.55.19-1.18.29-1.89.29ZM8.27,11.98l.02-1.85h6.34v1.85h-6.35Z"/>
    <path class="cls-1" d="M18.97,17.65h-2.34c.56-.78,1.07-1.6,1.52-2.47.45-.87.81-1.78,1.07-2.73.26-.95.4-1.91.4-2.9s-.13-1.96-.4-2.91c-.26-.94-.62-1.85-1.07-2.73-.45-.88-.96-1.7-1.52-2.47h2.34c.56.73,1.07,1.53,1.52,2.38.45.86.81,1.76,1.07,2.72.26.95.4,1.95.4,3s-.13,2.03-.4,2.99c-.26.96-.62,1.87-1.07,2.73s-.96,1.65-1.52,2.38Z"/>
  </g>
</svg>