<?xml version="1.0" encoding="UTF-8"?>
<svg id="Camada_1" data-name="Camada 1" xmlns="http://www.w3.org/2000/svg" xmlns:xlink="http://www.w3.org/1999/xlink" viewBox="0 0 23.07 20.06">
  <defs>
    <style>
      .cls-1 {
        fill: #92acce;
        stroke-width: 0px;
      }

      .cls-2 {
        filter: url(#drop-shadow-33);
      }
    </style>
    <filter id="drop-shadow-33" filterUnits="userSpaceOnUse">
      <feOffset dx=".5" dy=".5"/>
      <feGaussianBlur result="blur" stdDeviation="0"/>
      <feFlood flood-color="#004788" flood-opacity="1"/>
      <feComposite in2="blur" operator="in"/>
      <feComposite in="SourceGraphic"/>
    </filter>
  </defs>
  <g class="cls-2">
    <path class="cls-1" d="M11.69,16.21c-.94,0-1.77-.2-2.5-.6-.73-.4-1.3-.96-1.71-1.67-.41-.71-.61-1.53-.61-2.44s.2-1.74.61-2.45c.41-.71.97-1.26,1.69-1.66.72-.4,1.55-.6,2.48-.6s1.72.22,2.47.67,1.28,1.09,1.62,1.93l-2.23.79c-.17-.35-.43-.63-.78-.84-.35-.21-.75-.31-1.18-.31s-.83.1-1.17.31-.6.5-.79.87-.29.8-.29,1.3.1.92.29,1.29.46.66.81.87c.35.22.74.32,1.19.32s.83-.11,1.18-.34c.35-.23.62-.53.78-.9l2.25.79c-.35.85-.89,1.51-1.63,1.98-.74.47-1.56.7-2.47.7Z"/>
    <path class="cls-1" d="M18.97,17.8h-2.34c.56-.78,1.07-1.6,1.52-2.47.45-.87.81-1.78,1.07-2.73.26-.95.4-1.91.4-2.9s-.13-1.96-.4-2.91c-.26-.94-.62-1.85-1.07-2.73-.45-.88-.96-1.7-1.52-2.47h2.34c.56.73,1.07,1.53,1.52,2.38.45.86.81,1.76,1.07,2.72.26.95.4,1.95.4,3s-.13,2.03-.4,2.99c-.26.96-.62,1.87-1.07,2.73s-.96,1.65-1.52,2.38Z"/>
  </g>
</svg>