<?xml version="1.0" encoding="UTF-8"?><svg id="Camada_2" xmlns="http://www.w3.org/2000/svg" xmlns:xlink="http://www.w3.org/1999/xlink" viewBox="0 0 41 41"><defs><style>.cls-1{fill:#fff;stroke:url(#Gradiente_sem_nome_6);stroke-miterlimit:10;}.cls-2{fill:url(#Gradiente_sem_nome_6-2);stroke-width:0px;}</style><linearGradient id="Gradiente_sem_nome_6" x1="0" y1="20.5" x2="41" y2="20.5" gradientUnits="userSpaceOnUse"><stop offset="0" stop-color="#004788"/><stop offset=".16" stop-color="#044989"/><stop offset=".33" stop-color="#10528f"/><stop offset=".5" stop-color="#246099"/><stop offset=".66" stop-color="#4073a7"/><stop offset=".83" stop-color="#658db8"/><stop offset="1" stop-color="#91abcd"/><stop offset="1" stop-color="#92acce"/></linearGradient><linearGradient id="Gradiente_sem_nome_6-2" x1="3.88" x2="37.12" xlink:href="#Gradiente_sem_nome_6"/></defs><g id="Camada_1-2"><circle id="Elipse_21" class="cls-1" cx="20.5" cy="20.5" r="20"/><path class="cls-2" d="M20.5,11.14c5.17,0,9.36,4.19,9.36,9.36s-4.19,9.36-9.36,9.36-9.36-4.19-9.36-9.36,4.19-9.36,9.36-9.36ZM21.64,32.35v3.67c0,.61-.49,1.1-1.1,1.1h-.09c-.61,0-1.1-.49-1.1-1.1v-3.67c0-.61.49-1.1,1.1-1.1h.09c.61,0,1.1.49,1.1,1.1ZM12.93,29.69l-2.59,2.59c-.43.43-1.13.43-1.56,0l-.06-.06c-.43-.43-.43-1.13,0-1.56l2.59-2.59c.43-.43,1.13-.43,1.56,0l.06.06c.43.43.43,1.13,0,1.56ZM8.65,21.64h-3.67c-.61,0-1.1-.49-1.1-1.1v-.09c0-.61.49-1.1,1.1-1.1h3.67c.61,0,1.1.49,1.1,1.1v.09c0,.61-.49,1.1-1.1,1.1ZM11.31,12.93l-2.59-2.59c-.43-.43-.43-1.13,0-1.56l.06-.06c.43-.43,1.13-.43,1.56,0l2.59,2.59c.43.43.43,1.13,0,1.56l-.06.06c-.43.43-1.13.43-1.56,0ZM19.36,8.65v-3.67c0-.61.49-1.1,1.1-1.1h.09c.61,0,1.1.49,1.1,1.1v3.67c0,.61-.49,1.1-1.1,1.1h-.09c-.61,0-1.1-.49-1.1-1.1ZM28.07,11.31l2.59-2.59c.43-.43,1.13-.43,1.56,0l.06.06c.43.43.43,1.13,0,1.56l-2.59,2.59c-.43.43-1.13.43-1.56,0l-.06-.06c-.43-.43-.43-1.13,0-1.56ZM32.35,19.36h3.67c.61,0,1.1.49,1.1,1.1v.09c0,.61-.49,1.1-1.1,1.1h-3.67c-.61,0-1.1-.49-1.1-1.1v-.09c0-.61.49-1.1,1.1-1.1ZM29.69,28.07l2.59,2.59c.43.43.43,1.13,0,1.56l-.06.06c-.43.43-1.13.43-1.56,0l-2.59-2.59c-.43-.43-.43-1.13,0-1.56l.06-.06c.43-.43,1.13-.43,1.56,0Z"/></g></svg>