<?xml version="1.0" encoding="UTF-8"?><svg id="Camada_2" xmlns="http://www.w3.org/2000/svg" xmlns:xlink="http://www.w3.org/1999/xlink" viewBox="0 0 150 150"><defs><style>.cls-1{mask:url(#mask);}.cls-2{fill:url(#Gradiente_sem_nome_8);}.cls-2,.cls-3{stroke-width:0px;}.cls-3{fill:#d9d9d9;}</style><mask id="mask" x="-23.78" y="-12.57" width="181.17" height="179.11" maskUnits="userSpaceOnUse"><g id="mask0_88_102"><rect class="cls-3" x="-68.58" y="52.26" width="141.4" height="5.89" transform="translate(-50.74 39.16) rotate(-70.91)"/><rect class="cls-3" x="-56.82" y="56.22" width="141.4" height="5.89" transform="translate(-46.57 52.94) rotate(-70.91)"/><rect class="cls-3" x="-45.06" y="60.18" width="141.4" height="5.89" transform="translate(-42.4 66.71) rotate(-70.91)"/><rect class="cls-3" x="-33.3" y="64.14" width="141.4" height="5.89" transform="translate(-38.22 80.49) rotate(-70.91)"/><rect class="cls-3" x="-21.54" y="68.1" width="141.4" height="5.89" transform="translate(-34.05 94.27) rotate(-70.91)"/><rect class="cls-3" x="-9.78" y="72.06" width="141.4" height="5.89" transform="translate(-29.88 108.05) rotate(-70.91)"/><rect class="cls-3" x="1.98" y="76.02" width="141.4" height="5.89" transform="translate(-25.71 121.83) rotate(-70.91)"/><rect class="cls-3" x="13.74" y="79.98" width="141.4" height="5.89" transform="translate(-21.54 135.6) rotate(-70.91)"/><rect class="cls-3" x="25.5" y="83.94" width="141.4" height="5.89" transform="translate(-17.36 149.38) rotate(-70.91)"/><rect class="cls-3" x="37.26" y="87.9" width="141.4" height="5.89" transform="translate(-13.19 163.16) rotate(-70.91)"/><rect class="cls-3" x="49.02" y="91.86" width="141.4" height="5.89" transform="translate(-9.02 176.94) rotate(-70.91)"/><rect class="cls-3" x="60.78" y="95.82" width="141.4" height="5.89" transform="translate(-4.85 190.71) rotate(-70.91)"/></g></mask><linearGradient id="Gradiente_sem_nome_8" x1="0" y1="-2445.72" x2="150" y2="-2436.06" gradientTransform="translate(0 -2365.89) scale(1 -1)" gradientUnits="userSpaceOnUse"><stop offset=".33" stop-color="#92acce"/><stop offset="1" stop-color="#fc9e49"/></linearGradient></defs><g id="Camada_1-2"><g class="cls-1"><path class="cls-2" d="M70.17,0l14.09,47.83,40.36-29.27-23.86,43.78,49.24,7.84-47.83,14.09,29.27,40.36-43.78-23.86-7.84,49.24-14.09-47.83-40.36,29.27,23.86-43.78L0,79.83l47.83-14.09L18.55,25.38l43.78,23.86L70.17,0Z"/></g></g></svg>