<?xml version="1.0" encoding="UTF-8"?>
<svg xmlns="http://www.w3.org/2000/svg" xmlns:xlink="http://www.w3.org/1999/xlink" viewBox="0 0 183.57 177.8">
  <defs>
    <style>
      .cls-1 {
        fill: #d1772c;
      }

      .cls-1, .cls-2, .cls-3, .cls-4, .cls-5, .cls-6, .cls-7, .cls-8, .cls-9, .cls-10, .cls-11, .cls-12, .cls-13, .cls-14, .cls-15, .cls-16, .cls-17, .cls-18, .cls-19, .cls-20, .cls-21, .cls-22, .cls-23, .cls-24, .cls-25, .cls-26, .cls-27, .cls-28, .cls-29, .cls-30, .cls-31, .cls-32, .cls-33, .cls-34, .cls-35, .cls-36, .cls-37, .cls-38, .cls-39 {
        stroke-width: 0px;
      }

      .cls-2 {
        fill: #126687;
      }

      .cls-3 {
        fill: #3148a8;
      }

      .cls-4 {
        fill: #e2a36a;
      }

      .cls-5 {
        fill: #f4be84;
      }

      .cls-40 {
        clip-path: url(#clippath);
      }

      .cls-6 {
        fill: none;
      }

      .cls-7 {
        fill: #f9e8ca;
      }

      .cls-8 {
        fill: #4258b2;
      }

      .cls-9 {
        fill: #fc9e49;
      }

      .cls-10 {
        fill: #ffe5cc;
      }

      .cls-11 {
        fill: #575556;
        opacity: .43;
      }

      .cls-11, .cls-13, .cls-36 {
        mix-blend-mode: multiply;
      }

      .cls-12 {
        fill: #004788;
      }

      .cls-13 {
        fill: url(#_ÂÁ_Ï_ÌÌ_È_ËÂÌÚ_226);
      }

      .cls-13, .cls-41, .cls-28 {
        opacity: .5;
      }

      .cls-14 {
        fill: #055fa3;
      }

      .cls-15, .cls-36 {
        fill: #525b66;
      }

      .cls-16 {
        fill: #332f33;
      }

      .cls-42 {
        clip-path: url(#clippath-4);
      }

      .cls-43 {
        clip-path: url(#clippath-2);
      }

      .cls-17 {
        fill: #fff;
        opacity: .31;
      }

      .cls-18 {
        fill: #b0c1d1;
      }

      .cls-19 {
        fill: #7d4520;
      }

      .cls-20 {
        fill: #0c3c60;
      }

      .cls-21 {
        fill: #253a7c;
      }

      .cls-22 {
        fill: #211921;
      }

      .cls-23 {
        fill: #e5caa3;
      }

      .cls-24 {
        fill: #202226;
      }

      .cls-25 {
        fill: #9b6335;
      }

      .cls-26 {
        fill: #1371b7;
      }

      .cls-27 {
        fill: #fff4e3;
      }

      .cls-28 {
        fill: url(#Gradiente_sem_nome_40);
      }

      .cls-29 {
        fill: #34363a;
      }

      .cls-30 {
        fill: #90a6ba;
      }

      .cls-44 {
        isolation: isolate;
      }

      .cls-31, .cls-34 {
        fill: #282a2e;
      }

      .cls-32 {
        fill: #efd9b4;
      }

      .cls-33 {
        fill: url(#Gradiente_sem_nome_39);
      }

      .cls-34, .cls-36 {
        opacity: .2;
      }

      .cls-35 {
        fill: #794830;
      }

      .cls-37 {
        fill: #303235;
      }

      .cls-38 {
        fill: #d69356;
      }

      .cls-39 {
        fill: #b77544;
      }
    </style>
    <clipPath id="clippath">
      <path class="cls-6" d="M64.04,0h119.53v177.8H0v-113.75C0,28.7,28.7,0,64.04,0Z" transform="translate(183.57 177.8) rotate(180)"/>
    </clipPath>
    <clipPath id="clippath-2">
      <path class="cls-6" d="M120.13,14.61c4.15.05,8.3.1,12.44.17,6.39.1,11.95,4.48,13.68,10.76.08.28.16.56.23.85.91,3.29,2.9,6.16,5.63,8.13,2.63,1.9,5.25,3.79,7.87,5.7,5.91,4.29,9.45,11.24,9.55,18.66h0c.07,4.82-1.32,9.54-3.95,13.5-5.14,7.75-10.24,15.51-15.31,23.28-6.5,9.98-6.55,23.09-.29,33.22h0c3.87,6.26,5.35,13.82,4.22,21.19-3,19.42-5.95,38.85-8.85,58.28-29.99-.66-59.98-.79-89.97-.37,3.45-22.05,6.98-44.09,10.58-66.13.91-5.59,3.31-10.8,6.93-14.99,1.3-1.5,2.6-3.01,3.9-4.51,6.13-7.08,8.73-16.81,6.91-26.21-1.92-7.79-3.86-15.58-5.81-23.36-3.14-9.24-2.03-16.91-2.03-16.91,2.48-10.58,11.82-18.94,21.53-23.35.38-.17.77-.35,1.15-.52,2.7-1.23,4.97-3.27,6.5-5.86.88-1.48,1.76-2.96,2.64-4.44,2.63-4.43,7.37-7.12,12.45-7.06Z"/>
    </clipPath>
    <linearGradient id="Gradiente_sem_nome_40" data-name="Gradiente sem nome 40" x1="-9380.38" y1="187.84" x2="-9429.69" y2="177.3" gradientTransform="translate(-9330.04) rotate(-180) scale(1 -1)" gradientUnits="userSpaceOnUse">
      <stop offset="0" stop-color="#055fa3"/>
      <stop offset=".63" stop-color="#004788"/>
    </linearGradient>
    <linearGradient id="Gradiente_sem_nome_39" data-name="Gradiente sem nome 39" x1="-9414.03" y1="187.35" x2="-9450.89" y2="178.25" gradientTransform="translate(-9330.04) rotate(-180) scale(1 -1)" gradientUnits="userSpaceOnUse">
      <stop offset="0" stop-color="#055fa3"/>
      <stop offset=".3" stop-color="#045b9e"/>
      <stop offset=".6" stop-color="#025092"/>
      <stop offset=".78" stop-color="#004788"/>
    </linearGradient>
    <linearGradient id="_ÂÁ_Ï_ÌÌ_È_ËÂÌÚ_226" data-name="¡ÂÁ˚ÏˇÌÌ˚È „‡‰ËÂÌÚ 226" x1="-9399.73" y1="1583.59" x2="-9413.21" y2="1586.23" gradientTransform="translate(-9368.05 1295.28) rotate(162.99) scale(1 -1)" gradientUnits="userSpaceOnUse">
      <stop offset="0" stop-color="#9b6335"/>
      <stop offset=".21" stop-color="#975f33"/>
      <stop offset=".39" stop-color="#8c562f"/>
      <stop offset=".57" stop-color="#7a4629"/>
      <stop offset=".74" stop-color="#603020"/>
      <stop offset=".9" stop-color="#401415"/>
      <stop offset="1" stop-color="#29000d"/>
    </linearGradient>
    <clipPath id="clippath-4">
      <path class="cls-6" d="M77.08,22.9s.85-6.33,6.73-10.18c3.98-2.61,18.91-2.05,18.91-2.05l5.26,17.54-5.63,14.14,1.5,12.66,19.68-.8,2.14-4.83,1.14-11.55-4.92-19.16-10.17-13.22-9.43-3.2h-12.9s-4.42,3.01-5.8,4.77c-6.49,8.29-6.49,15.87-6.49,15.87Z"/>
    </clipPath>
  </defs>
  <g class="cls-44">
    <g id="Camada_2" data-name="Camada 2">
      <g id="Camada_1-2" data-name="Camada 1">
        <g class="cls-40">
          <g id="character_sit" data-name="character sit">
            <g>
              <g>
                <path class="cls-16" d="M82.86,160.87c-1.89-1.41-3.79-2.82-5.69-4.23,0-.04,0-.09,0-.13,0,0-.34-.23-.97-.59,0,0,0,0-.01,0h0c-5.01-2.85-30.92-14.92-76.18,5.49.07,2.13.13,4.26.2,6.39,1.91.67,3.82,1.34,5.73,2.02-.02-.73-.04-1.46-.06-2.19,23.78-.7,47.56-1.1,71.34-1.21,1.88-1.85,3.76-3.7,5.65-5.55Z"/>
                <path class="cls-22" d="M44.31,206.32c1.93-14.58,3.88-29.16,5.88-43.73-4.16.06-8.32.12-12.47.2.27,14.54.53,29.09.8,43.63,1.93-.04,3.87-.07,5.8-.1Z"/>
                <path class="cls-22" d="M82.85,158.68c.14.08-26.11-18.1-77.11,4.75.06,2.13.13,4.26.19,6.39,25.64-.75,51.3-1.16,76.95-1.23,0-3.3-.02-6.61-.02-9.91Z"/>
              </g>
              <g>
                <path class="cls-1" d="M133.21,14.79c4.15.07,8.3.14,12.44.23,6.38.13,11.93,4.54,13.64,10.83.08.28.15.57.23.85.9,3.29,2.87,6.17,5.59,8.16,2.62,1.91,5.24,3.82,7.85,5.74,5.89,4.32,9.4,11.28,9.47,18.71h0c.05,4.82-1.35,9.53-4,13.48-5.17,7.72-10.3,15.46-15.4,23.21-6.54,9.95-6.64,23.06-.42,33.22h0c3.84,6.28,5.3,13.85,4.13,21.21-3.07,19.41-6.1,38.82-9.07,58.24-29.98-.81-59.98-1.08-89.97-.81,3.54-22.03,7.15-44.06,10.84-66.08.94-5.59,3.36-10.78,6.99-14.96,1.3-1.5,2.61-2.99,3.91-4.49,6.16-7.05,8.79-16.77,7.01-26.18-1.89-7.8-3.8-15.6-5.72-23.39-3.11-9.26-1.97-16.92-1.96-16.92,2.52-10.57,11.9-18.88,21.62-23.24.38-.17.77-.34,1.15-.52,2.7-1.21,4.98-3.25,6.52-5.83.88-1.48,1.77-2.95,2.65-4.43,2.65-4.42,7.39-7.09,12.48-7Z"/>
                <path class="cls-9" d="M120.13,14.61c4.15.05,8.3.1,12.44.17,6.39.1,11.95,4.48,13.68,10.76.08.28.16.56.23.85.91,3.29,2.9,6.16,5.63,8.13,2.63,1.9,5.25,3.79,7.87,5.7,5.91,4.29,9.45,11.24,9.55,18.66h0c.07,4.82-1.32,9.54-3.95,13.5-5.14,7.75-10.24,15.51-15.31,23.28-6.5,9.98-6.55,23.09-.29,33.22h0c3.87,6.26,5.35,13.82,4.22,21.19-3,19.42-5.95,38.85-8.85,58.28-29.99-.66-59.98-.79-89.97-.37,3.45-22.05,6.98-44.09,10.58-66.13.91-5.59,3.31-10.8,6.93-14.99,1.3-1.5,2.6-3.01,3.9-4.51,6.13-7.08,8.73-16.81,6.91-26.21-1.92-7.79-3.86-15.58-5.81-23.36-3.14-9.24-2.03-16.91-2.03-16.91,2.48-10.58,11.82-18.94,21.53-23.35.38-.17.77-.35,1.15-.52,2.7-1.23,4.97-3.27,6.5-5.86.88-1.48,1.76-2.96,2.64-4.44,2.63-4.43,7.37-7.12,12.45-7.06Z"/>
                <g class="cls-43">
                  <path class="cls-22" d="M123.54,200.05c-12.43.49-24.85,1.07-37.26,1.74,1.35-74.25,12.64-148.55,35.28-219.18,12.33,5.05,24.6,10.18,36.82,15.39-32.49,62.22-41.07,134.21-34.85,202.06Z"/>
                </g>
                <path class="cls-11" d="M172.97,40.59c-2.61-1.92-5.23-3.83-7.85-5.74-2.72-1.98-4.7-4.86-5.6-8.16-.08-.28-.15-.56-.23-.85-1.71-6.28-7.25-10.69-13.64-10.83-3.75-.08-7.5-.15-11.26-.21,1.12-.26,21.83,10.81,21.73,52.53-.08,22.37-24.61,27.57-17.06,53.92.12.41.25.84.39,1.28,4.8,15.06,5.26,31.28.78,46.4-2.24,7.56-4.74,14.52-7.48,20.57.91-.23,1.91-.18,2.93.33,8.51,4.17,17.48,8.19,25.37,13.77.26-1.52.51-3.04.77-4.56.28-1.66-.67-3.21-2.1-3.66,2.32-15,4.66-29.99,7.03-44.98.14-.87.23-1.75.3-2.62.02-.33.02-.65.04-.97.02-.54.05-1.09.04-1.63,0-.41-.03-.83-.05-1.24-.02-.44-.04-.89-.08-1.33-.04-.47-.1-.93-.16-1.39-.05-.38-.1-.75-.17-1.12-.09-.51-.19-1.01-.3-1.51-.07-.31-.15-.62-.22-.94-.14-.54-.29-1.08-.45-1.61-.08-.25-.16-.49-.25-.74-.2-.58-.4-1.15-.63-1.72-.07-.16-.14-.33-.21-.49-.57-1.33-1.21-2.64-1.97-3.89-6.22-10.17-6.12-23.27.42-33.23,1.69-2.57,3.38-5.13,5.07-7.69,3.39-5.13,6.8-10.26,10.23-15.37,1.19-1.78,2.2-3.71,2.87-5.76,3.3-10.1-.3-20.73-8.26-26.56Z"/>
              </g>
              <g>
                <path class="cls-22" d="M136.74,35.88c1.48-.16,2.62-.07,3.81.19,1.17.25,2.27.67,3.32,1.2,2.1,1.04,3.87,2.66,5.42,4.47,1.55,1.8,2.83,3.89,3.7,6.16.91,2.23,1.31,4.73,1.14,7.18-.09,1.36-1.23,2.38-2.55,2.28-.46-.03-.88-.2-1.23-.46-.08-.06-.17-.13-.25-.19-1.75-1.31-3.07-2.56-4.48-3.68-1.35-1.15-2.65-2.23-3.97-3.29-1.3-1.08-2.62-2.1-3.82-3.38-.61-.63-1.2-1.31-1.77-2.07-.55-.76-1.19-1.61-1.55-2.57-.16-.42-.32-.84-.47-1.25-.66-1.74.18-3.7,1.87-4.38.27-.11.56-.18.84-.21Z"/>
                <path class="cls-22" d="M111.24,41.43c-.38.96-1.04,1.79-1.6,2.53-.59.74-1.19,1.42-1.81,2.03-1.22,1.25-2.56,2.24-3.89,3.29-1.34,1.03-2.66,2.08-4.03,3.19-1.43,1.09-2.77,2.3-4.55,3.57-.08.06-.17.12-.25.18-1.09.78-2.57.49-3.33-.63-.26-.39-.4-.84-.42-1.29-.12-2.46.33-4.94,1.28-7.15.91-2.25,2.23-4.31,3.82-6.07,1.58-1.77,3.38-3.34,5.5-4.33,1.06-.5,2.16-.89,3.34-1.11,1.2-.23,2.34-.29,3.82-.09,1.81.24,3.08,1.94,2.85,3.79-.04.3-.11.58-.22.84-.17.42-.34.84-.51,1.26Z"/>
              </g>
            </g>
            <g id="right_leg" data-name="right leg">
              <g id="hip_right" data-name="hip right">
                <path class="cls-2" d="M71.56,165.28s-32.68,12.76-34.69,14.83,13.11,17.54,13.11,17.54l41.84-.29,9.67-27.81s-24.11-8.16-29.93-4.27Z"/>
                <path class="cls-28" d="M71.56,165.28s-32.68,12.76-34.69,14.83,13.11,17.54,13.11,17.54l41.84-.29,9.67-27.81s-24.11-8.16-29.93-4.27Z"/>
              </g>
            </g>
            <g id="left_leg" data-name="left leg">
              <path id="shin_left" data-name="shin left" class="cls-14" d="M91.45,184.33s2.8,22.1,2.38,30.56c-.43,8.46-16.17,46.7-16.17,46.7l-4.46-.44c1.88-64.93.61-80.39.61-80.39.56-5.51,16.35-6.63,17.65,3.57Z"/>
              <g id="hip_left" data-name="hip left">
                <path class="cls-2" d="M120.75,160.44s4.38,18.55,3.84,24.2c-.37,3.8-4.61,9.76-6.32,11.83-1.71,2.07-38.66,4.38-41.43,1.28-2.77-3.11-3.47-15.54-2.86-17.68,1.29-4.55,35.95-14.44,35.95-14.44l10.84-5.18Z"/>
                <g class="cls-41">
                  <path class="cls-33" d="M120.75,160.44s4.38,18.55,3.84,24.2c-.37,3.8-4.61,9.76-6.32,11.83-1.71,2.07-38.66,4.38-41.43,1.28-2.77-3.11-3.47-15.54-2.86-17.68,1.29-4.55,35.95-14.44,35.95-14.44l10.84-5.18Z"/>
                </g>
              </g>
            </g>
            <g id="right_hand" data-name="right hand">
              <g id="shoulder_right" data-name="shoulder right">
                <path class="cls-12" d="M65.97,79.12c10.61,1.29,12.21,65.02-4.41,65.25-16.15.22-14.01-17.97-9.01-35.45,4.36-15.27,10.52-30.14,13.42-29.79Z"/>
                <path class="cls-20" d="M55.88,135.59c6.22.3,12.75-41.68,11.55-55.87,9.26,6.64,9.96,64.43-5.87,64.64-7.88.11-11.78-4.32-13.12-10.92,2.13,1.9,3.53,1.95,7.45,2.14Z"/>
                <path class="cls-26" d="M47.4,127.77c-2.6,5.31.78,12.3,7.55,15.62,6.77,3.32,14.37,1.71,16.97-3.6,2.6-5.31-.78-12.3-7.55-15.62-6.77-3.32-14.37-1.71-16.97,3.6Z"/>
              </g>
              <g id="forearm_right" data-name="forearm right">
                <path class="cls-5" d="M64.94,140.61c2.71-4.43,1.75-10.87-5.78-15.55-9.04-5.62-24.16-11.27-24.16-11.27l-1.63,2.16s9.25,19.68,16.59,25.58c4.93,3.96,11.64,4.54,14.98-.92Z"/>
                <path class="cls-4" d="M48.88,138.2c4.73,3.63,11.33,6.32,15.29.61,2.14-3.08.99-6.3.31-8.79,2.44,3.67,2.29,7.6.45,10.6-3.34,5.46-10.05,4.88-14.98.92-7.34-5.9-16.59-25.58-16.59-25.58l.29-.38c2.02,4.06,9.24,18.03,15.23,22.62Z"/>
              </g>
            </g>
            <g id="body">
              <path class="cls-12" d="M138.24,86.51c-4.12-5.63-40.17-19.29-40.17-19.29,0,0-30.82,8.05-34.43,13.93-1.49,2.42-.1,18.14.45,25.92.55,7.77,3.53,21.75,3.61,29.77.09,8.87-2.5,27.45-2.5,29.47,0,1,6.86,9.62,29.36,8.19,15.11-.96,29.08-10.41,29.2-12.93.05-.93-5.27-20.27-5.27-20.27l16.09-28.89s5.2-23.62,3.66-25.89Z"/>
              <path class="cls-20" d="M113.39,163.72l-1.44-17.4s-11.97,0-11.97-1.68,11.25-2.87,11.25-2.87c0,0-5.51-.24-5.74-1.68-.24-1.44,6.46-2.15,6.46-2.15,0,0,13.4-21.89,11.97-32.66-1.44-10.77-17.71-30.64-17.71-30.64l1.17-3.75c10.98,4.46,28.1,11.84,30.86,15.62,1.54,2.27.12,16.82-3.66,25.89-3.77,9.07-16.09,28.89-16.09,28.89,0,0,5.31,19.34,5.27,20.27-.12,2.52-14.09,11.96-29.2,12.93-14.85.95-22.89-2.49-26.64-5.22,22.69,9.39,45.47-5.55,45.47-5.55Z"/>
              <path class="cls-7" d="M121.17,76.77c-4.48,5.87-18.78,32.52-28.53,97.88-4.06,0-12.15-.69-13.23-.88-7.39-20.56-7.31-97.97-7.31-97.97,11.13-5.46,25.97-8.58,25.97-8.58,0,0,11.67,3.91,23.1,9.55Z"/>
              <path class="cls-32" d="M115,73.79l-12.06,23.83-6.31-10.42,14.38-16.31c2.28.89,1.18,1.68,3.99,2.9Z"/>
              <path class="cls-32" d="M77.5,73.64l.27-.33c2.22-.88,2.46-2.02,4.61-2.72l2.54,13.99-9.1,8.77,1.68-19.71Z"/>
              <path class="cls-32" d="M113.61,84.58c-5.73-5.75-10.92-9.88-10.92-9.88l9.31-2.11,9.16,4.18s-4.24,4.89-7.56,7.81Z"/>
              <polygon class="cls-38" points="81.53 71.99 89.42 91.18 109.94 73.5 108.38 56.95 84.68 56.99 81.53 71.99"/>
              <polygon class="cls-27" points="85.74 82.89 76.64 91.66 77.5 71.61 82.29 65.71 85.74 82.89"/>
              <polygon class="cls-27" points="115.23 73.16 111.42 67.73 96.63 85.29 102.94 95.71 115.23 73.16"/>
            </g>
            <g>
              <g id="Head">
                <path class="cls-31" d="M78.25,13.41c.17-1.2.91-2.55,1.67-3.5,2.89-3.6,12.85-8.69,17.46-8.96-1.23.25-1.63,1.06-2.24,2.16,4.27-1.02,8.07-1.84,12.34-.85s8.73,3.87,11.48,7.28,6.15,11.3,5.37,15.62c-.77-1.38-1.54-3.1-2.3-4.48.29,3.64.23,8-.16,11.64-.4,3.63-7.45,11.28-9.73,14.13-1.13-4.8-3.26-13.55-6.21-17.5-1.84-2.47-4.07-4.75-6.84-6.08-4.62-2.22-14.22-1.54-19.3-2.18-1.56-.2-1.7-6.06-1.53-7.26Z"/>
                <circle class="cls-4" cx="112.6" cy="42.62" r="5.31"/>
                <path class="cls-5" d="M77.66,27.17c.16,16.11-3.63,23.01-2.64,27.33,1.93,8.44,11.16,15.22,16.19,16.05,4.36.72,19.71-7.18,20.98-16.1,1.23-8.66.91-34.9-9.02-39.64-17.62-8.42-26.56,3.78-25.52,12.36Z"/>
                <path class="cls-4" d="M106.9,56.99c1.77-4.94,5.29-42.21-14.88-45.01,3.21-.02,6.93.8,11.16,2.82,9.93,4.74,10.25,30.98,9.02,39.64-1.27,8.91-16.88,17-20.98,16.1-4.1-.9-5.17-2.14-5.17-2.14,0,0,3.92,2.18,7.85.99,7.48-2.27,12.14-10,13-12.41Z"/>
                <path class="cls-38" d="M114.13,42.63c-.09-1.13-1.08-1.96-2.21-1.87-.16.01-.31.05-.45.09.36-.31.82-.53,1.34-.57,1.29-.11,2.42.85,2.52,2.14.11,1.29-.85,2.42-2.14,2.52-.32.03-.64-.01-.93-.11,1.12-.1,1.96-1.08,1.87-2.21Z"/>
                <path class="cls-31" d="M105.73,10.27c-3.93-.85-7.92-1.71-11.94-1.43s-10.55.83-12.98,4.04c-.53.7-.45,2.19-.5,3.06s3,2.53,3.81,2.84c.96.36,7.87-3.03,14.98-1.22,9.07,2.3,3.19,7.44,6.2,10.3,1.08,1.03,3.37,2.1,4.32,3.25.87,1.06.74,2.63.74,6.83,0,.32,2.17-.31,2.7-1.25s.58-2.07.62-3.14c.16-4.4.6-10.27-.54-14.52-1.15-4.25-3.69-7.94-7.42-8.75Z"/>
                <path class="cls-24" d="M92.53,9.07c-1.25-.17-2.5.44-3.4,1.33s-1.5,2.02-2.08,3.13c-.55,1.04-1.11,2.22-.75,3.34.36-3.3,2.55-6.35,6.23-7.8Z"/>
                <path class="cls-24" d="M102.93,10.78c-1.44-.76-3.34-.22-4.4,1.02s-1.34,3.01-1.02,4.6c1.16-2.73,3.31-5.03,5.42-5.62Z"/>
                <path class="cls-24" d="M117.58,27.85c-3.77-2.06-8.05-2.94-12.27-3.8,3.99,2.02,8.31,3.37,12.27,3.8Z"/>
                <path class="cls-24" d="M118.96,32.29c-2.88-1.33-5.87-2.41-8.93-3.23-.11,1.18.91,2.22,2.03,2.61s2.34.31,3.53.36c1.62.07,3.23.38,3.36.25Z"/>
                <path class="cls-37" d="M117.99,16.57c-2.4-3.43-6.78-3.99-10.03-3.68-.71.07-1.43.24-2.04.8s-1.09,1.58-1.07,2.68c.03,1.65,1.08,2.81,2.1,3.24,2.35,1.01,6.03-.37,8.65-1.06.47-.12,2.85-1.33,2.39-1.99Z"/>
              </g>
              <path class="cls-4" d="M87.76,64.97c0,.76,1.19,1.37,2.66,1.37s2.66-.61,2.66-1.37-1.19-1.37-2.66-1.37-2.66.61-2.66,1.37Z"/>
              <path class="cls-34" d="M76.09,44.96c-.72,3.23-1.69,6.8-1.06,9.54,1.93,8.44,11.16,15.22,16.19,16.05,4.36.72,19.71-7.18,20.98-16.1.54-3.79.78-10.94.05-18.19-.11-1.14-1.32.66-1.87,1.67-1.83,3.36-3.05,3.32-6.32,8.51-7.27,11.55-25.75,6.15-26.61,2.99-.81-2.99-.96-2.28-1.36-4.47Z"/>
              <g id="happy">
                <path class="cls-19" d="M88.28,32.4c1.18,1.41,1.92,3.11,2,4.87.25,5.43-6.26,9.57-5.66,12.1.32,1.37,6.47,2.27,6.55,2.79.08.52-7.92.26-8.24-2.32-.43-2.86,6.75-8.44,6.49-14.07-.05-1.11-.4-2.24-1.13-3.36Z"/>
                <path class="cls-31" d="M93.27,27.84c5.41-2.93,9.95,2.95,9.95,2.95l.33-1.18s-3.36-6.56-9.66-3.99c0,0-.1.38-.62,2.23Z"/>
                <path class="cls-31" d="M85.48,28.04c-5.08-4.26-7.83,1.44-7.83,1.44l-.21-1.21s1.93-6.43,7.65-2.51c0,0,.07.39.39,2.28Z"/>
                <g>
                  <path class="cls-25" d="M99.32,54.77l-18.13.26s4.76,7.9,9.62,7.68c4.86-.22,8.51-7.94,8.51-7.94Z"/>
                  <path class="cls-13" d="M99.32,54.77l-18.13.26s4.76,7.9,9.62,7.68c4.86-.22,8.51-7.94,8.51-7.94Z"/>
                  <path class="cls-39" d="M93.98,58.53c-4.59.19-7.12,1.95-5.7,3.05.41.32,1.16.57,2.28.69,2.23.14,7.45-3.92,3.41-3.75Z"/>
                  <path class="cls-35" d="M98.98,54.91s1.21.66,1.54.61c.32-.05-2.05-2.18-2.23-1.96-.18.22.7,1.35.7,1.35Z"/>
                  <path class="cls-35" d="M81.48,55.32s.75-1.16.73-1.48c-.03-.33-2.33,1.88-2.12,2.07.21.2,1.4-.59,1.4-.59Z"/>
                  <path class="cls-7" d="M96.22,55.32l-11.68.3s.55,1.63,6.01,1.27c5.36-.35,5.67-1.58,5.67-1.58Z"/>
                </g>
                <g>
                  <path class="cls-31" d="M100.09,38.27s-.41-3.66-2.74-3.8c-2.34-.14-3.43,2.56-3.43,2.56l-.62-.8s1.17-2.77,3.92-2.51c3.07.29,3.2,4.34,3.2,4.34l-.33.22Z"/>
                  <path class="cls-10" d="M93.51,38.43c-.26,2.04,1.09,3.2,2.9,3.43,1.81.23,3.41-.55,3.67-2.59.26-2.04-.91-4.56-2.73-4.79-1.81-.23-3.58,1.92-3.84,3.96Z"/>
                  <path class="cls-24" d="M94.14,38.23c-.07.89.59,1.66,1.48,1.73.89.07,1.66-.59,1.73-1.48.07-.89-.59-1.66-1.48-1.73-.89-.07-1.66.59-1.73,1.48Z"/>
                </g>
                <g>
                  <path class="cls-31" d="M85.43,37.12s-.38-3.42-2.56-3.55c-2.18-.13-3.2,2.39-3.2,2.39l-.58-.75s1.1-2.6,3.66-2.36c2.86.27,2.99,4.06,2.99,4.06l-.31.21Z"/>
                  <path class="cls-10" d="M79.29,37.27c-.24,1.91,1.02,2.99,2.71,3.2,1.69.22,3.18-.52,3.42-2.42.24-1.91-.85-4.26-2.55-4.48-1.69-.22-3.34,1.79-3.59,3.7Z"/>
                  <path class="cls-24" d="M81.39,37.53c-.06.83.55,1.55,1.38,1.62.83.06,1.55-.55,1.62-1.38s-.55-1.55-1.38-1.62-1.55.55-1.62,1.38Z"/>
                </g>
              </g>
            </g>
            <polygon class="cls-20" points="117.12 72.01 128.28 80.78 118.3 97.1 119.79 102.75 94.56 174.49 91.17 174.65 105.17 94.12 117.12 72.01"/>
            <polygon class="cls-12" points="115.34 70.62 128.51 80.14 116.52 95.71 118.01 101.36 94.06 174.65 91.17 174.65 103.38 92.74 115.34 70.62"/>
            <g id="left_hand" data-name="left hand">
              <g id="shoulder_left" data-name="shoulder left">
                <path class="cls-20" d="M133.34,83.1c10.69-.04,28.99,61.81,12.56,65.97-29.33,7.43-23.25-65.93-12.56-65.97Z"/>
                <path class="cls-26" d="M124.17,138.04c.08,7.36,7.19,13.26,15.9,13.17,8.7-.09,15.7-6.13,15.63-13.49-.08-7.36-7.19-13.26-15.9-13.17-8.7.09-15.7,6.13-15.63,13.49Z"/>
              </g>
              <g id="wrist_left" data-name="wrist left">
                <path class="cls-4" d="M86.5,153.37c.49,0,.55-.85,1.19-2.43.2-.49,1.39-1.82,1.39-1.82,0,0,2.79-1.26,5.02-5.03l.13.6c-2.23,3.77-5.16,4.96-5.16,4.96,0,0-.99,1.25-1.19,1.74-.64,1.58-.7,2.42-1.19,2.43-.17,0-.27-.21-.33-.52.04.03.08.06.13.06Z"/>
              </g>
              <g id="forearm_left" data-name="forearm left">
                <path class="cls-5" d="M149.93,134.19c-1.62-5.6-9.9-10.09-22.18-6.71-14.74,4.06-34.65,14.81-34.65,14.81l1.07,2.47s28.16,5.82,41.44,3.49c8.92-1.57,16.31-7.15,14.32-14.06Z"/>
                <path class="cls-4" d="M132.17,147.4c8.43-1.39,15.4-6.51,13.46-12.93-1.4-4.64-7.82-8.49-17.43-7.11,12.03-3.14,20.13,1.3,21.73,6.83,1.99,6.91-5.4,12.49-14.32,14.06-13.29,2.33-41.44-3.49-41.44-3.49l-.19-.44c4.92.98,27.06,4.92,38.19,3.08Z"/>
              </g>
            </g>
            <polygon class="cls-20" points="76.75 71.66 64.74 79.53 69.52 91.18 67.92 92.46 74.89 171.25 79.41 173.77 75.84 92.89 76.75 71.66"/>
            <polygon class="cls-12" points="78.52 70.43 64.74 79.53 70.68 91.18 69.19 92.35 75.5 171.56 79.41 173.77 77.61 91.66 78.52 70.43"/>
            <path class="cls-5" d="M93.37,142.15s-6.29,1.98-9.81,3.75c0,0-2.29.93-3.72,2.3-.78.75-2,2.73-1.5,3.19.5.46,1.21-.92,2.54-2.12.75-.68,2.77-1.59,2.9-1.48.12.11-1.58,1.19-2.2,1.97-.52.66-1.89,3.57-1.32,3.87.77.4,1.12-.93,2.47-2.92.5-.64,2.56-1.93,2.72-1.79s-1.35,1.29-1.72,2.09c-.37.8-1.25,3.05-.58,3.34.68.29,1.17-1.42,1.88-2.61.38-.64,2.08-2.09,2.17-2.07s-.57.86-.75,1.62c-.18.76-.24,2.54.25,2.53.49,0,.55-.85,1.19-2.43.2-.49,1.19-1.74,1.19-1.74,0,0,2.93-1.2,5.16-4.96,0,0,.35-2.49-.86-2.55Z"/>
            <g>
              <path class="cls-16" d="M162.16,160.71c-1.86-1.46-3.71-2.93-5.58-4.39,0-.04,0-.09,0-.13,0,0-.33-.24-.95-.61,0,0,0,0-.01,0,0,0,0,0,0,0-4.94-2.98-30.5-15.77-76.33,3.38,0,2.13.02,4.26.02,6.39,1.89.72,3.78,1.45,5.67,2.17,0-.73,0-1.46,0-2.19,23.79-.04,47.59.22,71.38.77,1.93-1.8,3.87-3.59,5.8-5.39Z"/>
              <path class="cls-22" d="M122.36,205.07c2.33-14.52,4.69-29.04,7.09-43.55-4.16-.06-8.32-.11-12.48-.15-.14,14.54-.27,29.09-.41,43.63,1.93.02,3.87.04,5.8.06Z"/>
              <path class="cls-22" d="M162.22,158.52c.14.08-25.61-18.82-77.24,2.61,0,2.13,0,4.26.01,6.39,25.66-.04,51.32.26,76.98.9.08-3.3.17-6.6.25-9.91Z"/>
            </g>
            <g class="cls-42">
              <g>
                <path class="cls-29" d="M113.46,50.75c-1.76-.68-2.81-2.14-3.42-3.66-.87-2.15-1.04-4.6-.07-6.9s4.04-4.98,8.43-5.21c1.14-.06,2.61,1.23,2.94,2.15.61,1.72-.84,4.2-.62,6.01.25,2.1,1.76,3.99.37,5.98-1.16,1.67-5.8,2.34-7.63,1.64Z"/>
                <path class="cls-3" d="M117.96,50.23c-1.12-.16-2.1-.69-3.02-1.24-1.45-.86-2.1-2.39-2.35-3.87-.38-2.2-.45-4.63.86-6.58,1.79-2.66,5.25-3.23,6.51-3.37.86-.09,1.74-.06,2.58.1.56.11,1.12.28,1.55.6.57.43.82,1.08,1.01,1.7.65,2.06.93,4.22.65,6.35-.24,1.79-.87,3.7-2.09,5.22-1.2,1.51-3.9,1.34-5.7,1.08Z"/>
                <path class="cls-21" d="M123.64,49.12c.04-.05.08-.1.12-.15-.66-.6-1.41-1.14-2.07-1.74-2.41-2.23-3.33-5.29-4.17-8.22-.11,1.35-.44,2.68-1,3.95-.36.84-.97,1.75-2.01,1.92-1,.16-1.48-.55-2.11-.9.04.37.1.75.16,1.11.26,1.48.9,3.01,2.35,3.87.92.55,1.9,1.07,3.02,1.24,1.8.26,4.5.43,5.7-1.08Z"/>
                <path class="cls-30" d="M121.35,31.04c-.48-.22-1.08-.08-1.61.07-.1.03-.2.06-.27.13-.06.07-.07.15-.08.23-.09.5-.43.95-.79,1.36-1.39,1.59-3.2,2.96-4.13,4.77-.63,1.22-.82,2.57-.78,3.89.08,2.76,1.17,5.53,3.36,7.54.81.74,2.02,1.19,3.29,1.2,1.28,0,2.96-.93,3.8-1.72,1.02-.97,1.64-2.86,1.71-4.13.42-7.83-3.47-9.38-3.8-12.24-.06-.53-.14-.83-.7-1.09ZM121.54,32.97c.17.54.57,1,.65,1.3.01.06.02.13-.03.17-.08.07-.21.04-.31,0-.35-.13-.72-.21-1.1-.25-.86-.09-1.73.05-2.58.21-.3-.12.19-.34.35-.48.33-.28.62-.58.87-.91.24-.31.39-.69.64-.99.18-.21.46-.39.77-.29.44.14.58.76.73,1.24Z"/>
                <path class="cls-8" d="M114.78,39.63c-.43,2.39.02,4.88,1.27,7.03.57.97,1.32,1.9,2.39,2.5,1.07.6,2.5.84,3.7.4,1.33-.49,2.1-1.67,2.53-2.82.8-2.15.77-4.45.42-6.67-.22-1.42-.6-2.89-1.72-3.97-1.3-1.24-3.3-1.33-5.09-.84-2.15.58-3.19,2.65-3.51,4.36Z"/>
                <path class="cls-3" d="M117.31,43.71c-.44-.93-.66-1.96-.45-2.96.15-.73.56-1.47,1.29-1.89.73-.42,1.83-.44,2.41.1-1.17.15-2.11,1-2.47,1.94-.37.95-.25,1.97.03,2.92.33,1.11.95,1.91,1.68,2.84-1.18-.63-1.99-1.89-2.49-2.95Z"/>
                <path class="cls-8" d="M122.07,31.48c.48-1.02.52-2.15.44-3.25-.31-4.07-2.16-7.93-4.14-11.65-1.36-2.55-2.81-5.1-4.97-7.2-3.87-3.78-9.96-5.81-15.81-5.29-4.82.43-8.84.57-17.72,6.82-3.79,2.67-7.05,7.8-7.99,11.9-.94,4.11-.83,8.33-.72,12.52.03,1.15.11,2.4,1,3.25,1.47,1.42,4.41.85,5.82-.62,1.4-1.47.78-2.9,1.01-4.78.46-3.77.68-8.12,1.14-11.89.43-3.51,2.14-7.27,4.96-9.85,1.35-1.23,3.1-2.08,4.87-2.83,2.23-.95,4.6-1.78,7.09-1.79,3.03,0,5.92,1.26,8.15,3.01,2.23,1.75,3.87,3.97,5.39,6.2,2.53,3.72,5.13,8.06,5.08,12.48-.02,1.65-.87,3.13.8,4.37,2.01,1.5,4.7.57,5.63-1.41Z"/>
                <path class="cls-21" d="M98.53,6.93c-1.54-.48-5.52-.79-7.15-.61-2.04.23-8.99,1.21-11.6,5.03-2.44,3.58-6.87,12.95-7.25,17.07-.33,3.59-.52,7.35,1.18,10.65.06.11.12.22.19.33,1.43.17,3.09-.41,4.04-1.41,1.4-1.47.78-2.9,1.01-4.78.46-3.77.68-8.12,1.14-11.89.43-3.51,2.14-7.27,4.96-9.85,1.35-1.23,3.1-2.08,4.87-2.83,2.23-.95,4.6-1.78,7.09-1.79.5,0,1.05.01,1.54.08Z"/>
                <path class="cls-21" d="M107.15,5.45c4.58,2.33,8.5,8.33,10.93,13.3,1.64,3.35,2.9,7.22,1.2,10.56-.49.97-1.52,1.97-2.74,1.78-.5-.08-.87-.32-1.15-.65-.07.86.05,1.66,1.01,2.38,2.01,1.5,4.7.57,5.63-1.41.48-1.02.52-2.15.44-3.25-.31-4.07-2.16-7.93-4.14-11.65-1.36-2.55-2.81-5.1-4.97-7.2-1.64-1.6-3.96-2.95-6.21-3.87Z"/>
                <path class="cls-17" d="M103.15,6.52c2.23.46,3.89,2.03,5.24,3.62,1.34,1.57,2.53,3.22,3.57,4.95.4-.03.68-.39.71-.73s-.14-.67-.32-.98c-1.29-2.22-3.3-4.06-5.27-5.87-.77-.7-1.55-1.42-2.51-1.92-.63-.33-3-1.19-3.63-.42-.74.89,1.59,1.23,2.22,1.36Z"/>
              </g>
            </g>
            <g id="folder">
              <g>
                <polygon class="cls-23" points="70.08 102.59 46.72 122.86 21.13 93.36 40.51 76.55 43.48 73.43 70.08 102.59"/>
                <rect class="cls-32" x="30.24" y="78.73" width="30.93" height="38.74" transform="translate(-53.1 53.95) rotate(-40.94)"/>
                <rect class="cls-15" x="30.05" y="79.02" width="32.48" height="39.74" transform="translate(-53.48 54.52) rotate(-40.94)"/>
                <path class="cls-36" d="M47.04,124.55l-26.04-30.02,24.53-21.28c-2.92,17.01-2.63,34.1,1.51,51.3Z"/>
                <rect class="cls-18" x="27.77" y="82.61" width="11.49" height="3.16" transform="translate(-46.97 42.55) rotate(-40.94)"/>
                <path class="cls-36" d="M38.88,81.62l-8.68,7.53-2.07-2.38s2.39,1.26,5.85-1.88c3.45-3.14,2.83-5.64,2.83-5.64l2.07,2.38Z"/>
                <path class="cls-15" d="M29.94,86.39c.16.1.2.32.1.48s-.32.2-.48.1-.2-.32-.1-.48.32-.2.48-.1Z"/>
                <path class="cls-15" d="M36.72,80.56c.16.1.2.32.1.48s-.32.2-.48.1-.2-.32-.1-.48.32-.2.48-.1Z"/>
                <path class="cls-18" d="M36.67,80.91s-.02.03-.04.04c-.09.07-.21.06-.29-.02l-1.13-1.31-6.47,5.61,1.13,1.31c.07.09.06.21-.02.29-.09.07-.22.06-.29-.02l-1.26-1.47c-.07-.09-.07-.22.02-.29l6.78-5.88s.1-.05.15-.05c.05,0,.11.03.14.07l1.26,1.46c.06.07.07.17.02.25Z"/>
              </g>
            </g>
            <path class="cls-5" d="M33.36,115.95s-3.28-6.06-4.71-10.22c0,0-1.11-2.53-1.17-4.75-.04-1.21.54-3.75,1.3-3.72.76.02.25,1.68.37,3.68.07,1.13.97,3.44,1.16,3.45.19,0-.34-2.19-.21-3.3.1-.93,1.28-4.34,1.98-4.13.93.28.17,1.62-.31,4.27-.1.91.54,3.55.78,3.56s-.07-2.09.26-3.02c.33-.93,1.39-3.42,2.15-3.12.76.3-.18,2.05-.54,3.56-.2.82.03,3.3.11,3.35s.22-1.13.67-1.89c.45-.75,1.8-2.22,2.19-1.83.39.39-.23,1.11-.95,2.87-.22.55-.41,2.32-.41,2.32,0,0,2.64,3.78,1.47,8.54,0,0-3.11,1.29-4.12.38Z"/>
          </g>
        </g>
      </g>
    </g>
  </g>
</svg>