<?xml version="1.0" encoding="UTF-8"?><svg id="Camada_2" xmlns="http://www.w3.org/2000/svg" viewBox="0 0 240.6 246.73"><defs><style>.cls-1{stroke-width:1.5px;}.cls-1,.cls-2{fill:none;}.cls-1,.cls-2,.cls-3,.cls-4{stroke-miterlimit:10;}.cls-1,.cls-3{stroke:#add9d9;}.cls-2{stroke:#24292b;stroke-width:3px;}.cls-3{stroke-width:5px;}.cls-3,.cls-5{fill:#99b4bf;}.cls-6{fill:#00a99d;}.cls-7{fill:#038478;}.cls-8{fill:#f5f0ed;}.cls-9{fill:#a86c47;}.cls-10{fill:#add9d9;}.cls-11{fill:#bf825c;}.cls-12{fill:#24292b;}.cls-13{fill:#40220b;}.cls-4{fill:#fff;stroke:#000;stroke-width:.96px;}</style></defs><g id="Camada_1-2"><path class="cls-13" d="m121.43,104.64c-10.12-.47-10.79-13.8-4.74-17.82,22.74-15.12-36.64-79.08,52.63-72.76,63.39,4.49,63.56,69.11,50.1,80.75-9.82,8.49,9.59,18.7,6.16,27.87-2.96,7.92-5.18-3.01-22.27-3.06-11.98-.04-14.28,3.06-29.16,3.06-17.21,0-17.26-1.37-31.44-3.7-6.74-1.1-17.32,5.72-21.8,2.34-5.86-4.42,11.05-16.19.51-16.68Z"/><line class="cls-1" x1="115.25" y1="74.33" x2="128.39" y2="74.33"/><polygon class="cls-10" points="88.55 178.17 114.58 206.8 111.22 243.98 215.6 244.62 215.6 134.07 172.63 123.87 113.56 134.07 88.55 178.17"/><path class="cls-4" d="m197.12,86.81h.06s.25-2.1.25-2.1c-.08.71-.19,1.41-.31,2.1Z"/><polygon class="cls-10" points="240.31 201.94 215.6 134.07 184.52 160.9 195.9 212.78 240.31 201.94"/><path class="cls-11" d="m156.62,116.95c-.51,5.02-1.7,13.51-1.7,13.51-4.61,10.84-3.77,67.97,30.2,2.87,0,0,10.57-37.97,12.06-46.52.12-.69.16-1.4.25-2.1l1.06-16-11.22,4.63c-2.47,1.02-5.16-.87-5.03-3.54l.49-10.65c-15.41-11.65-33.78-10.93-47.07-20.97-3.79,6.93-6.36,6.62-7.2,14.99,0,0-7.1,62.6,28.16,63.77Z"/><path class="cls-13" d="m195.9,18.78c0-8.26,8.26-18.78,16.52-18.78s15.52,14.77,15.52,23.03-8.82,10.71-17.08,10.71-14.96-6.7-14.96-14.96Z"/><path class="cls-9" d="m173.9,108.68s-8.19,7.66-17.28,8.27c-.22,1.66-.73,6.25-.73,6.25,0,0,13.1-4.84,18.01-14.52Z"/><path class="cls-6" d="m211.21,64.86c4.5-45.23-22.97-51.28-26.69-47.98,9.65,14.49,19.5,32.54,11.65,49.97l15.04-1.99Z"/><path class="cls-12" d="m143.48,93.13c3.74,3.17,7.68,2.07,13.16-1.21.82,4.15-1.69,10.09-6.64,9.16-1.04-.19-4.22-2-6.52-7.96Z"/><path class="cls-13" d="m165.83,62.68c.44-1.42-1.18-2.43-1.96-2.76-1.26-.53-4.93-1.36-5.46-.1s2.56,3.23,3.81,3.67c.87.31,3.17.61,3.61-.81Z"/><path class="cls-13" d="m131.86,60.87c-.34-1.45,1.35-2.34,2.15-2.61,1.29-.44,5.01-1,5.45.29.42,1.25-2.79,3.04-4.06,3.39-.89.24-3.2.39-3.54-1.06Z"/><path class="cls-2" d="m134.39,69.02c.33,1.25,1.7,2.13,2.98,1.9s2.26-1.54,2.12-2.82"/><path class="cls-2" d="m156.63,69.16c0,1.54,1.17,3.01,2.67,3.36s3.2-.44,3.89-1.82"/><rect class="cls-5" x="138.24" y="173.43" width="35.29" height="35.29"/><path class="cls-3" d="m122.97,174.75s20.11,5.94,17.91,25.57c-2.19,19.6-26.18,17-26.18,17l8.27-42.57Z"/><polygon class="cls-3" points="185.01 160.48 156.63 180.52 197.12 212.78 185.01 160.48"/><rect class="cls-8" x="49.59" y="155.41" width="63.77" height="87.03" rx="4.08" ry="4.08" transform="translate(-10.47 4.62) rotate(-3.05)"/><path class="cls-11" d="m114.84,245.75c8.73.84,18.15.28,18.15.28,0,0,96.09,2.36,102.97-3.21,2.98-2.41,7.46-24.82,2.26-40.32-10.49,2.47-34.17,8.34-41.09,10.28-49.08,11.58-59.59,7.72-59.59,7.72,0,0-29.06-19.64-23.4-7.74-2.57,1.76-20.16,7.45-17.42,13.2-5.88,3.26-.83,6.51.41,7.02-2.52,1.83.66,5.77,5.1,8.07-.19,4.55,7.19,4.18,12.63,4.7Z"/><path class="cls-11" d="m61.59,212.89c2.95-3.21-12.99-14.51-12.99-14.51,0,0-13.93,2.25-.28,13.26.39,2.39-3.51,1.27.94,7.68.31,1.89-2,5.32,2.31,9.18-2.35,2.69,2.96,5.75,2.96,5.75,0,0-1.08,3.47,6.61-2.89,7.48-3,3.26-5.75,3.03-9.33,3.16-3.16-1.41-7.14-2.56-9.14Z"/><rect class="cls-7" x="31.38" y="139.3" width="9.35" height="95.33"/><path class="cls-6" d="m0,246.73s16.27-15.31,36.35-15.31,36.35,15.31,36.35,15.31H0Z"/><path class="cls-12" d="m87.88,126.75c-6.9,3.7-23.6,11.26-23.6,11.26l-15.13-27.51s11.39-7.14,22.87-13.3c11.48-6.16,20.19-1.55,24.56,6.61,4.38,8.16,2.77,16.79-8.71,22.95Z"/><path class="cls-6" d="m31.87,113.63l30.67-16.47,20.09,37.47-30.67,16.47c-9.83,5.27-22.3,1.15-27.84-9.19-5.55-10.35-2.08-23.01,7.75-28.28Z"/><rect class="cls-6" x="75.77" y="92.95" width="2.13" height="40.81" transform="translate(-45.67 52.15) rotate(-29.32)"/><circle class="cls-1" cx="129.36" cy="75.44" r="14.11"/><path class="cls-9" d="m147.51,83.86c-2.59.94-3.71-2.61-3.98-4.31-.44-2.75,1.86-10.32,4.2-11.46s4.56,8.27,4.85,10.99c.2,1.91-2.47,3.83-5.06,4.78Z"/><circle class="cls-1" cx="162.29" cy="75.44" r="14.11"/><line class="cls-1" x1="176.35" y1="74.33" x2="184.7" y2="74.41"/><line class="cls-1" x1="148.93" y1="70.88" x2="142.75" y2="70.95"/><circle class="cls-6" cx="203.32" cy="76.01" r="18.8"/></g></svg>