<?xml version="1.0" encoding="UTF-8"?><svg id="Camada_2" xmlns="http://www.w3.org/2000/svg" viewBox="0 0 260.21 256.75"><defs><style>.cls-1{fill:#00a99d;}.cls-2{fill:#038478;}.cls-3,.cls-4{fill:#fff;}.cls-5{fill:#805b44;}.cls-6{fill:#add9d9;}.cls-7{fill:#24292b;}.cls-8{fill:#5c3f2e;}.cls-4{stroke:#000;stroke-miterlimit:10;stroke-width:.96px;}</style></defs><g id="Camada_1-2"><path class="cls-5" d="m122.59,211.43l24.54-34.21,15.08,27.1s-11.9,30.03-21.85,29.39c-6.66-.43-17.76-22.28-17.76-22.28Z"/><path class="cls-7" d="m136.09,37.55c-1.61,3.42-5.81,6.23-11.3,8.01,5.51,7.23,4.99,15.85-1.72,20.32-3.77,2.51-8.77,3.24-13.82,2.39-2.04,9.46-9.18,17.44-17.15,18.58-4.48.64-8.38-.99-11.06-4.15-8.81,8.07-19.84,12.36-26.04,9.74-3.48-1.47-4.78-4.84-4.08-9.1-12.22,3.6-22.92,2.57-24.98-2.81-1.15-3.02.63-6.84,4.46-10.57-10.95-2.24-17.25-8.21-14.37-14.3,1.61-3.42,5.81-6.23,11.3-8.01-5.51-7.23-2.97-20.84,4.03-24.84,5.46-3.12,15.11-1.22,20.14-2.03-5.22-6.17-4.5-15.5,7.92-16.12,4.52-.22,8.99,2.69,11.67,5.85C79.89,2.44,90.92-1.85,97.12.77c3.48,1.47,4.79,4.84,4.08,9.1,12.22-3.6,22.92-2.57,24.98,2.81,1.16,3.02-.63,6.84-4.46,10.57,10.95,2.24,17.25,8.21,14.37,14.3Z"/><polygon class="cls-1" points="151.76 183.29 125.73 211.92 129.09 254.11 24.72 254.74 24.72 139.19 67.68 128.99 126.75 139.19 151.76 183.29"/><path class="cls-4" d="m43.19,91.93h-.06s-.25-2.1-.25-2.1c.08.71.19,1.41.31,2.1Z"/><polygon class="cls-3" points="22.38 198.11 22.38 180.25 124.41 180.25 125.48 198.11 22.38 198.11"/><polygon class="cls-3" points="24.72 226.16 24.72 208.31 125.48 208.31 126.75 226.16 24.72 226.16"/><polygon class="cls-1" points="0 207.06 24.72 139.19 55.8 166.02 47.13 219.3 0 207.06"/><path class="cls-5" d="m83.7,122.07c.51,5.02,1.7,13.51,1.7,13.51,30.61,13.99-24.39,21.65-30.2,2.87,0,0-10.57-37.97-12.06-46.52-.12-.69-.16-1.4-.25-2.1l-1.06-16,13.97,7.73s.5-11.03,2.49-11.25c8.18-.92,5.25-20.52,5.25-20.52,26.07,7.24,53.04,8.14,55.54,1.07,0,0,7.54,73.01-35.39,71.21Z"/><path class="cls-8" d="m66.16,113.8s8.25,7.56,17.34,8.17c.22,1.66.86,5.83.86,5.83,0,0-13.29-4.33-18.2-14Z"/><path class="cls-5" d="m188.61,104.95c-.56,8.75-4.06,22.04-4.06,22.04,0,0-12.81,101.05-19.41,106.95-5.38,4.81-24.1,12.36-33.48-12.41,12.78-50.63,24.99-94.44,24.99-94.44,0,0-8.31-13.7-8.35-20.33-.02-2.71-2.2-8.56,7.15-12.11.68-3.74-.59-26.26,4.72-26.37s3.48,20.62,4.45,23.69c3.64-3.62,8.4-.47,8.53,2.54,2.21-2.19,7.86-3.13,9.42,1.62,4.53.54,6.4,3.36,6.05,8.81Z"/><path class="cls-6" d="m29.11,69.98c-6.91-50,18.64-52.68,22.36-49.38-9.65,14.49-15.17,33.94-7.31,51.36l-15.04-1.99Z"/><path class="cls-3" d="m78.81,88.28c2.17,4.16,6.67,7.24,11.11,5.23-1.34,3.32-3.88,6.27-7.11,5.5-3.23-.77-3.84-5.87-4-10.73Z"/><circle class="cls-7" cx="83.02" cy="72.61" r="2.69"/><circle class="cls-7" cx="101.65" cy="74.66" r="2.69"/><path class="cls-7" d="m78.81,63.36c0-1.49,1.85-1.97,2.69-2.05,1.36-.14,5.11.16,5.24,1.52s-3.4,2.32-4.73,2.37c-.92.03-3.21-.35-3.21-1.84Z"/><path class="cls-7" d="m106.81,66.77c.16-1.48-1.63-2.16-2.45-2.33-1.33-.28-5.1-.39-5.37.95s3.14,2.67,4.44,2.87c.91.13,3.23,0,3.39-1.48Z"/><path class="cls-8" d="m94.69,87.38c2.03-.51,1.83-4.08,1.55-5.66-.44-2.55-2.6-9.34-4.51-9.12s-1.59,7.07-1.04,9.51c.38,1.71,1.97,5.78,4,5.27Z"/><path class="cls-5" d="m1.69,236.6l3.03-28.3,141.94,36.8,3.35,11.3H18.09c-8.59-.45-17.32-11.25-16.41-19.8Z"/><path class="cls-5" d="m130.73,248.46c0-4.58,9.39-8.29,20.98-8.29s28.03,5.97,28.03,10.55-16.44,6.03-28.03,6.03-20.98-3.71-20.98-8.29Z"/><path class="cls-5" d="m147.75,252.07c0-2.58,6.47-4.68,14.45-4.68s23.38,4.22,23.38,6.8-15.4,2.55-23.38,2.55-14.45-2.09-14.45-4.68Z"/><path class="cls-7" d="m94.88,89.54c-3.4-1.23-9.69-1.45-15.9-7.66s-21.79,3.8-22.85-4.53c-.79-6.21-5.55,6.09-5.55,6.09,0,0,3.69,22.25,16.73,31.6,17.4,12.47,33.27,6.24,41.29-5.04,7.74-10.88,9.53-26.56,9.53-26.56,0,0-7.41,11.84-23.25,6.1Zm-6.64,9.29c-.85.69-5,2.1-7.9.3-2.41-1.5-3.43-5.21-3.96-7.19-.91-3.35.61-8.5.61-8.5,0,0,5.05,6.08,6.89,7.02,4.75,2.42,8.17-.62,8.93,1.2.53,1.26-3.72,6.48-4.57,7.17Z"/><circle class="cls-6" cx="37" cy="72.86" r="18.8"/><rect class="cls-2" x="219.19" y="188.5" width="9.35" height="54.82"/><path class="cls-1" d="m260.21,255.43s-16.27-15.31-36.35-15.31-36.35,15.31-36.35,15.31h72.7Z"/><path class="cls-7" d="m171.65,161.62c6.48,4.39,22.31,13.62,22.31,13.62l17.88-25.81s-10.59-8.28-21.38-15.58c-10.79-7.31-19.92-3.62-25.11,4.05-5.19,7.67-4.48,16.42,6.31,23.73Z"/><path class="cls-1" d="m228.71,154.34l-28.81-19.54-23.84,35.2,28.81,19.54c9.23,6.25,22.06,3.44,28.64-6.28,6.58-9.72,4.43-22.67-4.8-28.92Z"/><rect class="cls-1" x="182.95" y="129.03" width="2.13" height="40.81" transform="translate(119.91 -78.78) rotate(35.23)"/></g></svg>