<?xml version="1.0" encoding="UTF-8"?>
<svg xmlns="http://www.w3.org/2000/svg" xmlns:xlink="http://www.w3.org/1999/xlink" viewBox="0 0 183.57 177.8">
  <defs>
    <style>
      .cls-1 {
        fill: #85d9ed;
      }

      .cls-1, .cls-2, .cls-3, .cls-4, .cls-5, .cls-6, .cls-7, .cls-8, .cls-9, .cls-10, .cls-11, .cls-12, .cls-13, .cls-14, .cls-15, .cls-16, .cls-17, .cls-18, .cls-19, .cls-20, .cls-21, .cls-22, .cls-23, .cls-24, .cls-25, .cls-26, .cls-27, .cls-28, .cls-29, .cls-30, .cls-31, .cls-32, .cls-33, .cls-34, .cls-35 {
        stroke-width: 0px;
      }

      .cls-2 {
        fill: #cc6eb2;
      }

      .cls-3 {
        fill: #e2a36a;
      }

      .cls-4 {
        fill: #92eaef;
      }

      .cls-5 {
        fill: #f4be84;
      }

      .cls-36 {
        clip-path: url(#clippath);
      }

      .cls-6 {
        fill: none;
      }

      .cls-7 {
        fill: #f9e8ca;
      }

      .cls-8 {
        fill: #606060;
      }

      .cls-9 {
        fill: #292125;
      }

      .cls-10 {
        fill: #fc9e49;
      }

      .cls-11 {
        fill: #262626;
      }

      .cls-12 {
        fill: #ffe5cc;
      }

      .cls-37, .cls-20 {
        fill: #ffcab1;
      }

      .cls-13 {
        fill: #ffb99e;
      }

      .cls-14 {
        fill: #004788;
      }

      .cls-15 {
        fill: url(#_ÂÁ_Ï_ÌÌ_È_ËÂÌÚ_241);
        mix-blend-mode: multiply;
        opacity: .5;
      }

      .cls-16 {
        fill: #302e2f;
      }

      .cls-17 {
        fill: #ffddca;
      }

      .cls-18 {
        fill: #332f33;
      }

      .cls-38 {
        clip-path: url(#clippath-1);
      }

      .cls-39 {
        clip-path: url(#clippath-2);
      }

      .cls-19 {
        fill: #fff;
        opacity: .59;
      }

      .cls-21 {
        fill: #0c3c60;
      }

      .cls-22 {
        fill: #211921;
      }

      .cls-23 {
        fill: #f789e0;
      }

      .cls-24 {
        fill: #f4a08c;
      }

      .cls-25 {
        fill: #202226;
      }

      .cls-26 {
        fill: #9b6335;
      }

      .cls-27 {
        fill: #6b3d2b;
      }

      .cls-28 {
        fill: #92acce;
      }

      .cls-29 {
        fill: #fff4e3;
      }

      .cls-30 {
        fill: #7998ba;
      }

      .cls-31 {
        fill: #d6b799;
      }

      .cls-40 {
        isolation: isolate;
      }

      .cls-32 {
        fill: #703f2c;
      }

      .cls-33 {
        fill: #e6d4d4;
      }

      .cls-34 {
        fill: #794830;
      }

      .cls-35 {
        fill: #d69356;
      }
    </style>
    <clipPath id="clippath">
      <path class="cls-6" d="M0,0h183.57v177.8h-119.53C28.7,177.8,0,149.1,0,113.75V0h0Z"/>
    </clipPath>
    <clipPath id="clippath-1">
      <path class="cls-20" d="M149.64,108.64s-.16.54-.85.61-1.46-.16-1.46-.16l.93-.44h1.38Z"/>
    </clipPath>
    <linearGradient id="_ÂÁ_Ï_ÌÌ_È_ËÂÌÚ_241" data-name="¡ÂÁ˚ÏˇÌÌ˚È „‡‰ËÂÌÚ 241" x1="100.93" y1="283.1" x2="91.44" y2="283.41" gradientTransform="translate(-8.15 -221.48) rotate(-2.55)" gradientUnits="userSpaceOnUse">
      <stop offset="0" stop-color="#9b6335"/>
      <stop offset=".3" stop-color="#986034"/>
      <stop offset=".48" stop-color="#905931"/>
      <stop offset=".62" stop-color="#824d2c"/>
      <stop offset=".75" stop-color="#6e3b25"/>
      <stop offset=".86" stop-color="#54251c"/>
      <stop offset=".97" stop-color="#340a11"/>
      <stop offset="1" stop-color="#29000d"/>
    </linearGradient>
    <clipPath id="clippath-2">
      <path class="cls-6" d="M105.86,15.06l-12.66-1.81-7.71,3.84-5.41,7.35,4.45,13.57.36,7.43-1.82,10.52-4.43,1.47-5.65-.3-5.26-2.98-2.54-8.27v-13.34l1.89-12.33,5.43-6.97,10.71-6.61h13.15l10.49,3.6,7.57,5.22.67,13.3s-2.71,8.56-2.51,6.76c1.73-15.63-6.73-20.48-6.73-20.48Z"/>
    </clipPath>
  </defs>
  <g class="cls-40">
    <g id="Camada_2" data-name="Camada 2">
      <g id="Camada_1-2" data-name="Camada 1">
        <g class="cls-36">
          <g id="character_sit" data-name="character sit">
            <g>
              <path class="cls-18" d="M92.92,146.7c1.89-1.41,3.79-2.82,5.69-4.23,0-.04,0-.09,0-.13,0,0,.34-.23.97-.59,0,0,0,0,.01,0h0c5.01-2.85,30.92-14.92,76.18,5.49-.07,2.13-.13,4.26-.2,6.39-1.91.67-3.82,1.34-5.73,2.02.02-.73.04-1.46.06-2.19-23.78-.7-47.56-1.1-71.34-1.21-1.88-1.85-3.76-3.7-5.65-5.55Z"/>
              <path class="cls-22" d="M131.47,192.15c-1.93-14.58-3.88-29.16-5.88-43.73,4.16.06,8.32.12,12.47.2-.27,14.54-.53,29.09-.8,43.63-1.93-.04-3.87-.07-5.8-.1Z"/>
              <path class="cls-22" d="M147.04,141.09c7,1.8,14.67,4.44,23,8.17-.06,2.13-.13,4.26-.19,6.39-25.64-.75-51.3-1.16-76.95-1.23,0-3.3.02-6.61.02-9.91-.11.06,18.24-12.65,54.11-3.43"/>
            </g>
            <g>
              <path class="cls-16" d="M95.11,88.89s-18.27,1.96-31.29,0c-14.68-2.2-41.55-7.11-41.55-7.11,0,0-4.62-53.93,3.85-58.81,8.46-4.87,40.27,5.13,48.99,10,8.72,4.87,30.78,38.99,20.01,55.91Z"/>
              <path class="cls-8" d="M26.12,22.97c2.04-1.18,5.46-1.48,9.57-1.2,16.88,17.32,21.23,42.05,19.77,65.8-14.69-2.41-33.19-5.79-33.19-5.79,0,0-4.62-53.93,3.85-58.81Z"/>
              <path class="cls-9" d="M16.89,81.97s2.31,5.13,9.23,0c6.93-5.13,10-46.42,0-58.99-4.1-5.64-16.32,32.86-9.23,58.99Z"/>
              <path class="cls-33" d="M74.93,32.88c.06.03.12.07.18.1,8.72,4.87,30.78,38.99,20.01,55.91,0,0-9.9,1.06-20.32.84,9.03-17.56,7.41-37.79.14-56.85Z"/>
              <path class="cls-8" d="M116.92,190.46c-2.82,3.66-65.96,6.32-70.3,3.41s-27.62-102.75-25.6-112.46c0,0,23.57,4.4,41.78,4.65,18.21.26,32.32,2.82,32.32,2.82,0,0,24.37,98.23,21.8,101.57Z"/>
              <path class="cls-16" d="M89.81,88.08c3.37.46,5.31.81,5.31.81,0,0,24.37,98.23,21.8,101.57-.5.65-2.91,1.27-6.56,1.83-22.7-22.69-33.92-80.16-20.55-104.21Z"/>
              <path class="cls-16" d="M21.02,81.42s3.64.68,9.16,1.52c27.8,25.87,41.39,79.36,32.45,112.17-8.4,0-14.74-.38-16.01-1.23-4.34-2.9-27.62-102.75-25.6-112.46Z"/>
              <path class="cls-10" d="M16.38,49.13l-7.06,3.53s18.17,120.6,31.28,158.44c62.48,6.15,129.68-.94,129.68-.94l2.64-9.11s-96.59,6.76-124.22-1.22c-6.34-12.56-32.31-150.7-32.31-150.7Z"/>
            </g>
            <path class="cls-34" d="M58.14,78.1c5.51-1.65,12.28-1.54,17.88,1.39,10.94,5.74,28.46,2.49,29.82,1.94,6.57-2.65,12.31-7.21,19.16-7.39,7.07-1.92-10.15-32.7-5.71-41.42,2.3-4.52-3.53-16.16-8.11-19.46-5-3.6-8.93-2.66-15.49-4.96-7.82-2.75-12.96-4.13-19.89,0-6.93,4.13-7.99,7.07-11.79,13.31-8.89,14.58,3,23.17-2.09,28.26-4.48,4.48-4.06,24.23-3.77,28.32Z"/>
            <g>
              <path id="shin_right" data-name="shin right" class="cls-30" d="M122.5,248.06l-3.78-1.34s1.16-44.63,4.1-54.09c1.47-4.72,9.52-18.62,13.87-24.31,4.37-5.71,16.91-2.5,13.82,7.32-4.95,13.63-14.26,35.59-28,72.42Z"/>
              <path class="cls-30" d="M106.52,150.03s40.27,15.55,42.25,17.6c1.99,2.04-20.92,14.4-20.92,14.4l-41.35-.29-9.56-27.49s23.83-8.07,29.58-4.22Z"/>
            </g>
            <path class="cls-28" d="M78.36,152.51s-4.33,18.33-3.79,23.91c.36,3.76,4.56,9.64,6.25,11.69,1.69,2.05,38.21,4.33,40.95,1.26,2.74-3.07,9.43-16.36,8.83-18.47-1.28-4.49-41.52-13.27-41.52-13.27l-10.71-5.12Z"/>
            <g id="right_hand" data-name="right hand">
              <g id="cup">
                <g>
                  <path class="cls-20" d="M152.88,115.32c-.27.07-.55.13-.84.15-2.2.15-3.48-1.46-3.63-3.54s.91-3.84,3.12-3.99c.29-.02.58,0,.86.03l-.11-1.58c-.32-.03-.65-.04-.99-.02-3.12.21-4.62,2.71-4.42,5.66.2,2.95,2.02,5.23,5.14,5.02.33-.02.66-.08.97-.15l-.11-1.58Z"/>
                  <g>
                    <path class="cls-24" d="M146.87,111.82c0,.07,0,.14,0,.22.2,2.95,2.02,5.23,5.14,5.02.33-.02.66-.08.97-.15l-.03-.43c-.32.07-.64.13-.97.15-3.05.21-4.85-1.96-5.12-4.8Z"/>
                    <path class="cls-24" d="M148.38,111.5c0,.07.01.14.02.21-.06-1.98,1-3.63,3.12-3.78.29-.02.58,0,.86.03l-.03-.43c-.28-.04-.56-.05-.86-.03-2.2.15-3.26,1.91-3.12,3.99Z"/>
                  </g>
                  <rect class="cls-20" x="152.3" y="103.05" width="12.2" height="16.4" transform="translate(-7.15 10.95) rotate(-3.87)"/>
                  <rect class="cls-13" x="158.23" y="102.85" width="6.26" height="16.4" transform="translate(-7.13 11.15) rotate(-3.87)"/>
                  <rect class="cls-24" x="160.24" y="102.82" width="3.31" height="16.4" transform="translate(-7.13 11.19) rotate(-3.87)"/>
                  <rect class="cls-17" x="151.77" y="103.07" width="12.2" height=".72" transform="translate(-6.63 10.9) rotate(-3.87)"/>
                  <path class="cls-17" d="M152.65,103.86l4.09-.28s-1.02,8.83-1.83,8.89-2.26-8.61-2.26-8.61Z"/>
                  <path class="cls-17" d="M154.44,119.21l2.32-.16s-1.09-2.85-1.6-2.81-.72,2.97-.72,2.97Z"/>
                  <rect class="cls-24" x="152.84" y="119.06" width="12.2" height=".37" transform="translate(-7.69 11.01) rotate(-3.87)"/>
                  <path class="cls-29" d="M157.24,102.26s.11-1.55-.56-2.92c-1.22-2.48-3.06-3.62-.57-5.15,2.49-1.54,3.01-2.37,2.76-2.86-.25-.49-2.58-.83-2.9-1.32-.32-.48,1.31-1.96,1.39-2.91.08-.94.24-2.9,0-4.4,0,0,1.17,3.45,1.09,4.4-.08.94-.21,2.18-.21,2.18,0,0,2.46,1.13,2.73,1.91.27.78.93,3.04.6,3.57-.32.53-4.01,2.51-4.11,3.24s.49,1.91.52,2.42-.74,1.85-.74,1.85Z"/>
                </g>
                <g>
                  <path class="cls-5" d="M151.09,108.47c-1.17-.01-5.59.91-7.87,1.78-1.41,1.59.58,2.47.58,2.47,0,0,5.03,2.85,6.34,2.67,0,0,1.09.09.81-1.23,0-.02.01-.04.02-.06.17-.1,1.14-.74.42-1.75,0,0,0-.02,0-.03.14-.11,1.18-.97.22-2.16,0-.05,0-.1,0-.15.16-.34.62-1.5-.53-1.53Z"/>
                  <path class="cls-3" d="M151.18,108.48c.06.04-1.22-.06-1.54.16-.28.19-.26.33-.65.57-.23.14.2.64-.01.77-2.17,1.26-5.16,2.74-5.16,2.74,0,0,5.03,2.85,6.34,2.67,0,0,1.09.09.81-1.23,0-.02.01-.04.02-.06.17-.1,1.14-.74.42-1.75,0,0,0-.02,0-.03.14-.11,1.18-.97.22-2.16,0-.05,0-.1,0-.15.15-.33.59-1.44-.44-1.53Z"/>
                </g>
              </g>
              <path class="cls-5" d="M112.46,109.85c2.96,19.64,5.11,25.42,10.59,25.75,9.71.58,5.47-16.04,3.99-28.74-2.9-24.83-5.2-27.57-12.27-27.36-7.47.22-5.79,3.74-2.31,30.35Z"/>
              <g>
                <path class="cls-5" d="M138.08,113.27l5.13-2.99c.55-.32,1.25-.16,1.61.37h0c.51.75.41,1.75-.23,2.38l-4.43,4.38-2.07-4.14Z"/>
                <polygon class="cls-3" points="139.75 116.61 142.29 115.29 144.8 113.11 145.14 112.04 143.81 112.72 139.75 116.61"/>
                <path class="cls-5" d="M126.84,134.89c8.2-4.25,13.14-17.03,15.1-19.37l-1.96-3.36s-14.62,8.14-19.6,13.16c-3.52,3.55-2.96,5.92-1.21,7.99,1.48,1.76,3.37,3.82,7.67,1.59Z"/>
                <path class="cls-3" d="M123.83,134.25c-1.06.49-1.98.75-2.79.86,1.3.88,3.06,1.2,5.81-.22,8.2-4.25,13.49-17.25,15.46-19.6l-.51-.68c-3.32,4.09-9.43,15.71-17.96,19.65Z"/>
              </g>
              <g>
                <path class="cls-37" d="M149.64,108.64s-.16.54-.85.61-1.46-.16-1.46-.16l.93-.44h1.38Z"/>
                <g class="cls-38">
                  <path class="cls-24" d="M149.42,108.38s-.77.67-.81,1.14.92-.27.92-.27l.13-.9-.24.03Z"/>
                </g>
              </g>
              <path class="cls-5" d="M147.49,109.13l1.57-.04c.47.09,1.07.43,1.07.9l.11,2.58c-.24-.07-1.29-.13-1.42-1.69-.03-.33-1.25-1.14-1.25-1.14l-.09-.61Z"/>
            </g>
            <g id="body">
              <path class="cls-14" d="M108.76,124.25c0-5.39,9.05-13.91,10.92-20.61,1.87-6.7-1.13-23.81-1.13-23.81,0,0-15.04-3.78-23.57-4.77-12.23-1.42-30.06,10.36-30.06,10.36,2.41,25.98,19.4,34.44,19.4,39.72s-14.46,19.22-18.75,30.47c-4.29,11.25,57.08,8.48,61.64-.81-6.76-8.11-18.46-23.83-18.46-30.55Z"/>
              <path class="cls-21" d="M113.6,136.05c-3.05-4.38-4.84-9.4-4.84-11.8,0-5.39,9.05-13.91,10.92-20.61,0,0-3.48,10.37-17.14,12.32-17.5,2.5-23.39-2.14-31.15-9.24,5.7,10.15,12.94,14.96,12.94,18.41,0,2.06-2.19,5.43-5.12,9.44,0,0,12.4-6.76,20.79-6.94,4.89-.1,10.28,4.32,13.6,8.41Z"/>
              <path class="cls-35" d="M84.17,54.89s3.72,15.54-2.7,24.11l12,5.85c1.05,1.19,9.96,13.26,9.96,13.26,0,0,.8-14.61,1.24-15.69l2.01-4.95s-5.07,2.25-5.55-23.82l-16.96,1.25Z"/>
            </g>
            <path id="shin_left" data-name="shin left" class="cls-28" d="M114.32,176.12s-2.77,21.84-2.35,30.2c.42,8.36,15.98,46.16,15.98,46.16l4.41-.43c-1.85-64.17-.6-79.45-.6-79.45-.55-5.44-16.16-6.55-17.44,3.53Z"/>
            <g>
              <g id="Woman">
                <circle class="cls-3" cx="76.08" cy="44" r="5.25"/>
                <path class="cls-5" d="M112.75,28.98c.55,15.91,1.74,20.78.96,25.1-1.54,8.42-10.35,15.52-15.28,16.56-4.27.9-19.78-6.23-21.42-14.97-1.6-8.5-2.44-34.42,7.16-39.54,17.02-9.08,27.66,4.81,28.59,12.85Z"/>
                <path class="cls-3" d="M82.34,57.94c-1.97-4.8-7.08-41.44,12.71-45.09-3.17.12-6.81,1.1-10.89,3.28-9.59,5.12-8.75,31.04-7.16,39.54,1.64,8.75,17.41,16.04,21.42,14.97,4.01-1.07,5.01-2.34,5.01-2.34,0,0-3.78,2.33-7.71,1.32-7.48-1.91-12.42-9.34-13.38-11.68Z"/>
                <path class="cls-35" d="M74.57,44.08c.04-1.12.98-1.99,2.1-1.94.16,0,.31.03.45.07-.37-.29-.83-.48-1.34-.5-1.28-.05-2.35.95-2.4,2.22-.05,1.28.95,2.35,2.22,2.4.32.01.63-.04.91-.15-1.11-.04-1.98-.98-1.94-2.1Z"/>
                <path class="cls-34" d="M106.47,14.62c-8.9.4-12.31,13.39-17.98,14.2-6.89.99-5.78,7.42-8.44,13.2-.38.83-1.11-.32-1.45.76l-2.75-4.02c-7.83-22.75,8.85-32.96,30.62-24.13Z"/>
                <path class="cls-32" d="M66.77,76.17c-.15-3.32,5.58-17.86-.88-33.52,6.89,11.24,3.08,31.4.88,33.52Z"/>
                <path class="cls-32" d="M120.47,74.37c-.52-11.77-5.84-25.96-6.46-39.86-1.33,14.58,5.37,30.56,6.46,39.86Z"/>
              </g>
              <g id="head">
                <path class="cls-35" d="M101.93,34.04s-3.54,4.49-3.42,7.54c.12,3.04,5.41,6.32,5.41,6.32,0,0-2.16,2.8-5.82,3.71,0,0,5.5.8,7.07-3.37-.03-.71-4.43-2.64-4.85-6.86-.37-3.72,1.61-7.34,1.61-7.34Z"/>
                <path class="cls-34" d="M95.07,31.31c.12.47-1.73,1.03-4.44,1.74-2.71.71-5.24,1.3-5.37.83-.12-.47,2.21-1.83,4.92-2.54,2.71-.71,4.77-.5,4.89-.03Z"/>
                <path class="cls-34" d="M106.47,31.42c-.08.48,1.82.87,4.58,1.34,1.43,0,1.79-1.12.29-1.74-2.76-.47-4.79-.08-4.87.4Z"/>
                <g>
                  <path class="cls-12" d="M87.02,41.13s2.11,2.41,4.68,2.29,2.87-2.67,2.87-2.67c0,0-.72-3.22-2.85-2.95-2.13.26-4.7,3.33-4.7,3.33Z"/>
                  <ellipse class="cls-25" cx="91.59" cy="40.77" rx="2.35" ry="2.65" transform="translate(-1.73 4.12) rotate(-2.55)"/>
                  <path class="cls-25" d="M95.16,41.68s-2.06-3.81-3.98-3.24c-1.92.57-4.73,3.2-4.73,3.2l-2.29-2.2,2.49.57s6.13-7.76,8.51,1.66Z"/>
                </g>
                <g>
                  <path class="cls-12" d="M104.05,40.36s1.17,2.37,3.67,2.26c2.5-.11,2.78-2.58,2.78-2.58,0,0-.7-3.11-2.76-2.86-2.07.26-3.68,3.18-3.68,3.18Z"/>
                  <path class="cls-25" d="M109.88,39.95c.06,1.42-.91,2.61-2.16,2.66s-2.33-1.05-2.39-2.46.91-2.61,2.16-2.66,2.33,1.05,2.39,2.46Z"/>
                  <path class="cls-25" d="M111.06,40.93s-1.27-3.14-3.27-3.13c-1.94,0-4.27,3.51-4.27,3.51.22-1.55,4.68-9.09,7.57-1.99l1.76-.61-1.78,2.23Z"/>
                </g>
                <g>
                  <path class="cls-27" d="M92.36,55.76c-.06.16-.57.11-.72.05s-.24-.24-.17-.4.24-.24.4-.17.56.37.5.53Z"/>
                  <path class="cls-34" d="M105.2,55.44c.1.14.57-.05.71-.15.14-.1.16-.3.06-.43-.1-.14-.3-.16-.43-.06-.14.1-.44.51-.33.64Z"/>
                  <path class="cls-26" d="M91.98,55.61l13.54-.33s-2.13,4.11-6.46,4.3-7.08-3.97-7.08-3.97Z"/>
                  <path class="cls-15" d="M91.98,55.61l13.54-.33s-2.13,4.11-6.46,4.3-7.08-3.97-7.08-3.97Z"/>
                  <path class="cls-7" d="M92.98,55.96l10.96-.28s-2.05,3.56-5.68,3.37c-3.63-.2-5.28-3.08-5.28-3.08Z"/>
                  <path class="cls-31" d="M92.98,55.96l10.96-.28-.6.84s-1.19-.64-4.79-.48-5.03.65-5.03.65c0,0-.39-.51-.54-.72Z"/>
                </g>
                <ellipse class="cls-3" cx="99.15" cy="61.56" rx="2.08" ry=".68" transform="translate(-2.64 4.48) rotate(-2.55)"/>
              </g>
            </g>
            <g>
              <path class="cls-11" d="M75.59,36.5c1.55.78,2.69,2.17,3.33,3.69.64,1.52.83,3.16.85,4.77.02,2.48-.69,11.77-8.65,9.91-.55-.13-1.09-.31-1.53-.64-.91-.68-1.27-1.8-1.47-2.85-.55-2.93-.26-5.91.18-8.82.3-1.97.84-4.07,2.13-5.68,1.11-1.4,3.65-1.14,5.17-.38Z"/>
              <path class="cls-23" d="M64.59,40.2c-.65,1.78-.43,3.75-.11,5.63.32,1.91.75,3.86,1.9,5.49,1.15,1.63,3.17,2.88,5.21,2.68,1.74-.18,3.18-1.39,3.94-2.85.75-1.46.91-3.13.91-4.77,0-1.88-.2-3.77-.59-5.64-.18-.86-.42-1.75-.98-2.47-2.67-3.4-9.05-1.45-10.28,1.93Z"/>
              <path class="cls-2" d="M76.73,46.45c0-1.88-.2-3.77-.59-5.64-.18-.86-.42-1.75-.98-2.47-1.01-1.28-3.74-2.57-5.62-1.72.01.02,2.15.2,2.5,2.46.29,1.87.59,3.75.59,5.64,0,1.64-.16,3.31-.91,4.77-.75,1.46-2.19,2.67-3.94,2.85-.09,0-.51-.04-.76-.23,1.28,1.63,3.25,2.12,4.86,1.96,1.74-.18,3.18-1.39,3.94-2.85.75-1.46.91-3.13.91-4.77Z"/>
              <path class="cls-4" d="M66.95,38.53c-.81,1.06-1.25,2.35-1.62,3.65-.38,1.3-.69,2.69-.37,4.05.32,1.37,1.43,2.71,2.85,2.91,1.37.18,2.57-.72,3.36-1.75,1.23-1.6,1.85-3.59,2.15-5.6.17-1.16.23-2.41-.3-3.52-1.41-2.98-4.69-1.55-6.07.26Z"/>
              <path class="cls-4" d="M66.26,39.93c.97-1.57,2.24-2.96,3.04-4.62.66-1.36.98-2.87.95-4.41.32-.21.8.09.94.45s.04.75-.01,1.13c-.46,2.97,1.46,5.97,1.56,9.01.03,1-.14,1.98-.35,2.95-.19.88-.44,1.77-.96,2.5-.52.73-1.38,1.28-2.34,1.24-1.63-.07-3.25.35-3.74-1.21-.79-2.53.08-5.69.9-7.02Z"/>
              <path class="cls-1" d="M68.55,46.08c1.16-.26,2.11-1.01,2.81-1.91,1.44-1.86,1.86-4.44,1.11-6.78.96,1.05,1.16,2.53,1.12,3.87-.05,1.6-.38,3.18-.96,4.64-.39.97-.9,1.92-1.72,2.6-.81.68-1.96,1.04-3.06.76-.74-.2-1.39-.67-1.92-1.23-.38-.4-.71-.85-.92-1.34-.47-1.14-.46-2.38.06-3.52.01,1.09-.32,1.79.57,2.39.85.58,1.95.73,2.9.52Z"/>
              <path class="cls-19" d="M66.11,41.04c-.12.44-.21.94.05,1.34.04.06.08.11.14.15.17.09.36-.04.47-.17,1.13-1.26,1.19-3.27,2.5-4.35.48-.39,1.63-.78.52-1.29-.58-.26-.89-.04-1.3.33-1.15,1.04-1.97,2.51-2.39,3.99Z"/>
              <g class="cls-39">
                <path class="cls-23" d="M72.73,32.8c1.55-.48,2.14-1.44,2.53-2.67.39-1.23.7-2.77.63-4.01-.14-2.51-.06-5.07.84-7.54.9-2.47,2.69-4.85,5.41-6.41,1.67-.96,3.64-1.57,5.63-1.98,4.29-.86,8.84-.77,12.9.28,2.37.61,4.61,1.56,6.26,2.96,2.77,2.35,3.95,5.96,3.55,9.22-.4,3.26-2.27,6.24-3.86,9.33-.49.95-1.28,1.99-.39,2.69.46.36,1.5.62,2.16.71.52.08,1.07.15,1.6.06,1.34-.24,2.02-1.4,2.4-2.41,1.86-4.87,2.02-10.13-.36-14.66-2.38-4.53-7.49-8.2-13.81-9.15-1.71-.26-3.48-.32-5.24-.33-1.67,0-3.36.04-5.03.3-3.07.48-5.93,1.7-8.43,3.22-7.23,4.4-11.34,11.45-10.97,18.24.05.83-.12,1.42.83,1.9.94.48,2.25.58,3.35.24Z"/>
                <path class="cls-11" d="M78.5,18.24c.98.32,2.08-.21,2.78-.79,1.24-1,2.09-2.23,3.31-3.25,3.11-2.61,8.46-3.58,13.13-2.78,2.47.42,4.78,1.29,6.66,2.51,1.31.85,2.44,1.89,2.89,3.11.24.63.29,1.29.48,1.92.19.64.56,1.28,1.28,1.69.72.41,1.84.49,2.51.05.69-.45.65-1.24.43-1.88-.48-1.4-1.57-2.65-2.72-3.83-.78-.81-1.6-1.61-2.54-2.32-3.98-3.04-10.2-4.49-15.93-3.73-5.47.73-9.94,3.35-12.49,6.82-.56.76-1.4,1.97.21,2.5Z"/>
              </g>
              <ellipse class="cls-4" cx="71.18" cy="28.6" rx=".79" ry="1.21"/>
            </g>
            <g>
              <path class="cls-18" d="M29.97,153.11c1.89-1.41,3.79-2.82,5.69-4.23,0-.04,0-.09,0-.13,0,0,.34-.23.97-.59,0,0,0,0,.01,0h0c5.01-2.85,30.92-14.92,76.18,5.49-.07,2.13-.13,4.26-.2,6.39-1.91.67-3.82,1.34-5.73,2.02.02-.73.04-1.46.06-2.19-23.78-.7-47.56-1.1-71.34-1.21-1.88-1.85-3.76-3.7-5.65-5.55Z"/>
              <path class="cls-22" d="M68.51,198.56c-1.93-14.58-3.88-29.16-5.88-43.73,4.16.06,8.32.12,12.47.2-.27,14.54-.53,29.09-.8,43.63-1.93-.04-3.87-.07-5.8-.1Z"/>
              <path class="cls-22" d="M29.97,150.92c-.14.08,26.11-18.1,77.11,4.75-.06,2.13-.13,4.26-.19,6.39-25.64-.75-51.3-1.16-76.95-1.23,0-3.3.02-6.61.02-9.91Z"/>
            </g>
            <g id="left_hand" data-name="left hand">
              <path class="cls-5" d="M54.57,111.97c-6.02,18.93-6.13,22.48-1.35,25.2,8.45,4.81,11.48-9.39,15.76-21.44,8.36-23.56,7.51-27.03,1.07-29.97-6.8-3.1-6.85.79-15.48,26.21Z"/>
              <g>
                <polygon class="cls-5" points="88.12 143.61 95.7 148.29 94.39 150.9 85.19 147.7 88.12 143.61"/>
                <polygon class="cls-3" points="85.75 146.92 85.19 147.7 94.39 150.9 94.81 150.07 85.75 146.92"/>
                <path class="cls-5" d="M53.5,138.1c9.33,6.96,37.24,11.68,40.88,12.8l1.32-2.61s-27.22-18.51-35.48-21.73c-5.84-2.28-8.37.03-9.55,2.74-1,2.3-2.07,5.15,2.83,8.8Z"/>
                <path class="cls-3" d="M52.41,134.64c-1.14-.93-1.96-1.79-2.55-2.62-.17,1.74.52,3.75,3.65,6.08,9.33,6.96,36.38,12.2,40.02,13.32l.86-.52c-6.29-1.85-32.78-8.82-41.98-16.26Z"/>
              </g>
              <g>
                <path class="cls-5" d="M94.9,147.76s5.32,4.14,8.07,7.08c0,0,1.87,1.7,2.74,3.53.48,1,.94,3.33.3,3.59-.64.26-.83-1.31-1.67-2.93-.47-.92-2.09-2.51-2.25-2.45s1.09,1.7,1.4,2.67c.26.81.54,4.1-.11,4.18-.88.11-.74-1.29-1.32-3.68-.26-.79-1.77-2.76-1.97-2.68s.84,1.72.9,2.62c.07.9.11,3.37-.64,3.4-.75.03-.61-1.77-.87-3.17-.14-.75-1.25-2.75-1.34-2.76-.09,0,.24,1.03.14,1.82s-.68,2.52-1.15,2.34c-.47-.18-.22-1.01-.27-2.75-.02-.54-.52-2.09-.52-2.09,0,0-2.38-2.19-3.17-6.59,0,0,.55-2.51,1.73-2.13Z"/>
                <path class="cls-3" d="M97.49,160.95c-.47-.18-.22-1.01-.27-2.75-.02-.54-.68-2.24-.68-2.24,0,0-3.1-6.67-3.17-6.72-.11.24-.19.65-.19.65.79,4.4,3.17,6.59,3.17,6.59,0,0,.51,1.55.52,2.09.05,1.74-.19,2.57.27,2.75.16.06.33-.11.49-.38-.05.02-.1.03-.14.01Z"/>
              </g>
            </g>
          </g>
        </g>
      </g>
    </g>
  </g>
</svg>