<svg id="Grupo_367" data-name="Grupo 367" xmlns="http://www.w3.org/2000/svg" xmlns:xlink="http://www.w3.org/1999/xlink" width="100" height="58.608" viewBox="0 0 100 58.608">
  <defs>
    <clipPath id="clip-path">
      <rect id="Retângulo_249" data-name="Retângulo 249" width="100" height="58.608" fill="none"/>
    </clipPath>
  </defs>
  <g id="Grupo_366" data-name="Grupo 366" clip-path="url(#clip-path)">
    <path id="Caminho_395" data-name="Caminho 395" d="M195.316,42.215a60.1,60.1,0,0,1,28.223-5.838,60.38,60.38,0,0,0-26.581-4.984,62.223,62.223,0,0,0-13.626,2.014,43.115,43.115,0,0,0-5.3,9.3,60.1,60.1,0,0,0,6.813,5.766,62.523,62.523,0,0,1,10.468-6.255" transform="translate(-131.1 -23.086)" fill="#fff"/>
    <path id="Caminho_396" data-name="Caminho 396" d="M170.962,54.213q-.454-.329-.9-.666l-.012-.009,0,0a60.392,60.392,0,0,1-5.211-4.421h0l-.2-.189h0l-.1-.095-.1-.1-.1-.1-.1-.1-.1-.1a43.233,43.233,0,0,1,5.3-9.3,59.076,59.076,0,0,0-10.27,3.748,57.917,57.917,0,0,0,4.971,5.554,39.226,39.226,0,0,0-3.006,14.91,59.1,59.1,0,0,1,9.825-9.146m-6.126-5.1-.2-.189" transform="translate(-117.21 -28.827)" fill="#fff"/>
    <path id="Caminho_397" data-name="Caminho 397" d="M100,53.715c-.114,0-.226.006-.343.006-4.719,0-8.14-3.02-8.14-7.181v-.093c0-3.981,3.429-7.1,7.8-7.1.235,0,.461.009.679.021V34.589c-.2-.009-.412-.009-.623-.009-7.6,0-13.541,4.036-14.8,9.7-.539-4.492-3.655-7.105-9.965-7.105-.283,0-1.262,0-1.529.012v4.826a10.206,10.206,0,0,1,3.712.623,3.148,3.148,0,0,1,1.724,2.92c-1.524-.178-3.251-.3-4.747-.339-5.928-.152-8.946,1.746-9.673,4.813V46.9c0-5.4-3.3-9.607-10.278-9.607-6.394,0-9.7,3.526-10.214,8.259-.814-4.666-4.17-8.486-10.641-8.486-6.566,0-11.152,4.69-11.152,10.381v.072c0,.141,0,.279.009.417-1.317-2.149-4.24-3.319-8.49-4.24-5.058-1.079-5.77-1.6-5.77-3.2v-.073c0-1.178,1.3-2.116,3.763-2.116a12.981,12.981,0,0,1,4.052.769v-5.1a26.129,26.129,0,0,0-3.967-.4c-5.98,0-10.24,2.921-10.24,7.339v.067c0,4.829,3.8,6.184,9.7,7.436,4.891,1.043,5.352,1.739,5.352,3.1v.069c0,1.425-1.589,2.293-4.224,2.293-3.344,0-5.56-1.147-8.192-2.954L0,54.714a19.358,19.358,0,0,0,11.874,3.894c6.13,0,10.486-2.556,10.734-7.127,1.664,3.887,5.811,6.346,10.993,6.346.194,0,.825-.026,1.019-.03V53.251c-.161.005-.768.037-.938.037-2.862,0-4.881-1.337-5.515-3.907H43.539v8.08H50V46.511c.117-2,.9-4.357,3.821-4.357s3.76,2.359,3.873,4.357V57.46h6.4V53.083c.76,3.011,3.877,4.635,7.561,4.635a9.227,9.227,0,0,0,6.818-2.533v2.3h6.186V49.172C86.1,54.565,92,58.5,99.268,58.5c.255,0,.489-.006.732-.012ZM67.88,1.041C66.214.649,64.54.277,62.81.025c-.065-.01-.137-.014-.2-.025a51.1,51.1,0,0,0-6.76,5.972,63.237,63.237,0,0,1,6.914-.627A60.925,60.925,0,0,1,85.84,8.956,54.744,54.744,0,0,0,67.88,1.041M78.545,50.363h0c-.556,2.915-3.565,3.353-4.248,3.389-4.868.256-5.04-3.072-3.4-4.086,2.2-1.363,7.672-.6,7.672-.6a8,8,0,0,1-.02,1.294M28.085,45.849A4.8,4.8,0,0,1,32.97,41.6a4.594,4.594,0,0,1,4.754,4.245Z" fill="#fff"/>
  </g>
</svg>
