<?xml version="1.0" encoding="UTF-8"?><svg id="Camada_2" xmlns="http://www.w3.org/2000/svg" xmlns:xlink="http://www.w3.org/1999/xlink" viewBox="0 0 41 41"><defs><style>.cls-1{fill:#fff;stroke:url(#Gradiente_sem_nome_6);stroke-miterlimit:10;}.cls-2{fill:url(#Gradiente_sem_nome_6-2);stroke-width:0px;}</style><linearGradient id="Gradiente_sem_nome_6" x1="0" y1="20.5" x2="41" y2="20.5" gradientUnits="userSpaceOnUse"><stop offset="0" stop-color="#004788"/><stop offset=".16" stop-color="#044989"/><stop offset=".33" stop-color="#10528f"/><stop offset=".5" stop-color="#246099"/><stop offset=".66" stop-color="#4073a7"/><stop offset=".83" stop-color="#658db8"/><stop offset="1" stop-color="#91abcd"/><stop offset="1" stop-color="#92acce"/></linearGradient><linearGradient id="Gradiente_sem_nome_6-2" x1="10.71" y1="19.56" x2="29.97" y2="19.56" xlink:href="#Gradiente_sem_nome_6"/></defs><g id="Camada_1-2"><g id="Grupo_266"><g id="Grupo_89-5"><circle id="Elipse_1-6" class="cls-1" cx="20.5" cy="20.5" r="20"/></g><path class="cls-2" d="M26.56,6.79v1.72c0,.4.33.73.73.73h1.72l-2.45-2.45ZM11.43,33.29h17.81c.4,0,.73-.33.73-.73V11.34c0-.4-.33-.73-.73-.73h-2.65c-.78,0-1.41-.63-1.41-1.41v-2.65c0-.4-.33-.73-.73-.73h-13.03c-.4,0-.73.33-.73.73v26.01c0,.4.33.73.73.73ZM26.04,25.61c.43,0,.77.34.77.77s-.34.74-.77.74h-12.08c-.43,0-.74-.31-.74-.74s.31-.77.74-.77h12.08ZM20,16.24c-.43,0-.74-.31-.74-.74s.31-.77.74-.77h6.01c.43,0,.74.34.74.77s-.31.74-.74.74h-6.01ZM13.96,19.87c-.43,0-.74-.34-.74-.77s.31-.74.74-.74h12.08c.43,0,.77.31.77.74s-.34.77-.77.77h-12.08ZM13.96,23.48c-.43,0-.74-.31-.74-.74s.31-.77.74-.77h12.08c.43,0,.77.34.77.77s-.34.74-.77.74h-12.08ZM14.15,14h.1c.27,0,.51.1.73.31.22.21.32.46.32.77s-.11.56-.32.75c-.22.2-.48.3-.8.3-.35,0-.64-.14-.87-.42-.23-.28-.35-.67-.35-1.19,0-.47.1-.91.3-1.32.2-.41.45-.74.74-.98.29-.24.55-.36.78-.36.15,0,.27.05.36.14.09.09.13.21.13.35,0,.21-.09.36-.28.46-.25.14-.45.3-.6.48-.15.19-.23.42-.25.7ZM17.3,14h.09c.27,0,.51.1.72.31.22.21.32.46.32.77s-.11.55-.32.76c-.22.2-.48.31-.8.31-.35,0-.64-.14-.87-.43-.23-.29-.34-.68-.34-1.19,0-.37.06-.71.18-1.03.12-.32.27-.61.46-.85s.39-.43.61-.57c.22-.14.41-.21.58-.21.16,0,.28.04.36.13.08.09.12.21.12.35,0,.21-.09.37-.28.46-.26.15-.46.31-.59.49s-.21.41-.24.7Z"/></g></g></svg>