<?xml version="1.0" encoding="UTF-8"?><svg id="Camada_2" xmlns="http://www.w3.org/2000/svg" viewBox="0 0 35.68 35.68"><defs><style>.cls-1{fill:#92acce;}.cls-1,.cls-2{stroke-width:0px;}.cls-2{fill:#fff;}</style></defs><g id="Camada_1-2"><circle class="cls-1" cx="17.84" cy="17.84" r="17.84"/><path id="path2" class="cls-2" d="M14.5,11.15c-.92,0-1.67.75-1.67,1.67v2.51h1.67v-2.51h5.93l.77.77v1.74h1.67v-1.74c0-.44-.18-.87-.49-1.18l-.77-.77c-.31-.31-.74-.49-1.18-.49h-5.93ZM21.19,20.35v2.51h-6.69v-2.51h6.69ZM22.86,21.19h.84c.46,0,.84-.37.84-.84v-2.51c0-.92-.75-1.67-1.67-1.67h-10.04c-.92,0-1.67.75-1.67,1.67v2.51c0,.46.37.84.84.84h.84v1.67c0,.92.75,1.67,1.67,1.67h6.69c.92,0,1.67-.75,1.67-1.67v-1.67ZM22.44,17.63c.35,0,.63.28.63.63s-.28.63-.63.63-.63-.28-.63-.63.28-.63.63-.63Z"/></g></svg>